<?xml version="1.0" encoding="utf-8"?>
<!-- Generator: Adobe Illustrator 19.1.0, SVG Export Plug-In . SVG Version: 6.00 Build 0)  -->
<svg version="1.1" xmlns="http://www.w3.org/2000/svg" xmlns:xlink="http://www.w3.org/1999/xlink" x="0px" y="0px"
	 viewBox="0 0 32 32" enable-background="new 0 0 32 32" xml:space="preserve">
<g id="Layer_2">
</g>
<g id="Layer_1">
</g>
<g id="Layer_3">
</g>
<g id="Layer_4">
</g>
<g id="Layer_5">
	<g>
		<g>
			<path fill="#DD8100" d="M30.71,11.645l-2.94-2.94c-0.013,0.014-0.022,0.03-0.035,0.043c-1.238,1.238-3.246,1.238-4.484,0
				c-1.238-1.238-1.238-3.246,0-4.484c0.014-0.014,0.03-0.022,0.043-0.035l-2.94-2.94c-0.34-0.34-0.897-0.34-1.237,0L1.29,19.117
				c-0.34,0.34-0.34,0.897,0,1.237l2.936,2.936c0.001-0.001,0.001-0.002,0.002-0.003c1.238-1.238,3.246-1.238,4.484,0
				c1.238,1.238,1.238,3.246,0,4.484c-0.001,0.001-0.002,0.001-0.003,0.002l2.936,2.936c0.34,0.34,0.897,0.34,1.237,0L30.71,12.883
				C31.05,12.542,31.05,11.986,30.71,11.645z"/>
			<path fill="#FFFFFF" d="M19.736,1.035c0.224,0,0.448,0.085,0.619,0.255l2.94,2.94c-0.014,0.013-0.03,0.022-0.043,0.035
				c-1.238,1.238-1.238,3.246,0,4.484c0.619,0.619,1.431,0.929,2.242,0.929s1.623-0.31,2.242-0.929
				c0.013-0.014,0.022-0.03,0.035-0.043l2.94,2.94c0.34,0.34,0.34,0.897,0,1.237L12.883,30.71c-0.17,0.17-0.394,0.255-0.619,0.255
				c-0.224,0-0.448-0.085-0.619-0.255L8.71,27.774c0.001-0.001,0.002-0.001,0.003-0.002c1.238-1.238,1.238-3.246,0-4.484
				c-0.619-0.619-1.431-0.929-2.242-0.929c-0.812,0-1.623,0.31-2.242,0.929c-0.001,0.001-0.001,0.002-0.002,0.003L1.29,20.355
				c-0.34-0.34-0.34-0.897,0-1.237L19.117,1.29C19.288,1.12,19.512,1.035,19.736,1.035 M19.736,0.035
				c-0.501,0-0.972,0.195-1.326,0.548L0.583,18.41c-0.731,0.731-0.731,1.92,0,2.651l2.936,2.936l0.712,0.712l0.707-0.716
				l0.016-0.016c0.411-0.4,0.948-0.618,1.517-0.618c0.58,0,1.125,0.226,1.535,0.636c0.841,0.841,0.846,2.205,0.017,3.052
				l-0.016,0.015L7.291,27.77l0.712,0.712l2.936,2.936c0.353,0.353,0.824,0.548,1.326,0.548c0.501,0,0.972-0.195,1.326-0.548
				L31.417,13.59c0.353-0.353,0.548-0.824,0.548-1.326c0-0.501-0.195-0.972-0.548-1.326l-2.94-2.94l-0.72-0.72l-0.707,0.733
				l-0.045,0.047L26.989,8.08c-0.404,0.385-0.934,0.598-1.496,0.598c-0.58,0-1.125-0.226-1.535-0.636
				c-0.835-0.835-0.846-2.187-0.034-3.036c0.022-0.018,0.044-0.037,0.065-0.058l0.733-0.707l-0.72-0.72l-2.94-2.94
				C20.708,0.229,20.237,0.035,19.736,0.035L19.736,0.035z"/>
		</g>
		
			<rect x="16.747" y="10.269" transform="matrix(0.7071 0.7071 -0.7071 0.7071 12.8617 -9.633)" fill="#FFFFFF" width="2.624" height="0.881"/>
		
			<rect x="13.397" y="6.982" transform="matrix(0.7071 0.7071 -0.7071 0.7071 9.5749 -8.2716)" fill="#FFFFFF" width="2.751" height="0.881"/>
		
			<rect x="19.989" y="13.511" transform="matrix(0.7071 0.7071 -0.7071 0.7071 16.1038 -10.9759)" fill="#FFFFFF" width="2.624" height="0.881"/>
		
			<rect x="23.218" y="16.783" transform="matrix(0.7071 0.7071 -0.7071 0.7071 19.3762 -12.3314)" fill="#FFFFFF" width="2.71" height="0.881"/>
	</g>
</g>
<g id="Layer_7">
</g>
</svg>
