<?xml version="1.0" encoding="utf-8"?>
<!-- Generator: Adobe Illustrator 19.1.0, SVG Export Plug-In . SVG Version: 6.00 Build 0)  -->
<svg version="1.1" xmlns="http://www.w3.org/2000/svg" xmlns:xlink="http://www.w3.org/1999/xlink" x="0px" y="0px"
	 viewBox="0 0 32 32" enable-background="new 0 0 32 32" xml:space="preserve">
<g id="Layer_2">
</g>
<g id="Layer_1">
</g>
<g id="Layer_3">
</g>
<g id="Layer_4">
</g>
<g id="Layer_5">
	<g>
		<g>
			<g>
				<path fill="#077467" d="M7,31.5c-1.93,0-3.5-1.57-3.5-3.5V4c0-1.93,1.57-3.5,3.5-3.5h15.207L28.5,6.793V28
					c0,1.93-1.57,3.5-3.5,3.5H7z"/>
				<path fill="#FFFFFF" d="M22,1l6,6v21c0,1.657-1.343,3-3,3H7c-1.657,0-3-1.343-3-3V4c0-1.657,1.343-3,3-3H22 M22.414,0H22H7
					C4.794,0,3,1.794,3,4v24c0,2.206,1.794,4,4,4h18c2.206,0,4-1.794,4-4V7V6.586l-0.293-0.293l-6-6L22.414,0L22.414,0z"/>
			</g>
		</g>
		<polygon fill="#055B4C" points="22,1 22,7 28,7 		"/>
	</g>
	<g>
		<path fill="#055B4C" d="M21.672,26.574H10.328c-1.503,0-2.733-1.23-2.733-2.733v-11.68c0-1.503,1.23-2.733,2.733-2.733h11.345
			c1.503,0,2.733,1.23,2.733,2.733v11.68C24.406,25.344,23.176,26.574,21.672,26.574z"/>
	</g>
	<g>
		<path fill="#FFFFFF" d="M21.672,25.574H10.328c-1.503,0-2.733-1.23-2.733-2.733v-11.68c0-1.503,1.23-2.733,2.733-2.733h11.345
			c1.503,0,2.733,1.23,2.733,2.733v11.68C24.406,24.344,23.176,25.574,21.672,25.574z"/>
		<path fill="#077467" d="M21.672,13.621H10.315c-0.501,0-0.911-0.41-0.911-0.911v-1.554c0-0.501,0.41-0.911,0.911-0.911h11.357
			c0.501,0,0.911,0.41,0.911,0.911v1.554C22.583,13.211,22.173,13.621,21.672,13.621z"/>
		<path fill="#077467" d="M11.719,18.687h-1.352c-0.501,0-0.911-0.41-0.911-0.911v-1.352c0-0.501,0.41-0.911,0.911-0.911h1.352
			c0.501,0,0.911,0.41,0.911,0.911v1.352C12.63,18.277,12.22,18.687,11.719,18.687z"/>
		<path fill="#077467" d="M11.719,23.741h-1.352c-0.501,0-0.911-0.41-0.911-0.911v-1.352c0-0.501,0.41-0.911,0.911-0.911h1.352
			c0.501,0,0.911,0.41,0.911,0.911v1.352C12.63,23.331,12.22,23.741,11.719,23.741z"/>
		<path fill="#077467" d="M16.705,18.687h-1.352c-0.501,0-0.911-0.41-0.911-0.911v-1.352c0-0.501,0.41-0.911,0.911-0.911h1.352
			c0.501,0,0.911,0.41,0.911,0.911v1.352C17.616,18.277,17.206,18.687,16.705,18.687z"/>
		<path fill="#077467" d="M21.732,23.736H20.38c-0.501,0-0.911-0.41-0.911-0.911v-6.402c0-0.501,0.41-0.911,0.911-0.911h1.352
			c0.501,0,0.911,0.41,0.911,0.911v6.402C22.643,23.326,22.233,23.736,21.732,23.736z"/>
		<path fill="#077467" d="M16.705,23.741h-1.352c-0.501,0-0.911-0.41-0.911-0.911v-1.352c0-0.501,0.41-0.911,0.911-0.911h1.352
			c0.501,0,0.911,0.41,0.911,0.911v1.352C17.616,23.331,17.206,23.741,16.705,23.741z"/>
	</g>
</g>
<g id="Layer_7">
</g>
</svg>
