<?xml version="1.0" encoding="utf-8"?>
<!-- Generator: Adobe Illustrator 19.1.0, SVG Export Plug-In . SVG Version: 6.00 Build 0)  -->
<svg version="1.1" xmlns="http://www.w3.org/2000/svg" xmlns:xlink="http://www.w3.org/1999/xlink" x="0px" y="0px"
	 viewBox="0 0 32 32" enable-background="new 0 0 32 32" xml:space="preserve">
<g id="Layer_2">
</g>
<g id="Layer_1">
	<g>
		<g>
			<g>
				<path fill="#00A389" d="M7,31.462c-1.93,0-3.5-1.57-3.5-3.5v-24c0-1.93,1.57-3.5,3.5-3.5h15.207L28.5,6.755v21.207
					c0,1.93-1.57,3.5-3.5,3.5H7z"/>
				<path fill="#FFFFFF" d="M22,0.962l6,6v21c0,1.657-1.343,3-3,3H7c-1.657,0-3-1.343-3-3v-24c0-1.657,1.343-3,3-3H22 M22.414-0.038
					H22H7c-2.206,0-4,1.794-4,4v24c0,2.206,1.794,4,4,4h18c2.206,0,4-1.794,4-4v-21V6.548l-0.293-0.293l-6-6L22.414-0.038
					L22.414-0.038z"/>
			</g>
		</g>
		<polygon fill="#00795A" points="22,0.962 22,6.962 28,6.962 		"/>
	</g>
	<g>
		<path fill="#00795A" d="M11.464,5.401c0-0.256,0.098-0.512,0.293-0.707c0.391-0.391,1.023-0.391,1.414,0l2.828,2.829l2.829-2.829
			c0.391-0.391,1.023-0.391,1.414,0c0.391,0.391,0.391,1.023,0,1.414l-4.243,4.243l-4.242-4.243
			C11.562,5.913,11.464,5.657,11.464,5.401z"/>
		<path fill="#FFFFFF" d="M11.464,3.971c0-0.256,0.098-0.512,0.293-0.707c0.391-0.391,1.023-0.391,1.414,0l2.828,2.829l2.829-2.829
			c0.391-0.391,1.023-0.391,1.414,0c0.391,0.391,0.391,1.023,0,1.414l-4.243,4.243l-4.242-4.243
			C11.562,4.483,11.464,4.227,11.464,3.971z"/>
	</g>
</g>
<g id="Layer_3">
</g>
<g id="Layer_4">
</g>
<g id="Layer_5">
	<g>
		<g>
			<path fill="#00795A" d="M21.436,28.919H10.564c-1.441,0-2.619-1.179-2.619-2.619V15.107c0-1.441,1.179-2.619,2.619-2.619h10.871
				c1.441,0,2.619,1.179,2.619,2.619V26.3C24.055,27.74,22.876,28.919,21.436,28.919z"/>
		</g>
		<g>
			<path fill="#FFFFFF" d="M21.436,27.961H10.564c-1.441,0-2.619-1.179-2.619-2.619V14.149c0-1.441,1.179-2.619,2.619-2.619h10.871
				c1.441,0,2.619,1.179,2.619,2.619v11.193C24.055,26.782,22.876,27.961,21.436,27.961z"/>
			<path fill="#00A389" d="M21.435,16.506H10.552c-0.48,0-0.873-0.393-0.873-0.873v-1.489c0-0.48,0.393-0.873,0.873-0.873h10.883
				c0.48,0,0.873,0.393,0.873,0.873v1.489C22.308,16.114,21.915,16.506,21.435,16.506z"/>
			<path fill="#00A389" d="M11.897,21.361h-1.296c-0.48,0-0.873-0.393-0.873-0.873v-1.296c0-0.48,0.393-0.873,0.873-0.873h1.296
				c0.48,0,0.873,0.393,0.873,0.873v1.296C12.77,20.968,12.378,21.361,11.897,21.361z"/>
			<path fill="#00A389" d="M11.897,26.204h-1.296c-0.48,0-0.873-0.393-0.873-0.873v-1.296c0-0.48,0.393-0.873,0.873-0.873h1.296
				c0.48,0,0.873,0.393,0.873,0.873v1.296C12.77,25.811,12.378,26.204,11.897,26.204z"/>
			<path fill="#00A389" d="M16.676,21.361H15.38c-0.48,0-0.873-0.393-0.873-0.873v-1.296c0-0.48,0.393-0.873,0.873-0.873h1.296
				c0.48,0,0.873,0.393,0.873,0.873v1.296C17.549,20.968,17.156,21.361,16.676,21.361z"/>
			<path fill="#00A389" d="M21.493,26.199h-1.296c-0.48,0-0.873-0.393-0.873-0.873v-6.135c0-0.48,0.393-0.873,0.873-0.873h1.296
				c0.48,0,0.873,0.393,0.873,0.873v6.135C22.366,25.806,21.973,26.199,21.493,26.199z"/>
			<path fill="#00A389" d="M16.676,26.204H15.38c-0.48,0-0.873-0.393-0.873-0.873v-1.296c0-0.48,0.393-0.873,0.873-0.873h1.296
				c0.48,0,0.873,0.393,0.873,0.873v1.296C17.549,25.811,17.156,26.204,16.676,26.204z"/>
		</g>
	</g>
</g>
<g id="Layer_7">
</g>
</svg>
