<?xml version="1.0" encoding="utf-8"?>
<!-- Generator: Adobe Illustrator 19.1.0, SVG Export Plug-In . SVG Version: 6.00 Build 0)  -->
<svg version="1.1" xmlns="http://www.w3.org/2000/svg" xmlns:xlink="http://www.w3.org/1999/xlink" x="0px" y="0px"
	 viewBox="0 0 32 32" enable-background="new 0 0 32 32" xml:space="preserve">
<g id="Layer_2">
</g>
<g id="Layer_1">
</g>
<g id="Layer_3">
	<g>
		<path fill="#9370B1" d="M29.138,26.314c-0.089-1.282-0.15-1.946-0.591-3.438c-0.316-1.07-1.054-1.858-2.255-2.41
			c-1.025-0.471-2.254-0.706-3.338-0.913c-0.897-0.172-1.744-0.333-2.336-0.599c-0.324-0.145-0.606-0.36-0.839-0.638
			c-0.128-0.153-0.244-0.33-0.346-0.526c0.517-0.424,0.965-0.937,1.342-1.536c0.518-0.824,0.899-1.809,1.14-2.944
			c0.247-0.07,0.488-0.261,0.692-0.548c0.226-0.32,0.396-0.748,0.478-1.205c0.12-0.665,0.045-1.301-0.199-1.722
			c0.022-0.087,0.042-0.175,0.061-0.267c0.114-0.571,0.151-1.231,0.113-1.965c-0.066-1.241-0.325-2.248-0.335-2.289
			c-0.267-1.062-1.063-2.128-2.185-2.925C19.646,1.756,18.135,1,16.006,1s-3.641,0.756-4.534,1.391
			C10.35,3.187,9.554,4.252,9.287,5.314C9.273,5.369,9.014,6.372,8.946,7.605C8.906,8.338,8.943,8.999,9.056,9.57
			C9.073,9.659,9.093,9.745,9.114,9.83c-0.247,0.421-0.323,1.059-0.203,1.728c0.083,0.459,0.253,0.888,0.481,1.209
			c0.205,0.288,0.447,0.478,0.695,0.547c0.242,1.134,0.623,2.119,1.141,2.943c0.378,0.601,0.827,1.115,1.347,1.54
			c-0.101,0.194-0.216,0.369-0.343,0.521c-0.233,0.278-0.515,0.493-0.839,0.638c-0.592,0.266-1.439,0.428-2.336,0.599
			c-1.084,0.207-2.313,0.442-3.338,0.913c-1.201,0.551-1.938,1.34-2.255,2.41c-0.435,1.473-0.5,2.139-0.587,3.39
			c-0.047,0.201-0.077,0.408-0.077,0.622v1.329c0,0.02,0.005,0.038,0.006,0.057C2.838,29.778,4.072,31,5.583,31h20.834
			c1.53,0,2.782-1.252,2.782-2.782V27.19v-0.301C29.199,26.692,29.177,26.5,29.138,26.314z"/>
		<path fill="#FFFFFF" d="M26.417,31.498H5.583c-1.769,0-3.238-1.44-3.275-3.212l-0.006-1.397c0-0.234,0.029-0.475,0.089-0.734
			c0.075-1.164,0.142-1.884,0.595-3.42c0.359-1.216,1.186-2.106,2.525-2.722c1.083-0.496,2.341-0.736,3.452-0.948
			c0.87-0.167,1.688-0.324,2.226-0.565c0.255-0.114,0.478-0.283,0.66-0.502c0.028-0.033,0.055-0.068,0.082-0.104
			c-0.424-0.397-0.801-0.857-1.125-1.371c-0.507-0.808-0.893-1.765-1.148-2.849c-0.248-0.133-0.476-0.342-0.671-0.617
			c-0.27-0.38-0.471-0.881-0.566-1.411c-0.125-0.697-0.064-1.369,0.167-1.879C8.58,9.733,8.573,9.7,8.566,9.667
			c-0.121-0.613-0.161-1.316-0.118-2.09c0.072-1.315,0.354-2.381,0.357-2.392c0.293-1.168,1.161-2.338,2.377-3.201
			c0.952-0.677,2.562-1.482,4.823-1.482s3.871,0.806,4.823,1.482c1.217,0.863,2.084,2.033,2.38,3.21
			c0.028,0.11,0.284,1.135,0.349,2.383c0.041,0.776,0,1.479-0.122,2.089c-0.007,0.036-0.015,0.071-0.022,0.106
			c0.228,0.511,0.288,1.18,0.164,1.872c-0.095,0.527-0.295,1.026-0.562,1.404c-0.195,0.276-0.422,0.486-0.668,0.62
			c-0.256,1.086-0.642,2.044-1.149,2.851c-0.322,0.513-0.698,0.972-1.12,1.368c0.027,0.038,0.056,0.074,0.085,0.109
			c0.183,0.219,0.404,0.388,0.66,0.502c0.537,0.241,1.354,0.398,2.22,0.564c1.116,0.213,2.375,0.453,3.457,0.949
			c1.34,0.615,2.166,1.506,2.525,2.722c0.452,1.529,0.519,2.228,0.608,3.512c0.043,0.216,0.065,0.432,0.065,0.643v1.329
			C29.698,30.026,28.226,31.498,26.417,31.498z M16.006,1.498c-1.998,0-3.412,0.707-4.246,1.299c-1.026,0.729-1.751,1.69-1.99,2.639
			C9.766,5.453,9.509,6.438,9.444,7.632C9.406,8.322,9.44,8.942,9.545,9.474c0.016,0.081,0.034,0.159,0.053,0.237l0.049,0.196
			l-0.103,0.175c-0.185,0.315-0.239,0.847-0.142,1.387c0.07,0.388,0.211,0.747,0.397,1.01c0.133,0.188,0.287,0.316,0.421,0.354
			l0.292,0.08l0.063,0.296c0.23,1.076,0.591,2.012,1.076,2.783c0.347,0.551,0.764,1.028,1.241,1.419l0.314,0.258l-0.189,0.359
			c-0.119,0.227-0.254,0.431-0.402,0.608c-0.281,0.336-0.623,0.596-1.018,0.773c-0.644,0.289-1.518,0.456-2.442,0.634
			c-1.06,0.202-2.255,0.431-3.228,0.876c-1.062,0.488-1.711,1.175-1.984,2.099c-0.425,1.438-0.484,2.081-0.568,3.284
			c-0.054,0.263-0.075,0.43-0.075,0.587v1.329c0.032,1.28,1.054,2.284,2.284,2.284h20.834c1.259,0,2.284-1.025,2.284-2.284v-1.329
			c0-0.153-0.017-0.312-0.051-0.471l-0.01-0.069c-0.088-1.266-0.145-1.886-0.572-3.331c-0.273-0.924-0.922-1.61-1.984-2.099
			c-0.972-0.445-2.168-0.674-3.224-0.876c-0.93-0.178-1.803-0.345-2.447-0.634c-0.395-0.178-0.737-0.438-1.017-0.773
			c-0.151-0.182-0.288-0.389-0.406-0.616l-0.186-0.359l0.312-0.256c0.473-0.388,0.889-0.864,1.235-1.415
			c0.484-0.77,0.846-1.706,1.075-2.782l0.062-0.294l0.289-0.082c0.135-0.038,0.288-0.168,0.421-0.357
			c0.185-0.262,0.325-0.619,0.395-1.006c0.097-0.536,0.043-1.066-0.141-1.383l-0.101-0.176l0.049-0.196
			c0.02-0.078,0.039-0.158,0.055-0.241c0.106-0.529,0.141-1.148,0.104-1.842c-0.061-1.152-0.293-2.087-0.32-2.19
			c-0.239-0.952-0.964-1.914-1.991-2.643C19.417,2.205,18.004,1.498,16.006,1.498z"/>
	</g>
	<path fill="#FFFFFF" d="M13.3,27.644H8.318c-0.517,0-0.939-0.423-0.939-0.939v-2.027c0-0.517,0.423-0.939,0.939-0.939H13.3
		c0.517,0,0.939,0.423,0.939,0.939v2.027C14.239,27.221,13.817,27.644,13.3,27.644z"/>
</g>
<g id="Layer_4">
</g>
<g id="Layer_5">
</g>
<g id="Layer_7">
</g>
</svg>
