<?xml version="1.0" encoding="utf-8"?>
<!-- Generator: Adobe Illustrator 19.1.0, SVG Export Plug-In . SVG Version: 6.00 Build 0)  -->
<svg version="1.1" xmlns="http://www.w3.org/2000/svg" xmlns:xlink="http://www.w3.org/1999/xlink" x="0px" y="0px"
	 viewBox="0 0 32 32" enable-background="new 0 0 32 32" xml:space="preserve">
<g id="Layer_2">
</g>
<g id="Layer_1">
</g>
<g id="Layer_3">
</g>
<g id="Layer_4">
</g>
<g id="Layer_5">
	<g>
		<g>
			<g>
				<path fill="#00A389" d="M7,31.5c-1.93,0-3.5-1.57-3.5-3.5V4c0-1.93,1.57-3.5,3.5-3.5h15.207L28.5,6.793V28
					c0,1.93-1.57,3.5-3.5,3.5H7z"/>
				<path fill="#FFFFFF" d="M22,1l6,6v21c0,1.657-1.343,3-3,3H7c-1.657,0-3-1.343-3-3V4c0-1.657,1.343-3,3-3H22 M22.414,0H22H7
					C4.794,0,3,1.794,3,4v24c0,2.206,1.794,4,4,4h18c2.206,0,4-1.794,4-4V7V6.586l-0.293-0.293l-6-6L22.414,0L22.414,0z"/>
			</g>
		</g>
		<polygon fill="#00795A" points="22,1 22,7 28,7 		"/>
	</g>
	<g>
		<g>
			<path fill="#00795A" d="M13.297,23.023c-0.256,0-0.512-0.098-0.707-0.293c-0.391-0.391-0.391-1.023,0-1.414L16.906,17
				l-4.316-4.316c-0.391-0.391-0.391-1.023,0-1.414s1.023-0.391,1.414,0l5.73,5.73l-5.73,5.73
				C13.808,22.926,13.553,23.023,13.297,23.023z"/>
			<path fill="#FFFFFF" d="M13.297,22.023c-0.256,0-0.512-0.098-0.707-0.293c-0.391-0.391-0.391-1.023,0-1.414L16.906,16
				l-4.316-4.316c-0.391-0.391-0.391-1.023,0-1.414s1.023-0.391,1.414,0l5.73,5.73l-5.73,5.73
				C13.808,21.926,13.553,22.023,13.297,22.023z"/>
		</g>
		<g>
			<path fill="#00795A" d="M6.984,23.023c-0.256,0-0.512-0.098-0.707-0.293c-0.391-0.391-0.391-1.023,0-1.414L10.593,17
				l-4.316-4.316c-0.391-0.391-0.391-1.023,0-1.414s1.023-0.391,1.414,0l5.73,5.73l-5.73,5.73
				C7.495,22.926,7.24,23.023,6.984,23.023z"/>
			<path fill="#FFFFFF" d="M6.984,22.023c-0.256,0-0.512-0.098-0.707-0.293c-0.391-0.391-0.391-1.023,0-1.414L10.593,16
				l-4.316-4.316c-0.391-0.391-0.391-1.023,0-1.414s1.023-0.391,1.414,0l5.73,5.73l-5.73,5.73
				C7.495,21.926,7.24,22.023,6.984,22.023z"/>
		</g>
		<g>
			<path fill="#00795A" d="M19.579,23.023c-0.256,0-0.512-0.098-0.707-0.293c-0.391-0.391-0.391-1.023,0-1.414L23.188,17
				l-4.316-4.316c-0.391-0.391-0.391-1.023,0-1.414s1.023-0.391,1.414,0l5.73,5.73l-5.73,5.73
				C20.091,22.926,19.835,23.023,19.579,23.023z"/>
			<path fill="#FFFFFF" d="M19.579,22.023c-0.256,0-0.512-0.098-0.707-0.293c-0.391-0.391-0.391-1.023,0-1.414L23.188,16
				l-4.316-4.316c-0.391-0.391-0.391-1.023,0-1.414s1.023-0.391,1.414,0l5.73,5.73l-5.73,5.73
				C20.091,21.926,19.835,22.023,19.579,22.023z"/>
		</g>
	</g>
</g>
<g id="Layer_7">
</g>
</svg>
