<?xml version="1.0" encoding="utf-8"?>
<!-- Generator: Adobe Illustrator 19.2.0, SVG Export Plug-In . SVG Version: 6.00 Build 0)  -->
<!DOCTYPE svg PUBLIC "-//W3C//DTD SVG 1.1//EN" "http://www.w3.org/Graphics/SVG/1.1/DTD/svg11.dtd">
<svg version="1.1" xmlns="http://www.w3.org/2000/svg" xmlns:xlink="http://www.w3.org/1999/xlink" x="0px" y="0px"
	 viewBox="0 0 32 32" enable-background="new 0 0 32 32" xml:space="preserve">
<symbol  id="Shortcut_2_" viewBox="-7.5 -7.5 15 15">
	<g>
		<g>
			<circle opacity="0.9" fill="#3C5666" cx="0" cy="0" r="7"/>
			<path fill="#FFFFFF" d="M0,6.5c3.59,0,6.5-2.91,6.5-6.5S3.59-6.5,0-6.5S-6.5-3.59-6.5,0S-3.59,6.5,0,6.5 M0,7.5
				c-4.136,0-7.5-3.364-7.5-7.5S-4.136-7.5,0-7.5S7.5-4.136,7.5,0S4.136,7.5,0,7.5L0,7.5z"/>
		</g>
	</g>
	<path fill="#3C5666" d="M4.207,0.5L1.854,2.854c-0.195,0.195-0.512,0.195-0.707,0s-0.195-0.512,0-0.707L2.293,1H1.5
		C-1.359,1-3-0.641-3-3.5C-3-3.776-2.776-4-2.5-4S-2-3.776-2-3.5C-2-1.903-1.393,0,1.5,0h0.793L1.146-1.146
		c-0.195-0.195-0.195-0.512,0-0.707C1.244-1.951,1.372-2,1.5-2s0.256,0.049,0.354,0.146L4.207,0.5z"/>
	<path fill="#FFFFFF" d="M4.207,1.5L1.854,3.854c-0.195,0.195-0.512,0.195-0.707,0s-0.195-0.512,0-0.707L2.293,2H1.5
		C-1.359,2-3,0.359-3-2.5C-3-2.776-2.776-3-2.5-3S-2-2.776-2-2.5C-2-0.903-1.393,1,1.5,1h0.793L1.146-0.146
		c-0.195-0.195-0.195-0.512,0-0.707C1.244-0.951,1.372-1,1.5-1s0.256,0.049,0.354,0.146L4.207,1.5z"/>
</symbol>
<g id="Layer_1">
	<g id="Ppt">
	</g>
	<g id="Small_Folder">
	</g>
	<g id="fave_icon_-_selected">
	</g>
	<g id="Shortcut_1_">
	</g>
	<g>
		<g>
			<path fill="#00A389" d="M7,31.5c-1.93,0-3.5-1.57-3.5-3.5V4c0-1.93,1.57-3.5,3.5-3.5h15.207L28.5,6.793V28
				c0,1.93-1.57,3.5-3.5,3.5H7z"/>
			<path fill="#FFFFFF" d="M22,1l6,6v21c0,1.657-1.343,3-3,3H7c-1.657,0-3-1.343-3-3V4c0-1.657,1.343-3,3-3H22 M22.414,0H22H7
				C4.794,0,3,1.794,3,4v24c0,2.206,1.794,4,4,4h18c2.206,0,4-1.794,4-4V7V6.586l-0.293-0.293l-6-6L22.414,0L22.414,0z"/>
		</g>
	</g>
	<polygon fill-rule="evenodd" clip-rule="evenodd" fill="#00795A" points="22,1 22,7 28,7 	"/>
	<path fill="#00795A" d="M8,10v12h16V10H8z M23,11v5.445c-1.995-0.229-3.819-0.279-5.521-0.177C17.487,16.179,17.5,16.088,17.5,16
		c0-1.93-1.57-3.5-3.5-3.5s-3.5,1.57-3.5,3.5c0,0.61,0.166,1.198,0.474,1.728C10.292,18.021,9.635,18.359,9,18.739V11H23z
		 M11.923,17.354C11.651,16.943,11.5,16.481,11.5,16c0-1.379,1.122-2.5,2.5-2.5s2.5,1.121,2.5,2.5c0,0.109-0.01,0.222-0.03,0.341
		C14.833,16.508,13.327,16.849,11.923,17.354z M9,21v-1.105c3.626-2.359,8.055-3.141,13.942-2.451L23,16.947V21H9z"/>
	<path fill="#FFFFFF" d="M8,9v12h16V9H8z M23,10v5.445c-1.995-0.229-3.819-0.279-5.521-0.177C17.487,15.179,17.5,15.088,17.5,15
		c0-1.93-1.57-3.5-3.5-3.5s-3.5,1.57-3.5,3.5c0,0.61,0.166,1.198,0.474,1.728C10.292,17.021,9.635,17.359,9,17.739V10H23z
		 M11.923,16.354C11.651,15.943,11.5,15.481,11.5,15c0-1.379,1.122-2.5,2.5-2.5s2.5,1.121,2.5,2.5c0,0.109-0.01,0.222-0.03,0.341
		C14.833,15.508,13.327,15.849,11.923,16.354z M9,20v-1.105c3.626-2.359,8.055-3.141,13.942-2.451L23,15.947V20H9z"/>
	<g id="comment_icon_-_selected">
	</g>
	<g id="Comment_icon">
	</g>
</g>
<g id="shortcut_overlay" display="none">
	<g id="Shortcut" display="inline">
	</g>
	
		<use xlink:href="#Shortcut_2_"  width="15" height="15" x="-7.5" y="-7.5" transform="matrix(1 0 0 -1 7.5 24.5)" display="inline" overflow="visible"/>
</g>
</svg>
