<?xml version="1.0" encoding="utf-8"?>
<!-- Generator: Adobe Illustrator 18.1.0, SVG Export Plug-In . SVG Version: 6.00 Build 0)  -->
<!DOCTYPE svg PUBLIC "-//W3C//DTD SVG 1.1//EN" "http://www.w3.org/Graphics/SVG/1.1/DTD/svg11.dtd">
<svg version="1.1" id="Layer_1" xmlns="http://www.w3.org/2000/svg" xmlns:xlink="http://www.w3.org/1999/xlink" x="0px" y="0px"
	 viewBox="0 0 32 32" enable-background="new 0 0 32 32" xml:space="preserve">
<g id="Ppt">
</g>
<g id="Small_Folder">
</g>
<g>
	<g>
		<g>
			<path fill="#D24625" d="M7,31.5c-1.93,0-3.5-1.57-3.5-3.5V4c0-1.93,1.57-3.5,3.5-3.5h15.207L28.5,6.793V28
				c0,1.93-1.57,3.5-3.5,3.5H7z"/>
			<path fill="#FFFFFF" d="M22,1l6,6v21c0,1.657-1.343,3-3,3H7c-1.657,0-3-1.343-3-3V4c0-1.657,1.343-3,3-3H22 M22.414,0H22H7
				C4.794,0,3,1.794,3,4v24c0,2.206,1.794,4,4,4h18c2.206,0,4-1.794,4-4V7V6.586l-0.293-0.293l-6-6L22.414,0L22.414,0z"/>
		</g>
	</g>
	<polygon fill-rule="evenodd" clip-rule="evenodd" fill="#9E230B" points="22,1 22,7 28,7 	"/>
	<path fill="#9E230B" d="M17,10h-5v12c0,0.552,0.448,1,1,1s1-0.448,1-1v-4h3c2.209,0,4-1.791,4-4C21,11.791,19.209,10,17,10z
		 M16.846,16H14v-4h3c1.2,0,2.153,1.057,1.98,2.291C18.837,15.304,17.87,16,16.846,16z"/>
	<path fill="#FFFFFF" d="M16.846,15H14v-4h3c1.2,0,2.153,1.057,1.98,2.291C18.837,14.304,17.87,15,16.846,15z M17,9h-5v12
		c0,0.552,0.448,1,1,1s1-0.448,1-1v-4h3c2.209,0,4-1.791,4-4C21,10.791,19.209,9,17,9z"/>
</g>
<g id="fave_icon_-_selected">
</g>
</svg>
