<?xml version="1.0" encoding="utf-8"?>
<!-- Generator: Adobe Illustrator 19.1.0, SVG Export Plug-In . SVG Version: 6.00 Build 0)  -->
<svg version="1.1" xmlns="http://www.w3.org/2000/svg" xmlns:xlink="http://www.w3.org/1999/xlink" x="0px" y="0px"
	 viewBox="0 0 32 32" enable-background="new 0 0 32 32" xml:space="preserve">
<g id="Layer_2">
</g>
<g id="Layer_1">
</g>
<g id="Layer_3">
</g>
<g id="Layer_4">
</g>
<g id="Layer_5">
	<g>
		<g>
			<g>
				<g>
					<g>
						<path fill="#004A70" d="M7,31.5c-1.93,0-3.5-1.57-3.5-3.5V4c0-1.93,1.57-3.5,3.5-3.5h15.207L28.5,6.793V28
							c0,1.93-1.57,3.5-3.5,3.5H7z"/>
						<path fill="#FFFFFF" d="M22,1l6,6v21c0,1.657-1.343,3-3,3H7c-1.657,0-3-1.343-3-3V4c0-1.657,1.343-3,3-3H22 M22.414,0H22H7
							C4.794,0,3,1.794,3,4v24c0,2.206,1.794,4,4,4h18c2.206,0,4-1.794,4-4V7V6.586l-0.293-0.293l-6-6L22.414,0L22.414,0z"/>
					</g>
				</g>
				<polygon fill="#003854" points="22,1 22,7 28,7 				"/>
			</g>
		</g>
		<g>
			<polygon fill="#003854" points="15.977,10.188 5.564,15.258 15.977,20.148 26.436,15.168 			"/>
			<polygon fill="#003854" points="21.229,21.883 21.229,19.212 16.023,21.657 10.816,19.212 10.816,21.793 15.932,24.328 			"/>
			<path fill="#003854" d="M8.326,24.678c-0.276,0-0.5-0.224-0.5-0.5v-8.24c0-0.276,0.224-0.5,0.5-0.5s0.5,0.224,0.5,0.5v8.24
				C8.826,24.454,8.602,24.678,8.326,24.678z"/>
		</g>
		<g>
			<polygon fill="#FFFFFF" points="15.977,9.188 5.564,14.258 15.977,19.148 26.436,14.168 			"/>
			<polygon fill="#FFFFFF" points="21.229,20.883 21.229,18.212 16.023,20.657 10.816,18.212 10.816,20.793 15.932,23.328 			"/>
			<path fill="#FFFFFF" d="M8.326,23.678c-0.276,0-0.5-0.224-0.5-0.5v-8.24c0-0.276,0.224-0.5,0.5-0.5s0.5,0.224,0.5,0.5v8.24
				C8.826,23.454,8.602,23.678,8.326,23.678z"/>
		</g>
	</g>
</g>
<g id="Layer_7">
</g>
</svg>
