<?xml version="1.0" encoding="utf-8"?>
<!-- Generator: Adobe Illustrator 19.2.0, SVG Export Plug-In . SVG Version: 6.00 Build 0)  -->
<!DOCTYPE svg PUBLIC "-//W3C//DTD SVG 1.1//EN" "http://www.w3.org/Graphics/SVG/1.1/DTD/svg11.dtd">
<svg version="1.1" xmlns="http://www.w3.org/2000/svg" xmlns:xlink="http://www.w3.org/1999/xlink" x="0px" y="0px"
	 viewBox="0 0 32 32" enable-background="new 0 0 32 32" xml:space="preserve">
<symbol  id="Shortcut_2_" viewBox="-7.5 -7.5 15 15">
	<g>
		<g>
			<circle opacity="0.9" fill="#3C5666" cx="0" cy="0" r="7"/>
			<path fill="#FFFFFF" d="M0,6.5c3.59,0,6.5-2.91,6.5-6.5S3.59-6.5,0-6.5S-6.5-3.59-6.5,0S-3.59,6.5,0,6.5 M0,7.5
				c-4.136,0-7.5-3.364-7.5-7.5S-4.136-7.5,0-7.5S7.5-4.136,7.5,0S4.136,7.5,0,7.5L0,7.5z"/>
		</g>
	</g>
	<path fill="#3C5666" d="M4.207,0.5L1.854,2.854c-0.195,0.195-0.512,0.195-0.707,0s-0.195-0.512,0-0.707L2.293,1H1.5
		C-1.359,1-3-0.641-3-3.5C-3-3.776-2.776-4-2.5-4S-2-3.776-2-3.5C-2-1.903-1.393,0,1.5,0h0.793L1.146-1.146
		c-0.195-0.195-0.195-0.512,0-0.707C1.244-1.951,1.372-2,1.5-2s0.256,0.049,0.354,0.146L4.207,0.5z"/>
	<path fill="#FFFFFF" d="M4.207,1.5L1.854,3.854c-0.195,0.195-0.512,0.195-0.707,0s-0.195-0.512,0-0.707L2.293,2H1.5
		C-1.359,2-3,0.359-3-2.5C-3-2.776-2.776-3-2.5-3S-2-2.776-2-2.5C-2-0.903-1.393,1,1.5,1h0.793L1.146-0.146
		c-0.195-0.195-0.195-0.512,0-0.707C1.244-0.951,1.372-1,1.5-1s0.256,0.049,0.354,0.146L4.207,1.5z"/>
</symbol>
<g id="Layer_1">
	<g id="Ppt">
	</g>
	<g id="Small_Folder">
	</g>
	<g id="fave_icon_-_selected">
	</g>
	<g id="Shortcut_1_">
		<g>
			<g>
				<path opacity="0.9" fill="#0072AA" d="M16,31.5C7.453,31.5,0.5,24.547,0.5,16S7.453,0.5,16,0.5S31.5,7.453,31.5,16
					S24.547,31.5,16,31.5z"/>
				<path fill="#FFFFFF" d="M16,1c8.284,0,15,6.716,15,15s-6.716,15-15,15S1,24.284,1,16S7.716,1,16,1 M16,0C7.178,0,0,7.178,0,16
					s7.178,16,16,16s16-7.178,16-16S24.822,0,16,0L16,0z"/>
			</g>
		</g>
		<path fill="#004B71" d="M25.709,14.846l-5.431-5.431c-0.451-0.451-1.181-0.451-1.632,0c-0.451,0.451-0.451,1.181,0,1.632
			l2.646,2.646h-1.83c-6.599,0-10.385,3.786-10.385,10.385c0,0.638,0.516,1.154,1.154,1.154s1.154-0.516,1.154-1.154
			c0-3.685,1.402-8.077,8.077-8.077h1.83l-2.646,2.646c-0.451,0.451-0.451,1.181,0,1.632c0.225,0.225,0.521,0.338,0.816,0.338
			c0.295,0,0.59-0.113,0.816-0.338L25.709,14.846z"/>
		<path fill="#FFFFFF" d="M25.709,12.538l-5.431-5.431c-0.451-0.451-1.181-0.451-1.632,0s-0.451,1.181,0,1.632l2.646,2.646h-1.83
			c-6.599,0-10.385,3.786-10.385,10.385c0,0.638,0.516,1.154,1.154,1.154s1.154-0.516,1.154-1.154c0-3.685,1.402-8.077,8.077-8.077
			h1.83l-2.646,2.646c-0.451,0.451-0.451,1.181,0,1.632c0.225,0.225,0.521,0.338,0.816,0.338c0.295,0,0.59-0.113,0.816-0.338
			L25.709,12.538z"/>
	</g>
	<g id="comment_icon_-_selected">
	</g>
	<g id="Comment_icon">
	</g>
</g>
<g id="shortcut_overlay" display="none">
	<g id="Shortcut" display="inline">
	</g>
	
		<use xlink:href="#Shortcut_2_"  width="15" height="15" x="-7.5" y="-7.5" transform="matrix(1 0 0 -1 7.5 24.5)" display="inline" overflow="visible"/>
</g>
</svg>
