<?xml version="1.0" encoding="utf-8"?>
<!-- Generator: Adobe Illustrator 19.1.0, SVG Export Plug-In . SVG Version: 6.00 Build 0)  -->
<svg version="1.1" xmlns="http://www.w3.org/2000/svg" xmlns:xlink="http://www.w3.org/1999/xlink" x="0px" y="0px"
	 viewBox="0 0 32 32" enable-background="new 0 0 32 32" xml:space="preserve">
<g id="Layer_2">
</g>
<g id="Layer_1">
	<g>
		<polygon fill="#F1F2F2" points="17.627,27.963 17.631,27.96 17.627,27.96 		"/>
		<g>
			<g>
				<g>
					<path fill="#00A389" d="M7,31.5c-1.93,0-3.5-1.57-3.5-3.5V4c0-1.93,1.57-3.5,3.5-3.5h15.207L28.5,6.793V28
						c0,1.93-1.57,3.5-3.5,3.5H7z"/>
					<path fill="#FFFFFF" d="M22,1l6,6v21c0,1.657-1.343,3-3,3H7c-1.657,0-3-1.343-3-3V4c0-1.657,1.343-3,3-3H22 M22.414,0H22H7
						C4.794,0,3,1.794,3,4v24c0,2.206,1.794,4,4,4h18c2.206,0,4-1.794,4-4V7V6.586l-0.293-0.293l-6-6L22.414,0L22.414,0z"/>
				</g>
			</g>
			<polygon fill="#00795A" points="22,1 22,7 28,7 			"/>
		</g>
		<path fill-rule="evenodd" clip-rule="evenodd" fill="#00795A" d="M13.263,21.962c0,1.117-0.906,2.022-2.022,2.022
			c-1.117,0-2.023-0.906-2.023-2.022s0.905-2.022,2.023-2.022C12.357,19.939,13.263,20.845,13.263,21.962z M11.241,21.288
			c-0.373,0-0.674,0.302-0.674,0.674c0,0.372,0.302,0.674,0.674,0.674c0.372,0,0.674-0.302,0.674-0.674
			C11.915,21.589,11.613,21.288,11.241,21.288z M22.364,21.962c0,1.117-0.906,2.022-2.023,2.022c-1.117,0-2.022-0.906-2.022-2.022
			s0.905-2.022,2.022-2.022C21.458,19.939,22.364,20.845,22.364,21.962z M20.342,21.288c-0.373,0-0.674,0.302-0.674,0.674
			c0,0.372,0.302,0.674,0.674,0.674c0.372,0,0.674-0.302,0.674-0.674C21.016,21.589,20.714,21.288,20.342,21.288z M5.848,16.568
			c0-2.226,1.818-4.045,4.045-4.045h3.033c0.368,0,0.674,0.303,0.674,0.674v6.067c0,0.131-0.07,0.243-0.187,0.301
			c-0.117,0.059-0.249,0.047-0.353-0.032c-0.507-0.381-1.137-0.607-1.82-0.607c-1.667,0-3.034,1.367-3.034,3.034H7.196
			c-0.743,0-1.348-0.605-1.348-1.348V16.568z M12.251,14.209c0-0.186-0.151-0.337-0.336-0.337H9.893
			c-1.483,0-2.697,1.215-2.697,2.696c0,0.186,0.151,0.337,0.337,0.337h0.768c0.161,0,0.297-0.032,0.441-0.102
			c0.755-0.367,1.603-0.572,2.498-0.572h0.674c0.185,0,0.336-0.151,0.336-0.337V14.209z M17.308,21.962
			c0-1.675,1.358-3.034,3.033-3.034c1.675,0,3.034,1.359,3.034,3.034h2.023c0.371,0,0.674-0.303,0.674-0.674V11.175
			c0-0.372-0.305-0.674-0.674-0.674H15.286c-0.371,0-0.674,0.304-0.674,0.674v10.112c0,0.371,0.303,0.674,0.674,0.674H17.308z"/>
		<path fill-rule="evenodd" clip-rule="evenodd" fill="#FFFFFF" d="M13.263,20.927c0,1.117-0.906,2.022-2.022,2.022
			c-1.117,0-2.023-0.906-2.023-2.022s0.905-2.022,2.023-2.022C12.357,18.905,13.263,19.81,13.263,20.927z M11.241,20.253
			c-0.373,0-0.674,0.302-0.674,0.674c0,0.372,0.302,0.674,0.674,0.674c0.372,0,0.674-0.302,0.674-0.674
			C11.915,20.555,11.613,20.253,11.241,20.253z M22.364,20.927c0,1.117-0.906,2.022-2.023,2.022c-1.117,0-2.022-0.906-2.022-2.022
			s0.905-2.022,2.022-2.022C21.458,18.905,22.364,19.81,22.364,20.927z M20.342,20.253c-0.373,0-0.674,0.302-0.674,0.674
			c0,0.372,0.302,0.674,0.674,0.674c0.372,0,0.674-0.302,0.674-0.674C21.016,20.555,20.714,20.253,20.342,20.253z M5.848,15.534
			c0-2.226,1.818-4.045,4.045-4.045h3.033c0.368,0,0.674,0.303,0.674,0.674v6.067c0,0.131-0.07,0.243-0.187,0.301
			c-0.117,0.059-0.249,0.047-0.353-0.032c-0.507-0.381-1.137-0.607-1.82-0.607c-1.667,0-3.034,1.367-3.034,3.034H7.196
			c-0.743,0-1.348-0.605-1.348-1.348V15.534z M12.251,13.175c0-0.186-0.151-0.337-0.336-0.337H9.893
			c-1.483,0-2.697,1.215-2.697,2.696c0,0.186,0.151,0.337,0.337,0.337h0.768c0.161,0,0.297-0.032,0.441-0.102
			c0.755-0.367,1.603-0.572,2.498-0.572h0.674c0.185,0,0.336-0.151,0.336-0.337V13.175z M17.308,20.927
			c0-1.675,1.358-3.034,3.033-3.034c1.675,0,3.034,1.359,3.034,3.034h2.023c0.371,0,0.674-0.303,0.674-0.674V10.141
			c0-0.372-0.305-0.674-0.674-0.674H15.286c-0.371,0-0.674,0.304-0.674,0.674v10.112c0,0.371,0.303,0.674,0.674,0.674H17.308z"/>
	</g>
</g>
<g id="Layer_3">
</g>
<g id="Layer_4">
</g>
<g id="Layer_5">
</g>
<g id="Layer_7">
</g>
</svg>
