<?xml version="1.0" encoding="utf-8"?>
<!-- Generator: Adobe Illustrator 19.2.0, SVG Export Plug-In . SVG Version: 6.00 Build 0)  -->
<!DOCTYPE svg PUBLIC "-//W3C//DTD SVG 1.1//EN" "http://www.w3.org/Graphics/SVG/1.1/DTD/svg11.dtd">
<svg version="1.1" id="Layer_1" xmlns="http://www.w3.org/2000/svg" xmlns:xlink="http://www.w3.org/1999/xlink" x="0px" y="0px"
	 viewBox="0 0 32 32" enable-background="new 0 0 32 32" xml:space="preserve">
<g id="Ppt">
</g>
<g id="Small_Folder">
</g>
<g id="fave_icon_-_selected">
</g>
<g id="Shortcut_1_">
</g>
<g id="comment_icon_-_selected">
</g>
<g id="Comment_icon">
</g>
<g>
	<g>
		<g>
			<path fill="#3C5666" d="M7,31.5c-1.93,0-3.5-1.57-3.5-3.5V4c0-1.93,1.57-3.5,3.5-3.5h18c1.93,0,3.5,1.57,3.5,3.5v24
				c0,1.93-1.57,3.5-3.5,3.5H7z"/>
			<path fill="#FFFFFF" d="M25,1c1.657,0,3,1.343,3,3v24c0,1.657-1.343,3-3,3H7c-1.657,0-3-1.343-3-3V4c0-1.657,1.343-3,3-3H25
				 M25,0H7C4.794,0,3,1.794,3,4v24c0,2.206,1.794,4,4,4h18c2.206,0,4-1.794,4-4V4C29,1.794,27.206,0,25,0L25,0z"/>
		</g>
	</g>
</g>
<path fill="#FFFFFF" d="M24,27H8c-0.55,0-1-0.45-1-1V5c0-0.55,0.45-1,1-1h16c0.55,0,1,0.45,1,1v21C25,26.55,24.55,27,24,27z"/>
<path fill="#6F8084" d="M22.5,11h-13C9.225,11,9,10.775,9,10.5v0C9,10.225,9.225,10,9.5,10h13c0.275,0,0.5,0.225,0.5,0.5v0
	C23,10.775,22.775,11,22.5,11z"/>
<path fill="#B3B7B7" d="M13.5,7h-4C9.225,7,9,6.775,9,6.5v0C9,6.225,9.225,6,9.5,6h4C13.775,6,14,6.225,14,6.5v0
	C14,6.775,13.775,7,13.5,7z"/>
<path fill="#6F8084" d="M22.5,13h-13C9.225,13,9,12.775,9,12.5v0C9,12.225,9.225,12,9.5,12h13c0.275,0,0.5,0.225,0.5,0.5v0
	C23,12.775,22.775,13,22.5,13z"/>
<path fill="#6F8084" d="M22.5,15h-13C9.225,15,9,14.775,9,14.5v0C9,14.225,9.225,14,9.5,14h13c0.275,0,0.5,0.225,0.5,0.5v0
	C23,14.775,22.775,15,22.5,15z"/>
<path fill="#6F8084" d="M16.5,17h-7C9.225,17,9,16.775,9,16.5l0,0C9,16.225,9.225,16,9.5,16h7c0.275,0,0.5,0.225,0.5,0.5l0,0
	C17,16.775,16.775,17,16.5,17z"/>
<path fill="#6F8084" d="M22.5,21h-13C9.225,21,9,20.775,9,20.5l0,0C9,20.225,9.225,20,9.5,20h13c0.275,0,0.5,0.225,0.5,0.5l0,0
	C23,20.775,22.775,21,22.5,21z"/>
<path fill="#6F8084" d="M22.5,23h-13C9.225,23,9,22.775,9,22.5l0,0C9,22.225,9.225,22,9.5,22h13c0.275,0,0.5,0.225,0.5,0.5l0,0
	C23,22.775,22.775,23,22.5,23z"/>
<path fill="#6F8084" d="M22.5,25h-13C9.225,25,9,24.775,9,24.5l0,0C9,24.225,9.225,24,9.5,24h13c0.275,0,0.5,0.225,0.5,0.5l0,0
	C23,24.775,22.775,25,22.5,25z"/>
<polygon fill="#DF3324" points="19,4 19,8 21,7 23,8 23,4 "/>
<circle fill="#6F8084" cx="16" cy="29" r="1"/>
</svg>
