<?xml version="1.0" encoding="utf-8"?>
<!-- Generator: Adobe Illustrator 19.1.0, SVG Export Plug-In . SVG Version: 6.00 Build 0)  -->
<svg version="1.1" xmlns="http://www.w3.org/2000/svg" xmlns:xlink="http://www.w3.org/1999/xlink" x="0px" y="0px"
	 viewBox="0 0 32 32" enable-background="new 0 0 32 32" xml:space="preserve">
<g id="Layer_2">
</g>
<g id="Layer_1">
	<g>
		<g>
			<g>
				<path fill="#207245" d="M7,31.5c-1.93,0-3.5-1.57-3.5-3.5V4c0-1.93,1.57-3.5,3.5-3.5h15.207L28.5,6.793V28
					c0,1.93-1.57,3.5-3.5,3.5H7z"/>
				<path fill="#FFFFFF" d="M22,1l6,6v21c0,1.657-1.343,3-3,3H7c-1.657,0-3-1.343-3-3V4c0-1.657,1.343-3,3-3H22 M22.414,0H22H7
					C4.794,0,3,1.794,3,4v24c0,2.206,1.794,4,4,4h18c2.206,0,4-1.794,4-4V7V6.586l-0.293-0.293l-6-6L22.414,0L22.414,0z"/>
			</g>
		</g>
		<polygon fill="#145B31" points="22,1 22,7 28,7 		"/>
	</g>
	<text transform="matrix(1 0 0 1 10.4382 17.5854)" fill="#145B31" font-family="'ArialRoundedMTBold'" font-size="15.8839px">?</text>
	<text transform="matrix(1 0 0 1 10.4382 16.5411)" fill="#FFFFFF" font-family="'ArialRoundedMTBold'" font-size="15.8839px">?</text>
	<path fill="#145B31" d="M21.086,25.935H9.16c-0.553,0-1-0.447-1-1s0.447-1,1-1h10.248L21.8,10.421l2.949-0.01
		c0.001,0,0.002,0,0.003,0c0.551,0,0.998,0.445,1,0.997s-0.444,1.001-0.997,1.003l-1.277,0.004L21.086,25.935z"/>
	<path fill="#145B31" d="M20.838,22.326H7.723l-1.573-8.24c-0.104-0.542,0.252-1.066,0.795-1.17c0.54-0.102,1.066,0.252,1.17,0.795
		l1.263,6.615h11.461c0.553,0,1,0.447,1,1S21.391,22.326,20.838,22.326z"/>
	<g>
		<circle fill-rule="evenodd" clip-rule="evenodd" fill="#145B31" cx="11.561" cy="28.478" r="1.386"/>
	</g>
	<g>
		<circle fill-rule="evenodd" clip-rule="evenodd" fill="#145B31" cx="19.464" cy="28.478" r="1.386"/>
	</g>
	<path fill="#FFFFFF" d="M21.086,24.891H9.16c-0.553,0-1-0.447-1-1s0.447-1,1-1h10.248L21.8,9.377l2.948-0.011
		c0.001,0,0.003,0,0.004,0c0.551,0,0.998,0.445,1,0.996c0.002,0.553-0.444,1.002-0.996,1.004l-1.278,0.005L21.086,24.891z"/>
	<path fill="#FFFFFF" d="M20.838,21.282H7.723l-1.573-8.24c-0.104-0.542,0.252-1.066,0.795-1.17c0.54-0.1,1.066,0.252,1.17,0.795
		l1.263,6.615h11.461c0.553,0,1,0.447,1,1S21.391,21.282,20.838,21.282z"/>
	<g>
		<circle fill-rule="evenodd" clip-rule="evenodd" fill="#FFFFFF" cx="11.561" cy="27.433" r="1.386"/>
	</g>
	<g>
		<circle fill-rule="evenodd" clip-rule="evenodd" fill="#FFFFFF" cx="19.464" cy="27.433" r="1.386"/>
	</g>
</g>
<g id="Layer_3">
</g>
<g id="Layer_4">
</g>
<g id="Layer_5">
</g>
<g id="Layer_7">
</g>
</svg>
