<?xml version="1.0" encoding="utf-8"?>
<!-- Generator: Adobe Illustrator 19.1.0, SVG Export Plug-In . SVG Version: 6.00 Build 0)  -->
<svg version="1.1" xmlns="http://www.w3.org/2000/svg" xmlns:xlink="http://www.w3.org/1999/xlink" x="0px" y="0px"
	 viewBox="0 0 32 32" enable-background="new 0 0 32 32" xml:space="preserve">
<g id="Layer_2">
</g>
<g id="Layer_1">
</g>
<g id="Layer_3">
</g>
<g id="Layer_4">
</g>
<g id="Layer_5">
	<path fill="#FFFFFF" d="M28.767,12.328H17.944V3.661c0-1.103-0.897-2-2-2s-2,0.897-2,2v8.667H3.23
		c-1.595,0-2.911,1.247-2.996,2.839C0.23,15.242,0.23,15.325,0.27,15.591l0.007,0.047l0.012,0.047l2.695,10.894l0,0
		c0,0,0.309,1.371,0.336,1.481c0.333,1.342,1.53,2.279,2.912,2.279h19.532c1.357,0,2.549-0.916,2.899-2.227
		c0.013-0.049,0.442-1.892,0.442-1.892l2.602-10.406l0.015-0.059l0.008-0.06l0.03-0.243l0.008-0.062v-0.062
		C31.767,13.674,30.421,12.328,28.767,12.328z"/>
	<g>
		<path fill="none" d="M21.135,22.211h-4.192v5.127c1.272,0,2.516,0,3.647,0L21.135,22.211z"/>
		<path fill="none" d="M11.706,27.339c1.018,0,2.118,0,3.238,0v-5.127h-3.783L11.706,27.339z"/>
		<path fill="none" d="M21.348,20.211l0.518-4.883c-1.54,0-3.22,0-4.922,0v4.883H21.348z"/>
		<path fill="none" d="M8.938,20.211l-0.519-4.883c-2.71,0-4.617,0-4.723,0c-0.389,0-0.33,0.425-0.33,0.425l1.103,4.458H8.938z"/>
		<path fill="none" d="M10.949,20.211h3.995v-4.883c-1.566,0-3.101,0-4.514,0L10.949,20.211z"/>
		<path fill="none" d="M28.3,15.328c-0.737,0-2.355,0-4.423,0l-0.518,4.883h4.143c0.476-1.911,0.92-3.675,1.128-4.456
			C28.692,15.519,28.506,15.328,28.3,15.328z"/>
		<path fill="none" d="M23.146,22.211l-0.544,5.127c1.712,0,2.849,0,2.849,0s0.279,0.007,0.344-0.243
			c0.029-0.109,0.586-2.373,1.209-4.885H23.146z"/>
		<path fill="none" d="M9.151,22.211H4.964l1.203,4.865c0,0,0.055,0.262,0.333,0.262c0.071,0,1.344,0,3.195,0L9.151,22.211z"/>
		<path fill="#077467" d="M28.767,13.328H16.944V3.661c0-0.552-0.447-1-1-1s-1,0.448-1,1v9.667H3.23
			c-1.066,0-1.941,0.839-1.997,1.892c-0.002,0.036,0.026,0.224,0.026,0.224l2.695,10.894c0,0,0.309,1.371,0.336,1.481
			c0.216,0.871,1.004,1.519,1.942,1.519h19.532c0.925,0,1.705-0.631,1.933-1.485c0.013-0.048,0.435-1.861,0.435-1.861l2.605-10.422
			l0.03-0.243C30.767,14.225,29.87,13.328,28.767,13.328z M21.866,15.328l-0.518,4.883h-4.404v-4.883
			C18.646,15.328,20.326,15.328,21.866,15.328z M16.944,22.211h4.192l-0.544,5.127c-1.132,0-2.376,0-3.647,0V22.211z M14.944,27.339
			c-1.12,0-2.22,0-3.238,0l-0.545-5.127h3.783V27.339z M14.944,20.211h-3.995l-0.519-4.883c1.413,0,2.948,0,4.514,0V20.211z
			 M3.366,15.753c0,0-0.059-0.425,0.33-0.425c0.106,0,2.012,0,4.723,0l0.519,4.883H4.469L3.366,15.753z M6.167,27.077l-1.203-4.865
			h4.187l0.545,5.127c-1.851,0-3.124,0-3.195,0C6.222,27.339,6.167,27.077,6.167,27.077z M25.451,27.339c0,0-1.136,0-2.849,0
			l0.544-5.127h3.858c-0.623,2.512-1.181,4.776-1.209,4.885C25.729,27.346,25.451,27.339,25.451,27.339z M28.629,15.755
			c-0.208,0.781-0.652,2.546-1.128,4.456h-4.143l0.518-4.883c2.069,0,3.687,0,4.423,0C28.506,15.328,28.692,15.519,28.629,15.755z"
			/>
	</g>
</g>
<g id="Layer_7">
</g>
</svg>
