<?xml version="1.0" encoding="utf-8"?>
<!-- Generator: Adobe Illustrator 18.1.0, SVG Export Plug-In . SVG Version: 6.00 Build 0)  -->
<!DOCTYPE svg PUBLIC "-//W3C//DTD SVG 1.1//EN" "http://www.w3.org/Graphics/SVG/1.1/DTD/svg11.dtd">
<svg version="1.1" id="Layer_1" xmlns="http://www.w3.org/2000/svg" xmlns:xlink="http://www.w3.org/1999/xlink" x="0px" y="0px"
	 viewBox="0 0 32 32" enable-background="new 0 0 32 32" xml:space="preserve">
<g id="Ppt">
</g>
<g id="Small_Folder">
</g>
<g>
	<g>
		<g>
			<path fill="#733781" d="M7,31.5c-1.93,0-3.5-1.57-3.5-3.5V4c0-1.93,1.57-3.5,3.5-3.5h15.207L28.5,6.793V28
				c0,1.93-1.57,3.5-3.5,3.5H7z"/>
			<path fill="#FFFFFF" d="M22,1l6,6v21c0,1.657-1.343,3-3,3H7c-1.657,0-3-1.343-3-3V4c0-1.657,1.343-3,3-3H22 M22.414,0H22H7
				C4.794,0,3,1.794,3,4v24c0,2.206,1.794,4,4,4h18c2.206,0,4-1.794,4-4V7V6.586l-0.293-0.293l-6-6L22.414,0L22.414,0z"/>
		</g>
	</g>
	<polygon fill-rule="evenodd" clip-rule="evenodd" fill="#4B1B56" points="22,1 22,7 28,7 	"/>
	<path fill-rule="evenodd" clip-rule="evenodd" fill="#4B1B56" d="M20,11c-0.55,0-1,0.45-1,1v7.323l-6.31-8.04
		C12.51,11.11,12.268,11,12,11c-0.55,0-1,0.45-1,1v10c0,0.55,0.45,1,1,1s1-0.45,1-1v-7.34l6.278,8.023
		C19.461,22.876,19.715,23,20,23c0.55,0,1-0.45,1-1V12C21,11.45,20.55,11,20,11z"/>
	<path fill-rule="evenodd" clip-rule="evenodd" fill="#FFFFFF" d="M20,10c-0.55,0-1,0.45-1,1v7.323l-6.31-8.04
		C12.51,10.11,12.268,10,12,10c-0.55,0-1,0.45-1,1v10c0,0.55,0.45,1,1,1s1-0.45,1-1v-7.34l6.278,8.023
		C19.461,21.876,19.715,22,20,22c0.55,0,1-0.45,1-1V11C21,10.45,20.55,10,20,10z"/>
</g>
<g id="fave_icon_-_selected">
</g>
</svg>
