<?xml version="1.0" encoding="utf-8"?>
<!-- Generator: Adobe Illustrator 19.1.0, SVG Export Plug-In . SVG Version: 6.00 Build 0)  -->
<svg version="1.1" xmlns="http://www.w3.org/2000/svg" xmlns:xlink="http://www.w3.org/1999/xlink" x="0px" y="0px"
	 viewBox="0 0 32 32" enable-background="new 0 0 32 32" xml:space="preserve">
<g id="Layer_2">
</g>
<g id="Layer_1">
	<g>
		<path fill="#D24625" d="M27.696,27.797H4.263c-1.753,0-3.187-1.434-3.187-3.187v-7.781c0-1.753,1.434-3.187,3.187-3.187h23.433
			c1.753,0,3.187,1.434,3.187,3.187v7.781C30.884,26.363,29.45,27.797,27.696,27.797z"/>
		<path fill="#FFFFFF" d="M27.696,28.797H4.264c-2.309,0-4.188-1.879-4.188-4.188v-7.78c0-2.309,1.879-4.188,4.188-4.188h23.433
			c2.309,0,4.188,1.879,4.188,4.188v7.78C31.884,26.918,30.005,28.797,27.696,28.797z M4.264,14.642
			c-1.206,0-2.188,0.981-2.188,2.188v7.78c0,1.206,0.981,2.188,2.188,2.188h23.433c1.206,0,2.188-0.981,2.188-2.188v-7.78
			c0-1.206-0.981-2.188-2.188-2.188H4.264z"/>
	</g>
	<g>
		<path fill="#FFFFFF" d="M11.66,24.379h-2V10.522c0-3.484,2.835-6.319,6.32-6.319c3.484,0,6.319,2.835,6.319,6.319v13.837h-2
			V10.522c0-2.382-1.938-4.319-4.319-4.319s-4.32,1.938-4.32,4.319V24.379z"/>
		<path fill="#FFFFFF" d="M13.16,25.879h-5V10.522c0-4.312,3.508-7.819,7.82-7.819c4.312,0,7.819,3.508,7.819,7.819v15.337h-5
			V10.522c0-1.555-1.265-2.819-2.819-2.819s-2.82,1.265-2.82,2.819V25.879z"/>
	</g>
	<path fill="#9E230B" d="M11.66,24.407h-2V10.522c0-3.485,2.835-6.32,6.319-6.32c3.485,0,6.32,2.835,6.32,6.32v13.864h-2V10.522
		c0-2.382-1.938-4.32-4.32-4.32s-4.319,1.938-4.319,4.32V24.407z"/>
	<path fill="#FFFFFF" d="M17.877,8.552c-0.355,0-0.718-0.064-1.07-0.199c-0.519-0.197-1.117-0.201-1.635-0.007
		c-1.553,0.576-3.281-0.212-3.858-1.765c-0.578-1.553,0.212-3.28,1.765-3.858c1.879-0.7,3.998-0.691,5.871,0.026
		c1.548,0.592,2.322,2.326,1.73,3.873C20.223,7.817,19.085,8.552,17.877,8.552z"/>
	<path fill="#D24625" d="M17.878,7.552c-0.238,0-0.479-0.043-0.715-0.133c-0.743-0.284-1.595-0.289-2.341-0.011
		c-1.032,0.384-2.186-0.141-2.571-1.177c-0.386-1.035,0.142-2.187,1.177-2.571c1.651-0.615,3.518-0.606,5.165,0.022
		c1.031,0.395,1.548,1.551,1.153,2.583C19.441,7.062,18.683,7.552,17.878,7.552z"/>
	<path fill="#D24625" d="M27.696,27.797H4.263c-1.753,0-3.187-1.434-3.187-3.187v-7.781c0-1.753,1.434-3.187,3.187-3.187h23.433
		c1.753,0,3.187,1.434,3.187,3.187v7.781C30.884,26.363,29.45,27.797,27.696,27.797z"/>
	<path fill="#9E230B" d="M4.263,27.797h23.433c1.753,0,3.187-1.434,3.187-3.187v-2.579H1.076v2.579
		C1.076,26.363,2.51,27.797,4.263,27.797z"/>
</g>
<g id="Layer_3">
</g>
<g id="Layer_4">
</g>
<g id="Layer_5">
</g>
<g id="Layer_7">
</g>
</svg>
