<?xml version="1.0" encoding="utf-8"?>
<!-- Generator: Adobe Illustrator 19.1.0, SVG Export Plug-In . SVG Version: 6.00 Build 0)  -->
<svg version="1.1" xmlns="http://www.w3.org/2000/svg" xmlns:xlink="http://www.w3.org/1999/xlink" x="0px" y="0px"
	 viewBox="0 0 32 32" enable-background="new 0 0 32 32" xml:space="preserve">
<g id="Layer_2">
</g>
<g id="Layer_1">
</g>
<g id="Layer_3">
</g>
<g id="Layer_4">
</g>
<g id="Layer_5">
	<g>
		<g>
			<circle fill="none" cx="24.94" cy="6.345" r="1.953"/>
			<circle fill="none" cx="15.285" cy="16" r="2.364"/>
			<path fill="#FFFFFF" d="M25.684,20.575c0.024-0.051,0.052-0.109,0.074-0.156c0.027-0.06,0.052-0.119,0.078-0.179l0.09,0.022
				l0.276-0.946c0.124-0.426,0.217-0.847,0.283-1.201c0.207-1.035,0.263-2.095,0.17-3.139l-0.011-0.106
				c-0.023-0.244-0.056-0.488-0.096-0.73l-0.117-0.697l-0.042-0.008c-0.118-0.495-0.272-0.985-0.464-1.476
				c-0.032-0.082-0.071-0.161-0.106-0.242c2.55-0.441,4.5-2.655,4.5-5.329c0-2.99-2.433-5.422-5.422-5.422
				c-2.725,0-4.965,2.028-5.344,4.65c-2.612-1.038-5.562-1.096-8.209-0.136C10.53,3.93,8.923,2.86,7.055,2.86
				c-2.684,0-4.867,2.184-4.867,4.868c0,1.808,1.002,3.371,2.47,4.211C4.143,13.237,3.879,14.603,3.879,16
				c0,1.87,0.473,3.683,1.364,5.309c-0.042-0.001-0.084-0.011-0.126-0.011c-2.684,0-4.867,2.184-4.867,4.868
				s2.183,4.867,4.867,4.867s4.868-2.183,4.868-4.867c0-0.536-0.09-1.069-0.262-1.575l1.581-1.581v8.023h10.039L31.75,20.575H25.684
				z"/>
		</g>
		<g>
			<path fill="#FF9F00" d="M15.278,9.476c1.071,0,2.08,0.259,2.972,0.716l0.824-0.824c-1.119-0.641-2.414-1.009-3.796-1.009
				c-1.377,0-2.669,0.366-3.785,1.003c-0.011,0.029-0.018,0.059-0.029,0.087l0.777,0.777C13.148,9.748,14.181,9.476,15.278,9.476z"
				/>
			<path fill="#FF9F00" d="M24.485,18.527c-0.235,0.811-0.567,1.568-0.977,2.261h0.923c0.157-0.297,0.287-0.567,0.382-0.776
				c0.14-0.317,0.264-0.644,0.372-0.98c0.009,0.002,0.017,0.003,0.026,0.005c0.114-0.392,0.199-0.779,0.262-1.114
				c0.191-0.959,0.238-1.919,0.153-2.857c-0.001-0.01-0.001-0.019-0.002-0.029h-0.001c-0.023-0.241-0.054-0.481-0.093-0.719
				c-0.005-0.002-0.01-0.004-0.015-0.005c-0.115-0.673-0.298-1.324-0.54-1.945c-0.003-0.009-0.006-0.018-0.01-0.027c0,0,0,0-0.001,0
				c-0.089-0.226-0.185-0.447-0.29-0.665c-0.322-0.013-0.641-0.055-0.954-0.127c0.276,0.502,0.506,1.031,0.687,1.582
				c0.281,0.908,0.434,1.875,0.434,2.878c0,0.438-0.029,0.869-0.085,1.291C24.693,17.709,24.603,18.119,24.485,18.527z"/>
			<path fill="#FF9F00" d="M15.278,6.598c1.624,0,3.153,0.398,4.493,1.097c-0.079-0.309-0.131-0.625-0.153-0.944
				c-1.321-0.598-2.79-0.934-4.34-0.934c-1.292,0-2.528,0.234-3.669,0.657c0.07,0.253,0.124,0.512,0.151,0.78
				C12.85,6.833,14.035,6.598,15.278,6.598z"/>
			<path fill="#FF9F00" d="M21.515,17.955c-0.004,0.012-0.008,0.023-0.011,0.035c-0.128,0.389-0.29,0.758-0.48,1.106l0.818,0.818
				c0.133-0.22,0.257-0.449,0.369-0.685c0.003-0.001,0.006-0.002,0.01-0.003c0.138-0.296,0.257-0.603,0.356-0.918
				c0.001-0.004,0.002-0.007,0.004-0.011c0.005-0.017,0.01-0.034,0.016-0.05c0.016-0.05,0.031-0.1,0.046-0.151
				c0.078-0.268,0.141-0.537,0.189-0.806c-0.003-0.001-0.005-0.002-0.008-0.003c0.07-0.415,0.107-0.841,0.107-1.276
				c0-1.377-0.366-2.669-1.003-3.785c-0.029-0.011-0.059-0.018-0.087-0.029l-0.777,0.777c0.478,0.908,0.749,1.941,0.749,3.038
				c0,0.661-0.099,1.298-0.282,1.899C21.524,17.924,21.519,17.939,21.515,17.955z"/>
			<polygon fill="#0B5D9A" points="12.322,30.019 20.91,30.019 29.277,21.609 12.322,21.609 			"/>
			<path fill="#FF9F00" d="M8.6,12.276c-0.619,1.104-0.973,2.377-0.973,3.733c0,1.382,0.368,2.677,1.009,3.796l0.824-0.824
				c-0.457-0.892-0.716-1.901-0.716-2.972c0-1.044,0.246-2.031,0.682-2.906L8.6,12.276z"/>
			<path fill="#FF9F00" d="M5.627,12.256c-0.469,1.162-0.73,2.427-0.73,3.753c0,2.11,0.653,4.071,1.772,5.697
				c0.017,0.006,0.034,0.01,0.05,0.016l0.547-0.547c-0.994-1.483-1.575-3.258-1.575-5.166c0-1.269,0.257-2.478,0.721-3.583
				C6.143,12.39,5.88,12.336,5.627,12.256z"/>
			<circle fill="none" cx="24.933" cy="6.354" r="2.979"/>
			<path fill="#333333" d="M24.891,1.999c-2.428,0-4.397,1.969-4.397,4.397c0,0.808,0.222,1.563,0.602,2.214L17.6,12.106
				c-0.68-0.406-1.473-0.643-2.322-0.643c-0.875,0-1.69,0.252-2.384,0.681l-2.508-2.508c0.32-0.56,0.505-1.207,0.505-1.899
				c0-2.122-1.72-3.843-3.843-3.843s-3.843,1.72-3.843,3.843s1.72,3.843,3.843,3.843c0.617,0,1.197-0.149,1.714-0.407l2.576,2.576
				c-0.383,0.666-0.605,1.437-0.605,2.26c0,0.85,0.237,1.642,0.643,2.322l-4.456,4.456c-0.539-0.288-1.155-0.453-1.809-0.453
				c-2.122,0-3.843,1.72-3.843,3.843s1.72,3.843,3.843,3.843s3.843-1.72,3.843-3.843c0-0.654-0.164-1.27-0.453-1.809l4.456-4.456
				c0.68,0.406,1.473,0.643,2.322,0.643c0.824,0,1.594-0.222,2.26-0.605l0.366,0.366c0.003-0.003,0.006-0.006,0.009-0.008
				l0.481,0.481h3.162l-2.213-2.213c-0.004,0.002-0.007,0.004-0.011,0.006l-0.189-0.189c0.429-0.694,0.681-1.508,0.681-2.384
				c0-0.85-0.237-1.642-0.643-2.322l3.497-3.497c0.651,0.38,1.405,0.602,2.214,0.602c2.428,0,4.397-1.969,4.397-4.397
				C29.288,3.967,27.319,1.999,24.891,1.999z M15.278,19.398c-1.872,0-3.389-1.517-3.389-3.389c0-1.872,1.517-3.389,3.389-3.389
				s3.389,1.517,3.389,3.389C18.667,17.881,17.149,19.398,15.278,19.398z M24.933,9.332c-1.645,0-2.979-1.334-2.979-2.979
				s1.334-2.979,2.979-2.979c1.645,0,2.979,1.334,2.979,2.979S26.578,9.332,24.933,9.332z"/>
		</g>
	</g>
</g>
</svg>
