<?xml version="1.0" encoding="utf-8"?>
<!-- Generator: Adobe Illustrator 19.2.0, SVG Export Plug-In . SVG Version: 6.00 Build 0)  -->
<!DOCTYPE svg PUBLIC "-//W3C//DTD SVG 1.1//EN" "http://www.w3.org/Graphics/SVG/1.1/DTD/svg11.dtd">
<svg version="1.1" id="Layer_1" xmlns="http://www.w3.org/2000/svg" xmlns:xlink="http://www.w3.org/1999/xlink" x="0px" y="0px"
	 viewBox="0 0 32 32" enable-background="new 0 0 32 32" xml:space="preserve">
<g id="Ppt">
</g>
<g id="Small_Folder">
</g>
<g id="fave_icon_-_selected">
</g>
<g id="Shortcut_1_">
</g>
<g id="comment_icon_-_selected">
</g>
<g id="Comment_icon">
</g>
<g>
	<g>
		<path fill="#9370B1" d="M7,31.5c-1.93,0-3.5-1.57-3.5-3.5V4c0-1.93,1.57-3.5,3.5-3.5h15.207L28.5,6.793V28
			c0,1.93-1.57,3.5-3.5,3.5H7z"/>
		<path fill="#FFFFFF" d="M22,1l6,6v21c0,1.657-1.343,3-3,3H7c-1.657,0-3-1.343-3-3V4c0-1.657,1.343-3,3-3H22 M22.414,0H22H7
			C4.794,0,3,1.794,3,4v24c0,2.206,1.794,4,4,4h18c2.206,0,4-1.794,4-4V7V6.586l-0.293-0.293l-6-6L22.414,0L22.414,0z"/>
	</g>
</g>
<path fill="#735796" d="M16,10c3.86,0,7,3.14,7,7s-3.14,7-7,7s-7-3.14-7-7S12.14,10,16,10 M16,9c-4.418,0-8,3.582-8,8s3.582,8,8,8
	s8-3.582,8-8S20.418,9,16,9L16,9z"/>
<path fill="#735796" d="M18,15c0-1.105-0.895-2-2-2s-2,0.895-2,2c0,0.837,0.515,1.552,1.245,1.85L14,21h4l-1.245-4.15
	C17.485,16.552,18,15.837,18,15z"/>
<polygon fill-rule="evenodd" clip-rule="evenodd" fill="#735796" points="22,1 22,7 28,7 "/>
<path fill="#FFFFFF" d="M16,9c3.86,0,7,3.14,7,7s-3.14,7-7,7s-7-3.14-7-7S12.14,9,16,9 M16,8c-4.418,0-8,3.582-8,8s3.582,8,8,8
	s8-3.582,8-8S20.418,8,16,8L16,8z"/>
<path fill="#FFFFFF" d="M18,14c0-1.105-0.895-2-2-2s-2,0.895-2,2c0,0.837,0.515,1.552,1.245,1.85L14,20h4l-1.245-4.15
	C17.485,15.552,18,14.837,18,14z"/>
</svg>
