<?xml version="1.0" encoding="utf-8"?>
<!-- Generator: Adobe Illustrator 19.1.0, SVG Export Plug-In . SVG Version: 6.00 Build 0)  -->
<svg version="1.1" xmlns="http://www.w3.org/2000/svg" xmlns:xlink="http://www.w3.org/1999/xlink" x="0px" y="0px"
	 viewBox="0 0 32 32" enable-background="new 0 0 32 32" xml:space="preserve">
<g id="Layer_2">
</g>
<g id="Layer_1">
</g>
<g id="Layer_3">
	<g>
		<g>
			<path fill="#0071C5" d="M25.967,20.599c-0.069-0.993-0.116-1.506-0.457-2.662c-0.245-0.828-0.816-1.439-1.746-1.866
				c-0.794-0.364-1.745-0.546-2.584-0.707c-0.694-0.133-1.35-0.258-1.809-0.464c-0.251-0.113-0.469-0.279-0.649-0.494
				c-0.099-0.119-0.189-0.255-0.268-0.407c0.401-0.329,0.747-0.725,1.039-1.189c0.401-0.638,0.696-1.401,0.883-2.279
				c0.191-0.055,0.378-0.202,0.536-0.425c0.175-0.248,0.307-0.579,0.37-0.933c0.093-0.515,0.035-1.007-0.154-1.333
				c0.017-0.067,0.033-0.136,0.047-0.207c0.088-0.442,0.117-0.953,0.087-1.521c-0.051-0.961-0.251-1.74-0.26-1.772
				c-0.207-0.822-0.823-1.648-1.692-2.264C18.618,1.585,17.448,1,15.799,1s-2.819,0.585-3.51,1.077
				c-0.868,0.617-1.485,1.441-1.692,2.264c-0.011,0.042-0.211,0.819-0.264,1.773c-0.031,0.568-0.003,1.08,0.085,1.522
				c0.014,0.069,0.029,0.136,0.045,0.201c-0.191,0.326-0.25,0.82-0.157,1.337c0.064,0.355,0.196,0.688,0.373,0.936
				c0.158,0.223,0.346,0.37,0.538,0.423c0.187,0.878,0.482,1.641,0.883,2.278c0.292,0.465,0.641,0.863,1.043,1.192
				c-0.078,0.15-0.167,0.286-0.266,0.403c-0.18,0.215-0.398,0.382-0.649,0.494c-0.458,0.206-1.114,0.331-1.809,0.464
				c-0.839,0.161-1.791,0.342-2.584,0.707c-0.93,0.427-1.501,1.037-1.746,1.866c-0.337,1.141-0.387,1.656-0.455,2.625
				c-0.036,0.156-0.059,0.316-0.059,0.482v1.029c0,0.015,0.004,0.029,0.005,0.044c0.024,1.164,0.98,2.11,2.15,2.11h16.13
				c1.185,0,2.154-0.969,2.154-2.154v-0.796v-0.233C26.014,20.891,25.997,20.743,25.967,20.599z"/>
			<path fill="#FFFFFF" d="M23.86,24.727H7.73c-1.432,0-2.62-1.166-2.65-2.599l-0.004-1.084c0-0.187,0.023-0.381,0.07-0.592
				c0.059-0.897,0.11-1.46,0.464-2.656c0.289-0.977,0.948-1.689,2.018-2.179c0.844-0.389,1.823-0.576,2.688-0.742
				c0.681-0.13,1.306-0.25,1.708-0.431c0.181-0.081,0.338-0.2,0.467-0.354c-0.303-0.297-0.575-0.636-0.812-1.012
				c-0.392-0.623-0.691-1.359-0.893-2.191c-0.189-0.112-0.364-0.277-0.514-0.488c-0.217-0.305-0.379-0.708-0.457-1.136
				C9.716,8.715,9.761,8.185,9.936,7.773C9.933,7.76,9.931,7.746,9.928,7.731C9.833,7.251,9.8,6.697,9.835,6.086
				c0.05-0.91,0.225-1.657,0.277-1.864c0.236-0.938,0.924-1.868,1.887-2.553C12.753,1.135,14.022,0.5,15.799,0.5
				s3.047,0.635,3.8,1.168c0.964,0.686,1.651,1.615,1.888,2.551c0.037,0.148,0.224,0.926,0.273,1.868
				c0.032,0.61-0.001,1.164-0.097,1.645c-0.003,0.017-0.007,0.033-0.01,0.05c0.173,0.41,0.217,0.938,0.119,1.481
				c-0.076,0.425-0.237,0.827-0.454,1.133c-0.148,0.21-0.322,0.375-0.511,0.487c-0.201,0.834-0.501,1.57-0.892,2.193
				c-0.236,0.375-0.508,0.713-0.812,1.01c0.132,0.157,0.289,0.277,0.47,0.358c0.403,0.181,1.028,0.301,1.689,0.427
				c0.887,0.171,1.864,0.358,2.708,0.746c1.068,0.489,1.728,1.202,2.017,2.179c0.353,1.196,0.405,1.74,0.474,2.735
				c0.034,0.173,0.052,0.345,0.052,0.513v1.028C26.514,23.536,25.324,24.727,23.86,24.727z M15.799,1.5
				c-1.514,0-2.588,0.535-3.222,0.984c-0.772,0.549-1.317,1.27-1.495,1.978c-0.035,0.136-0.203,0.837-0.25,1.679
				c-0.028,0.527-0.003,0.997,0.076,1.396l0.09,0.375l-0.104,0.177c-0.13,0.222-0.167,0.604-0.097,0.997
				c0.051,0.28,0.156,0.548,0.288,0.733c0.129,0.183,0.236,0.225,0.266,0.232l0.291,0.082l0.063,0.295
				c0.175,0.82,0.45,1.532,0.817,2.117c0.264,0.418,0.578,0.778,0.936,1.071l0.315,0.258l-0.188,0.36
				c-0.097,0.185-0.206,0.351-0.326,0.493c-0.227,0.272-0.506,0.484-0.828,0.628c-0.509,0.229-1.189,0.359-1.909,0.497
				c-0.828,0.159-1.744,0.335-2.479,0.672c-0.802,0.368-1.271,0.861-1.476,1.554c-0.325,1.102-0.369,1.568-0.436,2.518
				c-0.042,0.213-0.058,0.335-0.058,0.447v1.028C6.098,23,6.839,23.727,7.73,23.727h16.13c0.912,0,1.654-0.742,1.654-1.654v-1.028
				c0-0.11-0.013-0.226-0.037-0.342l-0.01-0.069c-0.066-0.968-0.109-1.442-0.438-2.554c-0.205-0.692-0.674-1.186-1.475-1.554
				c-0.734-0.337-1.648-0.513-2.456-0.667c-0.743-0.143-1.424-0.272-1.934-0.502c-0.321-0.144-0.601-0.355-0.828-0.63
				c-0.118-0.141-0.229-0.308-0.327-0.495l-0.188-0.359l0.313-0.259c0.357-0.294,0.672-0.653,0.934-1.069
				c0.366-0.584,0.642-1.296,0.816-2.117l0.062-0.293l0.289-0.083c0.029-0.009,0.136-0.051,0.265-0.232
				c0.132-0.187,0.236-0.453,0.286-0.732c0.07-0.392,0.034-0.772-0.095-0.994L20.59,7.914l0.053-0.199
				c0.015-0.058,0.027-0.116,0.039-0.177c0.08-0.401,0.107-0.872,0.08-1.399c-0.046-0.866-0.225-1.593-0.245-1.673
				c-0.179-0.712-0.725-1.433-1.497-1.982C18.387,2.035,17.313,1.5,15.799,1.5z"/>
		</g>
		<g>
			<path fill="#0071C5" d="M25.967,23.985c-0.069-0.993-0.116-1.506-0.457-2.662c-0.245-0.828-0.816-1.439-1.746-1.866
				c-0.794-0.364-1.745-0.546-2.584-0.707c-0.694-0.133-1.35-0.258-1.809-0.464c-0.251-0.113-0.469-0.279-0.649-0.494
				c-0.099-0.119-0.189-0.255-0.268-0.407c0.401-0.329,0.747-0.725,1.039-1.189c0.401-0.638,0.696-1.401,0.883-2.279
				c0.191-0.055,0.378-0.202,0.536-0.425c0.175-0.248,0.307-0.579,0.37-0.933c0.093-0.515,0.035-1.007-0.154-1.333
				c0.017-0.067,0.033-0.136,0.047-0.207c0.088-0.442,0.117-0.953,0.087-1.521c-0.051-0.961-0.251-1.74-0.26-1.772
				c-0.207-0.822-0.823-1.648-1.692-2.264c-0.692-0.491-1.862-1.077-3.51-1.077s-2.819,0.585-3.51,1.077
				c-0.868,0.617-1.485,1.441-1.692,2.264c-0.011,0.042-0.211,0.819-0.264,1.773c-0.031,0.568-0.003,1.08,0.085,1.522
				c0.014,0.069,0.029,0.136,0.045,0.201c-0.191,0.326-0.25,0.82-0.157,1.337c0.064,0.355,0.196,0.688,0.373,0.936
				c0.158,0.223,0.346,0.37,0.538,0.423c0.187,0.878,0.482,1.641,0.883,2.278c0.292,0.465,0.641,0.863,1.043,1.192
				c-0.078,0.15-0.167,0.286-0.266,0.403c-0.18,0.215-0.398,0.382-0.649,0.494c-0.458,0.206-1.114,0.331-1.809,0.464
				c-0.839,0.16-1.791,0.342-2.584,0.707c-0.93,0.427-1.501,1.037-1.746,1.866c-0.337,1.141-0.387,1.656-0.455,2.625
				c-0.036,0.156-0.059,0.316-0.059,0.482v1.029c0,0.015,0.004,0.029,0.005,0.044c0.024,1.164,0.98,2.11,2.15,2.11h16.13
				c1.185,0,2.154-0.969,2.154-2.154v-0.796V24.43C26.014,24.278,25.997,24.129,25.967,23.985z"/>
			<path fill="#FFFFFF" d="M23.86,28.113H7.73c-1.432,0-2.62-1.166-2.65-2.599l-0.004-1.084c0-0.187,0.023-0.381,0.07-0.592
				c0.059-0.897,0.11-1.46,0.464-2.657c0.289-0.976,0.948-1.688,2.018-2.178c0.844-0.389,1.823-0.576,2.688-0.742
				c0.681-0.13,1.306-0.25,1.708-0.431c0.181-0.081,0.338-0.2,0.468-0.354c-0.305-0.297-0.577-0.636-0.813-1.012
				c-0.392-0.623-0.691-1.359-0.893-2.191c-0.189-0.112-0.364-0.277-0.514-0.488c-0.217-0.304-0.379-0.708-0.457-1.135
				c-0.098-0.549-0.053-1.079,0.122-1.49c-0.003-0.014-0.005-0.027-0.008-0.042c-0.096-0.48-0.128-1.034-0.094-1.646
				c0.05-0.91,0.225-1.657,0.277-1.864c0.236-0.938,0.924-1.868,1.887-2.553c0.752-0.533,2.021-1.169,3.801-1.169
				s3.049,0.636,3.8,1.168c0.964,0.686,1.651,1.615,1.888,2.551c0.037,0.148,0.224,0.926,0.273,1.867
				c0.032,0.611-0.001,1.165-0.097,1.646c-0.003,0.017-0.006,0.032-0.01,0.049c0.173,0.41,0.217,0.938,0.119,1.482
				c-0.076,0.425-0.237,0.827-0.454,1.133c-0.148,0.21-0.322,0.375-0.511,0.487c-0.201,0.834-0.501,1.57-0.892,2.193
				c-0.236,0.375-0.508,0.713-0.812,1.01c0.132,0.157,0.289,0.277,0.47,0.358c0.403,0.181,1.028,0.301,1.689,0.427
				c0.887,0.171,1.864,0.358,2.708,0.746c1.068,0.489,1.728,1.202,2.017,2.178c0.353,1.196,0.405,1.74,0.474,2.736
				c0.034,0.173,0.052,0.345,0.052,0.513v1.028C26.514,26.923,25.324,28.113,23.86,28.113z M15.799,4.887
				c-1.517,0-2.589,0.535-3.222,0.984c-0.772,0.549-1.317,1.27-1.495,1.978c-0.035,0.136-0.203,0.837-0.25,1.679
				c-0.028,0.527-0.003,0.997,0.076,1.396l0.09,0.375l-0.104,0.177c-0.13,0.222-0.167,0.604-0.097,0.997
				c0.051,0.28,0.156,0.548,0.288,0.733c0.129,0.183,0.236,0.225,0.266,0.232l0.291,0.082l0.063,0.295
				c0.175,0.82,0.45,1.532,0.817,2.117c0.263,0.417,0.577,0.777,0.936,1.07l0.314,0.257l-0.188,0.36
				c-0.096,0.185-0.205,0.352-0.326,0.495c-0.227,0.272-0.506,0.484-0.828,0.628c-0.509,0.229-1.189,0.359-1.909,0.497
				c-0.828,0.159-1.744,0.335-2.479,0.672c-0.802,0.368-1.271,0.861-1.476,1.553c-0.325,1.103-0.369,1.569-0.436,2.519
				c-0.042,0.213-0.058,0.335-0.058,0.447v1.028c0.022,0.928,0.763,1.654,1.654,1.654h16.13c0.912,0,1.654-0.742,1.654-1.654v-1.028
				c0-0.112-0.012-0.224-0.037-0.342l-0.01-0.069c-0.066-0.969-0.109-1.443-0.438-2.555c-0.205-0.691-0.674-1.185-1.475-1.553
				c-0.734-0.337-1.648-0.513-2.456-0.667c-0.743-0.143-1.424-0.272-1.934-0.502c-0.321-0.144-0.601-0.355-0.828-0.63
				c-0.119-0.142-0.229-0.31-0.327-0.497l-0.188-0.36l0.313-0.257c0.357-0.293,0.671-0.652,0.934-1.068
				c0.366-0.584,0.642-1.296,0.816-2.117l0.062-0.293l0.289-0.083c0.029-0.009,0.136-0.051,0.265-0.232
				c0.132-0.187,0.236-0.453,0.286-0.732c0.07-0.393,0.034-0.773-0.095-0.995l-0.104-0.179l0.053-0.2
				c0.015-0.056,0.028-0.114,0.039-0.174c0.08-0.401,0.107-0.872,0.08-1.4c-0.046-0.865-0.225-1.592-0.245-1.672
				C20.339,7.141,19.793,6.42,19.02,5.87C18.388,5.422,17.316,4.887,15.799,4.887z"/>
		</g>
		<g>
			<path fill="#0071C5" d="M25.967,27.372c-0.069-0.993-0.116-1.506-0.457-2.662c-0.245-0.828-0.816-1.439-1.746-1.866
				c-0.794-0.364-1.745-0.546-2.584-0.707c-0.694-0.133-1.35-0.258-1.809-0.464c-0.251-0.113-0.469-0.279-0.649-0.494
				c-0.099-0.119-0.189-0.255-0.268-0.407c0.401-0.329,0.747-0.725,1.039-1.189c0.401-0.638,0.696-1.401,0.883-2.279
				c0.191-0.055,0.378-0.202,0.536-0.425c0.175-0.248,0.307-0.579,0.37-0.933c0.093-0.515,0.035-1.007-0.154-1.333
				c0.017-0.067,0.033-0.136,0.047-0.207c0.088-0.442,0.117-0.953,0.087-1.521c-0.051-0.961-0.251-1.74-0.26-1.772
				c-0.207-0.822-0.823-1.648-1.692-2.264c-0.692-0.491-1.862-1.077-3.51-1.077s-2.819,0.585-3.51,1.077
				c-0.868,0.617-1.485,1.441-1.692,2.264c-0.011,0.042-0.211,0.819-0.264,1.773c-0.031,0.568-0.003,1.08,0.085,1.522
				c0.014,0.069,0.029,0.136,0.045,0.201c-0.191,0.326-0.25,0.82-0.157,1.337c0.064,0.355,0.196,0.688,0.373,0.936
				c0.158,0.223,0.346,0.37,0.538,0.423c0.187,0.878,0.482,1.641,0.883,2.278c0.292,0.465,0.641,0.863,1.043,1.192
				c-0.078,0.15-0.167,0.286-0.266,0.403c-0.18,0.215-0.398,0.382-0.649,0.494c-0.458,0.206-1.114,0.331-1.809,0.464
				c-0.839,0.161-1.791,0.342-2.584,0.707c-0.93,0.427-1.501,1.037-1.746,1.866c-0.337,1.141-0.387,1.656-0.455,2.625
				c-0.036,0.156-0.059,0.316-0.059,0.482v1.029c0,0.015,0.004,0.029,0.005,0.044C5.605,30.054,6.56,31,7.73,31h16.13
				c1.185,0,2.154-0.969,2.154-2.154V28.05v-0.233C26.014,27.664,25.997,27.516,25.967,27.372z"/>
			<path fill="#FFFFFF" d="M23.86,31.5H7.73c-1.432,0-2.62-1.166-2.65-2.599l-0.004-1.084c0-0.188,0.023-0.382,0.071-0.593
				c0.057-0.896,0.109-1.46,0.463-2.656c0.289-0.976,0.948-1.688,2.018-2.178c0.853-0.392,1.833-0.579,2.698-0.744
				c0.67-0.128,1.295-0.248,1.697-0.429c0.181-0.081,0.338-0.2,0.468-0.354c-0.305-0.297-0.577-0.636-0.813-1.012
				c-0.392-0.623-0.691-1.359-0.893-2.191c-0.189-0.112-0.364-0.277-0.514-0.488c-0.217-0.304-0.379-0.708-0.457-1.135
				c-0.098-0.549-0.053-1.079,0.122-1.49c-0.002-0.014-0.005-0.027-0.008-0.041c-0.096-0.481-0.128-1.035-0.094-1.646
				c0.052-0.949,0.241-1.724,0.278-1.869c0.235-0.934,0.923-1.863,1.886-2.548c0.752-0.533,2.021-1.169,3.801-1.169
				s3.049,0.636,3.8,1.168c0.964,0.686,1.651,1.615,1.888,2.551c0.037,0.148,0.224,0.926,0.273,1.867
				c0.032,0.611-0.001,1.165-0.097,1.646c-0.003,0.017-0.006,0.032-0.01,0.049c0.173,0.41,0.217,0.938,0.119,1.482
				c-0.076,0.425-0.237,0.827-0.454,1.133c-0.148,0.21-0.322,0.375-0.511,0.487c-0.201,0.832-0.5,1.569-0.892,2.193
				c-0.236,0.375-0.508,0.713-0.812,1.01c0.132,0.157,0.289,0.277,0.47,0.358c0.403,0.181,1.028,0.301,1.689,0.427
				c0.875,0.167,1.856,0.354,2.708,0.746c1.068,0.489,1.728,1.202,2.017,2.178c0.353,1.196,0.405,1.74,0.474,2.736
				c0.034,0.173,0.052,0.345,0.052,0.513v1.028C26.514,30.31,25.324,31.5,23.86,31.5z M15.799,8.273
				c-1.517,0-2.589,0.535-3.222,0.984c-0.772,0.549-1.317,1.27-1.495,1.978c-0.021,0.082-0.201,0.805-0.25,1.679
				c-0.028,0.527-0.003,0.997,0.076,1.396l0.09,0.375l-0.104,0.177c-0.13,0.222-0.167,0.604-0.097,0.997
				c0.051,0.28,0.156,0.548,0.288,0.733c0.129,0.183,0.234,0.223,0.264,0.23l0.293,0.081l0.063,0.297
				c0.175,0.82,0.449,1.533,0.817,2.118c0.263,0.417,0.577,0.777,0.936,1.07l0.314,0.257l-0.188,0.36
				c-0.096,0.185-0.205,0.352-0.326,0.495c-0.227,0.272-0.506,0.484-0.828,0.628c-0.509,0.229-1.189,0.359-1.909,0.497
				c-0.819,0.156-1.736,0.331-2.479,0.672c-0.802,0.368-1.271,0.861-1.476,1.553C6.244,25.953,6.2,26.42,6.133,27.37
				c-0.043,0.213-0.058,0.334-0.058,0.447v1.028C6.098,29.773,6.839,30.5,7.73,30.5h16.13c0.912,0,1.654-0.742,1.654-1.654v-1.028
				c0-0.112-0.012-0.224-0.037-0.342l-0.01-0.069c-0.066-0.969-0.109-1.443-0.438-2.555c-0.205-0.691-0.674-1.185-1.475-1.553
				c-0.741-0.34-1.66-0.516-2.47-0.67c-0.729-0.14-1.41-0.27-1.92-0.499c-0.321-0.144-0.601-0.355-0.828-0.63
				c-0.119-0.142-0.229-0.31-0.327-0.497l-0.188-0.36l0.313-0.257c0.357-0.293,0.671-0.652,0.934-1.068
				c0.366-0.585,0.642-1.298,0.816-2.117l0.062-0.293l0.289-0.083c0.029-0.009,0.136-0.051,0.265-0.232
				c0.132-0.187,0.236-0.453,0.286-0.732c0.07-0.393,0.034-0.773-0.095-0.995l-0.104-0.179l0.053-0.2
				c0.015-0.056,0.028-0.114,0.039-0.174c0.08-0.401,0.107-0.872,0.08-1.4c-0.046-0.865-0.225-1.592-0.245-1.672
				c-0.179-0.712-0.725-1.433-1.497-1.982C18.388,8.809,17.316,8.273,15.799,8.273z"/>
		</g>
	</g>
</g>
<g id="Layer_4">
</g>
<g id="Layer_5">
</g>
<g id="Layer_7">
</g>
</svg>
