<?xml version="1.0" encoding="utf-8"?>
<!-- Generator: Adobe Illustrator 18.1.0, SVG Export Plug-In . SVG Version: 6.00 Build 0)  -->
<!DOCTYPE svg PUBLIC "-//W3C//DTD SVG 1.1//EN" "http://www.w3.org/Graphics/SVG/1.1/DTD/svg11.dtd">
<svg version="1.1" id="Layer_1" xmlns="http://www.w3.org/2000/svg" xmlns:xlink="http://www.w3.org/1999/xlink" x="0px" y="0px"
	 viewBox="0 0 32 32" enable-background="new 0 0 32 32" xml:space="preserve">
<g id="Ppt">
</g>
<g id="Small_Folder">
</g>
<g id="fave_icon_-_selected">
</g>
<g>
	<g>
		<g>
			<path fill="#077467" d="M7,31.5c-1.93,0-3.5-1.57-3.5-3.5V4c0-1.93,1.57-3.5,3.5-3.5h15.207L28.5,6.793V28
				c0,1.93-1.57,3.5-3.5,3.5H7z"/>
			<path fill="#FFFFFF" d="M22,1l6,6v21c0,1.657-1.343,3-3,3H7c-1.657,0-3-1.343-3-3V4c0-1.657,1.343-3,3-3H22 M22.414,0H22H7
				C4.794,0,3,1.794,3,4v24c0,2.206,1.794,4,4,4h18c2.206,0,4-1.794,4-4V7V6.586l-0.293-0.293l-6-6L22.414,0L22.414,0z"/>
		</g>
	</g>
	<polygon fill-rule="evenodd" clip-rule="evenodd" fill="#055B4C" points="22,1 22,7 28,7 	"/>
	<path fill="#055B4C" d="M13,10H8v12c0,0.552,0.448,1,1,1s1-0.448,1-1v-4h3c2.209,0,4-1.791,4-4C17,11.791,15.209,10,13,10z
		 M12.846,16H10v-4h3c1.2,0,2.153,1.057,1.98,2.291C14.837,15.304,13.87,16,12.846,16z"/>
	<path fill="#FFFFFF" d="M13,9H8v12c0,0.552,0.448,1,1,1s1-0.448,1-1v-4h3c2.209,0,4-1.791,4-4C17,10.791,15.209,9,13,9z M12.846,15
		H10v-4h3c1.2,0,2.153,1.057,1.98,2.291C14.837,14.304,13.87,15,12.846,15z"/>
	<path fill="#055B4C" d="M25.154,19c0-2.209-1.791-4-4-4H20v-3c0-0.552-0.448-1-1-1s-1,0.448-1,1v11h3.154
		C23.363,23,25.154,21.209,25.154,19z M23.133,18.709c0.174,1.234-0.78,2.291-1.98,2.291H20v-4h1
		C22.024,17,22.991,17.696,23.133,18.709z"/>
	<path fill="#FFFFFF" d="M25.154,18c0-2.209-1.791-4-4-4H20v-3c0-0.552-0.448-1-1-1s-1,0.448-1,1v11h3.154
		C23.363,22,25.154,20.209,25.154,18z M23.133,17.709c0.174,1.234-0.78,2.291-1.98,2.291H20v-4h1
		C22.024,16,22.991,16.696,23.133,17.709z"/>
</g>
</svg>
