<?xml version="1.0" encoding="utf-8"?>
<!-- Generator: Adobe Illustrator 19.1.0, SVG Export Plug-In . SVG Version: 6.00 Build 0)  -->
<svg version="1.1" xmlns="http://www.w3.org/2000/svg" xmlns:xlink="http://www.w3.org/1999/xlink" x="0px" y="0px"
	 viewBox="0 0 32 32" enable-background="new 0 0 32 32" xml:space="preserve">
<g id="Layer_2">
</g>
<g id="Layer_1">
</g>
<g id="Layer_3">
</g>
<g id="Layer_4">
</g>
<g id="Layer_5">
	<g>
		<g>
			<path fill="#9370B1" d="M7,31.5c-1.93,0-3.5-1.57-3.5-3.5V4c0-1.93,1.57-3.5,3.5-3.5h15.207L28.5,6.793V28
				c0,1.93-1.57,3.5-3.5,3.5H7z"/>
			<path fill="#FFFFFF" d="M22,1l6,6v21c0,1.657-1.343,3-3,3H7c-1.657,0-3-1.343-3-3V4c0-1.657,1.343-3,3-3H22 M22.414,0H22H7
				C4.794,0,3,1.794,3,4v24c0,2.206,1.794,4,4,4h18c2.206,0,4-1.794,4-4V7V6.586l-0.293-0.293l-6-6L22.414,0L22.414,0z"/>
		</g>
	</g>
	<polygon fill="#735796" points="22,1 22,7 28,7 	"/>
	<path fill="#735796" d="M21.299,23.392H10.465c-0.276,0-0.5-0.224-0.5-0.5s0.224-0.5,0.5-0.5h10.834c0.276,0,0.5,0.224,0.5,0.5
		S21.575,23.392,21.299,23.392z"/>
	<path fill="#FFFFFF" d="M21.299,22.392H10.465c-0.276,0-0.5-0.224-0.5-0.5s0.224-0.5,0.5-0.5h10.834c0.276,0,0.5,0.224,0.5,0.5
		S21.575,22.392,21.299,22.392z"/>
	<path fill="#735796" d="M21.299,27.392H10.465c-0.276,0-0.5-0.224-0.5-0.5s0.224-0.5,0.5-0.5h10.834c0.276,0,0.5,0.224,0.5,0.5
		S21.575,27.392,21.299,27.392z"/>
	<path fill="#FFFFFF" d="M21.299,26.392H10.465c-0.276,0-0.5-0.224-0.5-0.5s0.224-0.5,0.5-0.5h10.834c0.276,0,0.5,0.224,0.5,0.5
		S21.575,26.392,21.299,26.392z"/>
	<path fill="#735796" d="M21.794,17.21c-0.04-0.571-0.067-0.867-0.263-1.531c-0.141-0.477-0.469-0.828-1.004-1.073
		c-0.457-0.21-1.004-0.314-1.487-0.407c-0.4-0.076-0.777-0.149-1.041-0.267c-0.144-0.065-0.27-0.16-0.373-0.284
		c-0.057-0.068-0.109-0.147-0.154-0.234c0.23-0.189,0.43-0.417,0.598-0.684c0.231-0.367,0.4-0.806,0.508-1.311
		c0.11-0.031,0.218-0.116,0.308-0.244c0.101-0.143,0.176-0.333,0.213-0.537c0.053-0.296,0.02-0.579-0.089-0.767
		c0.01-0.039,0.019-0.078,0.027-0.119c0.051-0.254,0.067-0.549,0.05-0.875c-0.029-0.553-0.145-1.001-0.149-1.019
		c-0.119-0.473-0.474-0.948-0.973-1.303c-0.398-0.283-1.071-0.619-2.02-0.619c-0.948,0-1.622,0.337-2.02,0.619
		c-0.499,0.355-0.854,0.829-0.973,1.302c-0.006,0.024-0.122,0.471-0.152,1.02c-0.018,0.327-0.002,0.621,0.049,0.875
		c0.008,0.039,0.016,0.078,0.026,0.116c-0.11,0.188-0.144,0.471-0.09,0.769c0.037,0.204,0.113,0.396,0.214,0.539
		c0.091,0.128,0.199,0.213,0.31,0.243c0.108,0.505,0.278,0.944,0.508,1.311c0.168,0.268,0.369,0.497,0.6,0.686
		c-0.045,0.086-0.096,0.164-0.153,0.232c-0.104,0.124-0.229,0.219-0.374,0.284c-0.264,0.118-0.641,0.19-1.041,0.267
		c-0.483,0.092-1.03,0.197-1.487,0.407c-0.535,0.246-0.863,0.597-1.004,1.073c-0.194,0.656-0.223,0.953-0.262,1.51
		c-0.021,0.09-0.034,0.182-0.034,0.277v0.592c0,0.009,0.002,0.017,0.003,0.026c0.014,0.67,0.564,1.214,1.237,1.214h9.28
		c0.682,0,1.239-0.558,1.239-1.239V17.6v-0.134C21.822,17.378,21.812,17.293,21.794,17.21z"/>
	<path fill="#FFFFFF" d="M21.531,14.679c-0.141-0.477-0.469-0.828-1.004-1.073c-0.457-0.21-1.004-0.314-1.487-0.407
		c-0.4-0.076-0.777-0.149-1.041-0.267c-0.144-0.065-0.27-0.16-0.373-0.284c-0.057-0.068-0.109-0.147-0.154-0.234
		c0.23-0.189,0.43-0.417,0.598-0.684c0.231-0.367,0.4-0.806,0.508-1.311c0.11-0.031,0.218-0.116,0.308-0.244
		c0.101-0.143,0.176-0.333,0.213-0.537c0.053-0.296,0.02-0.579-0.089-0.767c0.01-0.039,0.019-0.078,0.027-0.119
		c0.051-0.254,0.067-0.549,0.05-0.875c-0.029-0.553-0.145-1.001-0.149-1.019c-0.119-0.473-0.474-0.948-0.973-1.303
		c-0.398-0.283-1.071-0.619-2.02-0.619c-0.948,0-1.622,0.337-2.02,0.619c-0.499,0.355-0.854,0.829-0.973,1.302
		c-0.006,0.024-0.122,0.471-0.152,1.02c-0.018,0.327-0.002,0.621,0.049,0.875c0.008,0.039,0.016,0.078,0.026,0.116
		c-0.11,0.188-0.144,0.471-0.09,0.769c0.037,0.204,0.113,0.396,0.214,0.539c0.091,0.128,0.199,0.213,0.31,0.243
		c0.108,0.505,0.278,0.944,0.508,1.311c0.168,0.268,0.369,0.497,0.6,0.686c-0.045,0.086-0.096,0.164-0.153,0.232
		c-0.104,0.124-0.229,0.219-0.374,0.284c-0.264,0.118-0.641,0.19-1.041,0.267c-0.483,0.092-1.03,0.197-1.487,0.407
		c-0.535,0.246-0.863,0.597-1.004,1.073c-0.194,0.656-0.223,0.953-0.262,1.51c-0.021,0.09-0.032,0.886-0.032,0.895
		c0.014,0.67,0.564,1.214,1.237,1.214h9.28c0.682,0,1.239-0.558,1.239-1.239V16.6v-0.134C21.822,16.378,21.727,15.343,21.531,14.679
		z"/>
</g>
<g id="Layer_7">
</g>
</svg>
