<?xml version="1.0" encoding="utf-8"?>
<!-- Generator: Adobe Illustrator 19.2.0, SVG Export Plug-In . SVG Version: 6.00 Build 0)  -->
<!DOCTYPE svg PUBLIC "-//W3C//DTD SVG 1.1//EN" "http://www.w3.org/Graphics/SVG/1.1/DTD/svg11.dtd">
<svg version="1.1" id="Ebene_1" xmlns="http://www.w3.org/2000/svg" xmlns:xlink="http://www.w3.org/1999/xlink" x="0px" y="0px"
	 viewBox="0 0 536 150" enable-background="new 0 0 536 150" xml:space="preserve">
<g>
	<g>
		<g>
			<path fill="#FFFFFF" d="M147.533,33.97c-5.678,0-10.951-4.563-10.951-15.919c0-11.762,5.678-15.919,10.951-15.919
				s10.951,4.157,10.951,15.919C158.484,29.407,153.211,33.97,147.533,33.97 M147.837,35.795c9.329,0,16.832-6.692,16.832-17.744
				c0-11.863-8.416-17.846-16.832-17.846s-16.832,5.982-16.832,17.846C131.006,29.103,138.509,35.795,147.837,35.795"/>
			<path fill="#FFFFFF" d="M176.229,9.635c0-1.42,0.608-1.521,2.129-1.521c2.231,0,9.734,0.101,9.734,6.388
				c0,6.591-6.895,6.591-8.822,6.591c-1.115,0-2.129,0-3.042-0.101L176.229,9.635L176.229,9.635z M166.799,7.404
				c3.752,0.304,4.36,0.811,4.36,3.954V30.32c0,3.143,0,4.157-4.36,4.461v0.811h14.398v-0.811c-3.954-0.101-4.867-0.71-4.867-3.954
				v-8.01c1.217,0.101,2.231,0.101,3.447,0.101c5.374,0,8.72-0.811,10.951-2.535c0.913-0.71,3.143-2.535,3.143-5.881
				c0-5.577-6.388-7.909-13.486-7.909h-13.587V7.404z"/>
			<path fill="#FFFFFF" d="M222.364,35.491h-27.783V34.68c3.245-0.203,4.461-0.608,4.461-3.954V11.358
				c0-3.447-1.217-3.752-4.461-3.954V6.593h27.276l0.203,6.287h-1.318c-0.811-3.853-2.129-4.563-7.808-4.563h-6.996
				c-1.115,0-1.724,0-1.724,1.521v9.734h7.909c4.563,0,5.07-1.014,5.678-4.157h1.217v10.14h-1.217
				c-0.608-3.447-1.42-4.157-5.678-4.157l-7.909-0.101v10.849c0,1.825,0,1.825,7.706,1.825c6.388,0,9.024-1.318,11.255-5.78h1.42
				L222.364,35.491z"/>
			<path fill="#FFFFFF" d="M261.503,7.404c-3.245,0.304-4.867,0.507-4.867,5.577v23.017h-0.913l-22.611-23.93h-0.101v17.035
				c0,4.563,1.115,5.475,4.867,5.577v0.811h-12.066V34.68c3.954-0.203,4.968-0.913,4.968-5.577V9.837
				c-2.129-2.231-2.941-2.434-5.07-2.434V6.593h8.822l19.671,20.989h0.101V12.981c0-5.07-1.42-5.374-4.968-5.577V6.593h12.066v0.811
				H261.503z"/>
			<path fill="#FFFFFF" d="M287.968,35.491h-16.223V34.68c5.07-0.203,5.273-1.521,5.475-5.577V3.449h-3.853
				c-6.185,0-7.605,1.115-8.822,7.098h-1.318l0.304-9.227h32.65l0.304,9.227h-1.318c-1.217-6.084-2.738-7.098-8.822-7.098h-3.65
				v26.262c0,3.752,0.71,4.867,5.374,4.968v0.811H287.968z"/>
			<path fill="#FFFFFF" d="M325.89,35.491h-27.783V34.68c3.245-0.203,4.461-0.608,4.461-3.954V11.358
				c0-3.447-1.217-3.752-4.461-3.954V6.593h27.276l0.203,6.287h-1.318c-0.811-3.853-2.129-4.563-7.808-4.563h-6.996
				c-1.115,0-1.724,0-1.724,1.521v9.734h7.909c4.563,0,5.07-1.014,5.678-4.157h1.217v10.14h-1.217
				c-0.608-3.447-1.42-4.157-5.678-4.157l-7.909-0.101v10.849c0,1.825,0,1.825,7.706,1.825c6.388,0,9.024-1.318,11.255-5.78h1.42
				L325.89,35.491z"/>
			<path fill="#FFFFFF" d="M363.813,7.404c-2.738,0.203-4.056,0.304-7.706,4.056l-7.503,7.909l9.836,11.965
				c2.028,2.434,3.042,3.042,5.678,3.245v0.811h-15.311v-0.811c2.535-0.101,3.954-0.101,3.954-1.521
				c0-0.811-1.825-3.143-2.636-4.157l-4.867-6.084l-6.084,6.489c-1.115,1.115-2.636,2.839-2.636,3.65
				c0,1.42,1.927,1.521,3.954,1.622v0.811h-11.965v-0.811c2.839-0.203,3.447-0.71,7.503-4.968l8.112-8.416l-5.577-6.996
				c-5.273-6.591-6.287-6.692-9.329-6.895v-0.71h15.514v0.811c-2.636,0-3.954,0.101-3.954,1.42c0,0.913,0.913,2.332,4.36,6.489
				l2.129,2.535l5.78-6.084c1.217-1.318,2.028-2.129,2.028-2.941c0-1.318-1.825-1.42-3.65-1.42V6.593h12.269v0.811H363.813z"/>
			<path fill="#FFFFFF" d="M387.235,35.491h-15.007V34.68c4.664-0.203,4.867-1.217,4.867-4.461v-21.8h-1.927
				c-5.678,0-7.098,0.811-8.213,5.577h-1.217l0.304-7.402h27.276l0.304,7.402h-1.217c-1.115-4.766-2.535-5.577-8.213-5.577h-1.927
				v22.307c0,2.941,0.608,3.853,4.968,3.954L387.235,35.491L387.235,35.491z"/>
		</g>
		<g>
			<path fill="#FFFFFF" d="M52.946,119.048c0.286,0,0.53,0.102,0.731,0.302l1.72,1.849c-1.262,1.348-2.638,2.559-4.128,3.634
				c-1.491,1.074-3.118,1.992-4.881,2.752c-1.763,0.76-3.698,1.348-5.805,1.763s-4.422,0.624-6.945,0.624
				c-4.214,0-8.077-0.738-11.588-2.215c-3.512-1.477-6.522-3.569-9.03-6.278c-2.509-2.709-4.465-5.983-5.87-9.825
				c-1.405-3.841-2.107-8.112-2.107-12.814c0-4.615,0.724-8.829,2.171-12.642c1.447-3.812,3.483-7.088,6.106-9.825
				c2.623-2.738,5.762-4.859,9.417-6.364c3.655-1.505,7.69-2.258,12.104-2.258c2.207,0,4.228,0.166,6.063,0.495
				c1.834,0.33,3.548,0.803,5.139,1.419c1.591,0.617,3.088,1.383,4.494,2.301c1.404,0.917,2.78,1.978,4.128,3.182l-1.333,1.935
				c-0.23,0.344-0.588,0.517-1.075,0.517c-0.258,0-0.588-0.151-0.989-0.452c-0.402-0.301-0.911-0.673-1.527-1.117
				c-0.617-0.445-1.362-0.932-2.236-1.462c-0.875-0.53-1.914-1.018-3.118-1.462c-1.204-0.444-2.595-0.817-4.171-1.118
				c-1.577-0.301-3.369-0.452-5.375-0.452c-3.698,0-7.095,0.638-10.191,1.914c-3.096,1.276-5.762,3.096-7.998,5.461
				c-2.236,2.364-3.978,5.231-5.225,8.6c-1.247,3.369-1.87,7.146-1.87,11.33c0,4.301,0.616,8.143,1.849,11.524
				c1.232,3.383,2.938,6.242,5.117,8.578c2.178,2.337,4.751,4.128,7.719,5.375c2.967,1.247,6.185,1.871,9.653,1.871
				c2.178,0,4.121-0.144,5.827-0.431c1.705-0.286,3.274-0.716,4.708-1.29c1.433-0.572,2.766-1.274,3.999-2.106
				c1.232-0.831,2.451-1.806,3.655-2.924c0.143-0.114,0.279-0.208,0.409-0.28C52.624,119.085,52.774,119.048,52.946,119.048z"/>
			<path fill="#FFFFFF" d="M80.604,85.81c3.067,0,5.812,0.523,8.234,1.569c2.422,1.047,4.464,2.53,6.127,4.45
				c1.662,1.921,2.931,4.235,3.806,6.944c0.874,2.709,1.312,5.741,1.312,9.095c0,3.354-0.438,6.379-1.312,9.073
				c-0.875,2.694-2.144,5.003-3.806,6.923c-1.663,1.921-3.706,3.396-6.127,4.429c-2.423,1.032-5.167,1.548-8.234,1.548
				c-3.068,0-5.812-0.516-8.235-1.548s-4.472-2.508-6.149-4.429c-1.677-1.92-2.953-4.229-3.827-6.923
				c-0.875-2.694-1.312-5.719-1.312-9.073c0-3.354,0.437-6.386,1.312-9.095c0.874-2.709,2.15-5.023,3.827-6.944
				c1.677-1.92,3.727-3.403,6.149-4.45C74.791,86.333,77.536,85.81,80.604,85.81z M80.604,126.616c2.551,0,4.779-0.437,6.687-1.312
				c1.906-0.874,3.497-2.129,4.773-3.763c1.275-1.634,2.229-3.604,2.859-5.912c0.63-2.308,0.946-4.895,0.946-7.762
				c0-2.838-0.315-5.418-0.946-7.74c-0.631-2.321-1.584-4.307-2.859-5.955c-1.276-1.648-2.867-2.917-4.773-3.806
				c-1.907-0.888-4.136-1.333-6.687-1.333c-2.552,0-4.781,0.445-6.687,1.333c-1.907,0.889-3.498,2.157-4.773,3.806
				c-1.276,1.648-2.236,3.634-2.881,5.955c-0.645,2.322-0.967,4.902-0.967,7.74c0,2.867,0.322,5.454,0.967,7.762
				s1.605,4.278,2.881,5.912c1.275,1.634,2.866,2.889,4.773,3.763C75.823,126.18,78.052,126.616,80.604,126.616z"/>
			<path fill="#FFFFFF" d="M108.44,129.282V86.497h2.236c0.745,0,1.175,0.359,1.29,1.075l0.387,6.45
				c1.949-2.466,4.221-4.451,6.815-5.956c2.594-1.505,5.482-2.257,8.665-2.257c2.35,0,4.422,0.372,6.213,1.117
				c1.792,0.746,3.275,1.821,4.451,3.226c1.175,1.404,2.064,3.096,2.666,5.074c0.602,1.978,0.903,4.214,0.903,6.708v27.348h-4.085
				v-27.348c0-4.014-0.917-7.16-2.752-9.438c-1.835-2.279-4.644-3.419-8.428-3.419c-2.81,0-5.418,0.725-7.826,2.172
				s-4.558,3.433-6.45,5.955v32.078H108.44z"/>
			<path fill="#FFFFFF" d="M163.393,129.971c-2.896,0-5.146-0.803-6.751-2.408c-1.606-1.605-2.408-4.085-2.408-7.439v-29.24h-6.149
				c-0.316,0-0.574-0.086-0.774-0.258c-0.201-0.172-0.301-0.415-0.301-0.73v-1.591l7.31-0.517l1.021-15.308
				c0.028-0.258,0.134-0.487,0.318-0.688c0.184-0.2,0.433-0.301,0.745-0.301h1.914v16.34h13.459v3.053h-13.459v29.025
				c0,1.176,0.15,2.187,0.452,3.031c0.301,0.846,0.716,1.542,1.247,2.086c0.53,0.545,1.153,0.946,1.87,1.204
				c0.716,0.258,1.49,0.387,2.322,0.387c1.032,0,1.92-0.15,2.666-0.451c0.745-0.302,1.39-0.631,1.935-0.989
				c0.544-0.358,0.989-0.688,1.333-0.989c0.344-0.301,0.616-0.451,0.817-0.451c0.229,0,0.458,0.144,0.688,0.43l1.118,1.807
				c-1.09,1.203-2.473,2.171-4.15,2.902C166.94,129.604,165.199,129.971,163.393,129.971z"/>
			<path fill="#FFFFFF" d="M194.559,85.81c2.408,0,4.637,0.416,6.687,1.247c2.049,0.831,3.827,2.042,5.332,3.633
				s2.68,3.548,3.526,5.87c0.845,2.321,1.268,4.987,1.268,7.998c0,0.631-0.093,1.061-0.279,1.29s-0.479,0.344-0.88,0.344h-30.875
				v0.816c0,3.211,0.372,6.035,1.118,8.472c0.745,2.437,1.806,4.479,3.182,6.127c1.376,1.649,3.038,2.889,4.988,3.72
				c1.949,0.832,4.128,1.247,6.536,1.247c2.15,0,4.013-0.236,5.59-0.71c1.576-0.473,2.902-1.003,3.978-1.591
				c1.075-0.587,1.927-1.118,2.558-1.591c0.63-0.473,1.089-0.709,1.376-0.709c0.373,0,0.659,0.144,0.86,0.43l1.118,1.376
				c-0.688,0.86-1.598,1.663-2.73,2.408c-1.133,0.745-2.394,1.383-3.784,1.913c-1.391,0.531-2.881,0.953-4.472,1.269
				s-3.189,0.473-4.794,0.473c-2.924,0-5.59-0.509-7.998-1.526c-2.408-1.017-4.475-2.5-6.199-4.45
				c-1.725-1.949-3.058-4.336-3.999-7.159c-0.942-2.823-1.412-6.056-1.412-9.697c0-3.066,0.437-5.897,1.312-8.492
				c0.874-2.594,2.135-4.83,3.784-6.708c1.648-1.877,3.669-3.347,6.063-4.407S191.52,85.81,194.559,85.81z M194.622,88.862
				c-2.205,0-4.18,0.344-5.925,1.032c-1.746,0.688-3.256,1.677-4.53,2.967s-2.304,2.838-3.091,4.644
				c-0.788,1.807-1.31,3.827-1.567,6.063h28.165c0-2.293-0.315-4.35-0.945-6.171c-0.63-1.82-1.517-3.36-2.662-4.622
				c-1.145-1.262-2.519-2.229-4.122-2.902S196.568,88.862,194.622,88.862z"/>
			<path fill="#FFFFFF" d="M219.42,129.282V86.497h2.236c0.745,0,1.175,0.359,1.29,1.075l0.387,6.45
				c1.949-2.466,4.221-4.451,6.815-5.956c2.594-1.505,5.482-2.257,8.665-2.257c2.35,0,4.422,0.372,6.213,1.117
				c1.792,0.746,3.275,1.821,4.451,3.226c1.175,1.404,2.064,3.096,2.666,5.074c0.602,1.978,0.903,4.214,0.903,6.708v27.348h-4.085
				v-27.348c0-4.014-0.917-7.16-2.752-9.438c-1.835-2.279-4.644-3.419-8.428-3.419c-2.81,0-5.418,0.725-7.826,2.172
				s-4.558,3.433-6.45,5.955v32.078H219.42z"/>
			<path fill="#FFFFFF" d="M274.373,129.971c-2.896,0-5.146-0.803-6.751-2.408c-1.606-1.605-2.408-4.085-2.408-7.439v-29.24h-6.149
				c-0.316,0-0.574-0.086-0.774-0.258c-0.201-0.172-0.301-0.415-0.301-0.73v-1.591l7.31-0.517l1.021-15.308
				c0.028-0.258,0.134-0.487,0.318-0.688c0.184-0.2,0.433-0.301,0.745-0.301h1.914v16.34h13.459v3.053h-13.459v29.025
				c0,1.176,0.15,2.187,0.451,3.031c0.302,0.846,0.717,1.542,1.247,2.086c0.53,0.545,1.154,0.946,1.871,1.204
				c0.716,0.258,1.49,0.387,2.321,0.387c1.032,0,1.921-0.15,2.666-0.451c0.745-0.302,1.391-0.631,1.936-0.989
				c0.544-0.358,0.989-0.688,1.333-0.989s0.616-0.451,0.816-0.451c0.229,0,0.459,0.144,0.688,0.43l1.118,1.807
				c-1.09,1.203-2.473,2.171-4.149,2.902C277.92,129.604,276.179,129.971,274.373,129.971z"/>
			<path fill="#FFFFFF" d="M341.495,75.833c-0.259,0.488-0.631,0.731-1.118,0.731c-0.374,0-0.856-0.265-1.445-0.796
				c-0.59-0.53-1.388-1.118-2.395-1.763s-2.265-1.24-3.774-1.785c-1.51-0.544-3.372-0.817-5.586-0.817
				c-2.215,0-4.163,0.316-5.846,0.946c-1.683,0.631-3.092,1.491-4.229,2.58c-1.136,1.089-1.998,2.351-2.588,3.784
				c-0.59,1.435-0.884,2.939-0.884,4.516c0,2.063,0.438,3.77,1.312,5.117c0.876,1.348,2.031,2.493,3.467,3.439
				s3.064,1.741,4.888,2.387c1.822,0.645,3.696,1.283,5.619,1.913c1.923,0.631,3.796,1.326,5.619,2.086s3.452,1.713,4.888,2.859
				c1.435,1.146,2.59,2.559,3.467,4.235c0.875,1.677,1.313,3.763,1.313,6.257c0,2.552-0.438,4.952-1.312,7.202
				c-0.875,2.251-2.144,4.207-3.806,5.87c-1.663,1.662-3.698,2.974-6.106,3.934c-2.407,0.961-5.16,1.441-8.256,1.441
				c-4.014,0-7.468-0.71-10.363-2.129s-5.433-3.36-7.61-5.826l1.204-1.893c0.344-0.43,0.745-0.645,1.204-0.645
				c0.258,0,0.588,0.172,0.99,0.516c0.401,0.344,0.89,0.768,1.464,1.269c0.573,0.502,1.263,1.047,2.066,1.634
				c0.804,0.588,1.737,1.133,2.799,1.634c1.062,0.502,2.282,0.925,3.66,1.269c1.378,0.345,2.942,0.517,4.693,0.517
				c2.411,0,4.565-0.365,6.46-1.097s3.495-1.727,4.801-2.988c1.307-1.262,2.304-2.759,2.992-4.494
				c0.689-1.733,1.034-3.59,1.034-5.568c0-2.149-0.438-3.92-1.313-5.311c-0.877-1.39-2.032-2.551-3.468-3.482
				c-1.435-0.932-3.063-1.713-4.887-2.344c-1.823-0.63-3.696-1.247-5.619-1.849c-1.924-0.603-3.797-1.275-5.619-2.021
				c-1.823-0.745-3.452-1.698-4.888-2.859s-2.591-2.608-3.467-4.343c-0.875-1.734-1.312-3.906-1.312-6.515
				c0-2.035,0.387-3.999,1.162-5.891c0.775-1.893,1.909-3.562,3.401-5.01c1.493-1.447,3.338-2.608,5.534-3.483
				c2.195-0.874,4.7-1.312,7.514-1.312c3.157,0,5.992,0.502,8.504,1.505s4.8,2.537,6.865,4.601L341.495,75.833z"/>
			<path fill="#FFFFFF" d="M370.054,85.81c2.408,0,4.637,0.416,6.687,1.247s3.827,2.042,5.332,3.633s2.681,3.548,3.526,5.87
				c0.845,2.321,1.269,4.987,1.269,7.998c0,0.631-0.094,1.061-0.28,1.29c-0.186,0.229-0.479,0.344-0.88,0.344h-30.875v0.816
				c0,3.211,0.372,6.035,1.118,8.472c0.745,2.437,1.806,4.479,3.182,6.127c1.376,1.649,3.038,2.889,4.988,3.72
				c1.949,0.832,4.128,1.247,6.536,1.247c2.149,0,4.013-0.236,5.59-0.71c1.576-0.473,2.902-1.003,3.978-1.591
				c1.075-0.587,1.928-1.118,2.559-1.591c0.63-0.473,1.089-0.709,1.376-0.709c0.372,0,0.659,0.144,0.859,0.43l1.118,1.376
				c-0.688,0.86-1.599,1.663-2.73,2.408c-1.133,0.745-2.394,1.383-3.784,1.913c-1.391,0.531-2.881,0.953-4.472,1.269
				s-3.189,0.473-4.795,0.473c-2.924,0-5.59-0.509-7.998-1.526c-2.407-1.017-4.475-2.5-6.198-4.45
				c-1.725-1.949-3.058-4.336-3.999-7.159c-0.942-2.823-1.412-6.056-1.412-9.697c0-3.066,0.437-5.897,1.312-8.492
				c0.874-2.594,2.135-4.83,3.784-6.708c1.647-1.877,3.669-3.347,6.062-4.407S367.015,85.81,370.054,85.81z M370.117,88.862
				c-2.204,0-4.18,0.344-5.926,1.032c-1.746,0.688-3.256,1.677-4.529,2.967c-1.274,1.29-2.304,2.838-3.092,4.644
				c-0.787,1.807-1.31,3.827-1.566,6.063h28.165c0-2.293-0.315-4.35-0.944-6.171c-0.631-1.82-1.518-3.36-2.662-4.622
				c-1.146-1.262-2.52-2.229-4.122-2.902C373.837,89.199,372.062,88.862,370.117,88.862z"/>
			<path fill="#FFFFFF" d="M394.915,129.282V86.497h2.15c0.487,0,0.838,0.101,1.054,0.301c0.215,0.201,0.336,0.545,0.365,1.032
				l0.344,9.03c1.376-3.469,3.21-6.185,5.504-8.148c2.293-1.964,5.117-2.945,8.471-2.945c1.29,0,2.479,0.136,3.569,0.408
				c1.089,0.272,2.121,0.666,3.096,1.183l-0.559,2.838c-0.086,0.459-0.373,0.688-0.86,0.688c-0.172,0-0.415-0.057-0.73-0.172
				c-0.316-0.114-0.71-0.243-1.183-0.387s-1.054-0.272-1.741-0.387c-0.688-0.114-1.478-0.172-2.365-0.172
				c-3.24,0-5.898,1.003-7.977,3.01c-2.079,2.007-3.763,4.901-5.053,8.686v27.821H394.915z"/>
			<path fill="#FFFFFF" d="M445.207,129.282h-3.612l-18.06-42.785h3.225c0.401,0,0.724,0.107,0.968,0.322
				c0.243,0.216,0.423,0.452,0.537,0.71l14.104,33.755c0.286,0.66,0.501,1.29,0.645,1.892c0.144,0.603,0.286,1.204,0.431,1.807
				c0.143-0.603,0.293-1.211,0.451-1.828c0.157-0.615,0.365-1.239,0.623-1.87l14.19-33.755c0.144-0.315,0.337-0.565,0.58-0.753
				c0.243-0.186,0.538-0.279,0.882-0.279h3.096L445.207,129.282z"/>
			<path fill="#FFFFFF" d="M484.251,85.81c2.408,0,4.637,0.416,6.687,1.247s3.827,2.042,5.332,3.633s2.681,3.548,3.526,5.87
				c0.845,2.321,1.269,4.987,1.269,7.998c0,0.631-0.094,1.061-0.28,1.29c-0.186,0.229-0.479,0.344-0.88,0.344h-30.875v0.816
				c0,3.211,0.372,6.035,1.118,8.472c0.745,2.437,1.806,4.479,3.182,6.127c1.376,1.649,3.038,2.889,4.988,3.72
				c1.949,0.832,4.128,1.247,6.536,1.247c2.149,0,4.013-0.236,5.59-0.71c1.576-0.473,2.902-1.003,3.978-1.591
				c1.075-0.587,1.928-1.118,2.559-1.591c0.63-0.473,1.089-0.709,1.376-0.709c0.372,0,0.659,0.144,0.859,0.43l1.118,1.376
				c-0.688,0.86-1.599,1.663-2.73,2.408c-1.133,0.745-2.394,1.383-3.784,1.913c-1.391,0.531-2.881,0.953-4.472,1.269
				s-3.189,0.473-4.795,0.473c-2.924,0-5.59-0.509-7.998-1.526c-2.407-1.017-4.475-2.5-6.198-4.45
				c-1.725-1.949-3.058-4.336-3.999-7.159c-0.942-2.823-1.412-6.056-1.412-9.697c0-3.066,0.437-5.897,1.312-8.492
				c0.874-2.594,2.135-4.83,3.784-6.708c1.647-1.877,3.669-3.347,6.062-4.407S481.212,85.81,484.251,85.81z M484.314,88.862
				c-2.204,0-4.18,0.344-5.926,1.032c-1.746,0.688-3.256,1.677-4.529,2.967c-1.274,1.29-2.304,2.838-3.092,4.644
				c-0.787,1.807-1.31,3.827-1.566,6.063h28.165c0-2.293-0.315-4.35-0.944-6.171c-0.631-1.82-1.518-3.36-2.662-4.622
				c-1.146-1.262-2.52-2.229-4.122-2.902C488.034,89.199,486.26,88.862,484.314,88.862z"/>
			<path fill="#FFFFFF" d="M509.112,129.282V86.497h2.15c0.487,0,0.838,0.101,1.054,0.301c0.215,0.201,0.336,0.545,0.365,1.032
				l0.344,9.03c1.376-3.469,3.21-6.185,5.504-8.148c2.293-1.964,5.117-2.945,8.471-2.945c1.29,0,2.479,0.136,3.569,0.408
				c1.089,0.272,2.121,0.666,3.096,1.183l-0.559,2.838c-0.086,0.459-0.373,0.688-0.86,0.688c-0.172,0-0.415-0.057-0.73-0.172
				c-0.316-0.114-0.71-0.243-1.183-0.387s-1.054-0.272-1.741-0.387c-0.688-0.114-1.478-0.172-2.365-0.172
				c-3.24,0-5.898,1.003-7.977,3.01c-2.079,2.007-3.763,4.901-5.053,8.686v27.821H509.112z"/>
		</g>
	</g>
	<g>
		<g>
			<path fill="#FFFFFF" d="M400.825,2.241h-1.936v5.157h-0.724V2.241h-1.975V1.546h4.634V2.241z"/>
			<path fill="#FFFFFF" d="M407.156,7.398h-0.734V2.421l-1.668,4.977h-0.695l-1.668-4.977v4.977h-0.734V1.546h1.162l1.585,4.878
				l1.593-4.878h1.162V7.398z"/>
		</g>
	</g>
</g>
</svg>
