<?xml version="1.0" encoding="utf-8"?>
<!-- Generator: Adobe Illustrator 19.2.0, SVG Export Plug-In . SVG Version: 6.00 Build 0)  -->
<!DOCTYPE svg PUBLIC "-//W3C//DTD SVG 1.1//EN" "http://www.w3.org/Graphics/SVG/1.1/DTD/svg11.dtd">
<svg version="1.1" id="Layer_1" xmlns="http://www.w3.org/2000/svg" xmlns:xlink="http://www.w3.org/1999/xlink" x="0px" y="0px"
	 viewBox="-458 260 42 42" style="enable-background:new -458 260 42 42;" xml:space="preserve">
<style type="text/css">
	.st0{fill:#004B71;}
	.st1{fill:#FFFFFF;}
</style>
<g>
	<g>
		<g>
			<g>
				<path class="st0" d="M-437,260c-11.6,0-21,9.4-21,21s9.4,21,21,21s21-9.4,21-21S-425.4,260-437,260L-437,260z"/>
			</g>
		</g>
	</g>
	<path class="st1" d="M-427.5,289.5l-5.2-5.2c1.1-1.4,1.8-3.2,1.8-5.1c0-4.4-3.6-8-8-8c-2.1,0-4.1,0.8-5.6,2.3
		c-1.5,1.5-2.3,3.5-2.3,5.6c0,4.4,3.6,8,8,8c1.9,0,3.7-0.7,5.1-1.8l5.2,5.2c0.1,0.1,0.3,0.2,0.5,0.2s0.4-0.1,0.5-0.2
		C-427.2,290.3-427.2,289.8-427.5,289.5z M-438.8,285.7c-3.6,0-6.5-2.9-6.5-6.5c0-1.7,0.7-3.4,1.9-4.6c1.2-1.2,2.9-1.9,4.6-1.9
		c3.6,0,6.5,2.9,6.5,6.5S-435.2,285.7-438.8,285.7z"/>
</g>
</svg>
