<?xml version="1.0" encoding="utf-8"?>
<!-- Generator: Adobe Illustrator 18.1.1, SVG Export Plug-In . SVG Version: 6.00 Build 0)  -->
<svg version="1.1" id="Layer_1" xmlns="http://www.w3.org/2000/svg" xmlns:xlink="http://www.w3.org/1999/xlink" x="0px" y="0px"
	 viewBox="0 0 16 16" enable-background="new 0 0 16 16" xml:space="preserve">
<g>
	<g>
		<g>
			<path fill="#333333" d="M15.5294,15.9995c-0.1204,0-0.2408-0.046-0.3327-0.1379l-4.4504-4.4504
				c-0.1838-0.1838-0.1838-0.4816,0-0.6654s0.4816-0.1838,0.6654,0l4.4504,4.4504c0.1838,0.1838,0.1838,0.4816,0,0.6654
				C15.7702,15.9536,15.6498,15.9995,15.5294,15.9995z"/>
		</g>
		<g>
			<path fill="#333333" d="M6.5119,13.0244C2.9214,13.0244,0,10.1034,0,6.5124S2.9214,0,6.5119,0
				c3.591,0,6.5119,2.9214,6.5119,6.5124S10.1029,13.0244,6.5119,13.0244z M6.5119,0.9412c-3.0717,0-5.5708,2.4991-5.5708,5.5712
				c0,3.0717,2.4991,5.5708,5.5708,5.5708s5.5708-2.4991,5.5708-5.5708C12.0827,3.4403,9.5836,0.9412,6.5119,0.9412z"/>
		</g>
	</g>
</g>
</svg>
