<svg id="Layer_7" data-name="Layer 7" xmlns="http://www.w3.org/2000/svg" viewBox="0 0 36 36"><defs><style>.cls-1{fill:#1291ce;}.cls-2{fill:#fff;}</style></defs><title>mime</title><circle class="cls-1" cx="18" cy="18" r="17"/><path class="cls-2" d="M18,1A17,17,0,1,1,1,18,17,17,0,0,1,18,1m0-1A18,18,0,1,0,36,18,18.02,18.02,0,0,0,18,0h0Z"/><path class="cls-2" d="M18,30.127A12.127,12.127,0,1,1,30.128,18,12.141,12.141,0,0,1,18,30.127ZM18,6.873A11.127,11.127,0,1,0,29.128,18,11.139,11.139,0,0,0,18,6.873Z"/><path class="cls-2" d="M18,23.768A5.768,5.768,0,1,1,23.767,18,5.773,5.773,0,0,1,18,23.768Zm0-9.535A3.768,3.768,0,1,0,21.767,18,3.771,3.771,0,0,0,18,14.232Z"/><circle class="cls-2" cx="21.242" cy="6.821" r="2.889"/><circle class="cls-2" cx="6.704" cy="20.767" r="2.889"/><circle class="cls-2" cx="26.008" cy="26.359" r="2.889"/></svg>