<?xml version="1.0" encoding="utf-8"?>
<!-- Generator: Adobe Illustrator 19.1.0, SVG Export Plug-In . SVG Version: 6.00 Build 0)  -->
<svg version="1.1" xmlns="http://www.w3.org/2000/svg" xmlns:xlink="http://www.w3.org/1999/xlink" x="0px" y="0px"
	 viewBox="0 0 32 32" enable-background="new 0 0 32 32" xml:space="preserve">
<g id="Layer_2">
</g>
<g id="Layer_1">
	<g>
		<path fill="#FFFFFF" d="M16,0.027C7.178,0.027,0.027,7.178,0.027,16S7.178,31.973,16,31.973S31.973,24.822,31.973,16
			S24.822,0.027,16,0.027z"/>
	</g>
	<circle fill="#DF3324" cx="16" cy="16" r="14.939"/>
</g>
<g id="Layer_3">
	<path fill="#FFFFFF" d="M26.438,17.5v-3h-3.103c-0.201-0.949-0.58-1.831-1.103-2.61l2.209-2.209L22.32,7.559l-2.225,2.225
		c-0.778-0.508-1.653-0.879-2.595-1.071V5.562h-3v3.151c-0.942,0.191-1.817,0.562-2.595,1.071L9.68,7.559L7.559,9.68l2.209,2.21
		c-0.522,0.779-0.901,1.661-1.103,2.61H5.562v3h3.079c0.188,0.965,0.561,1.863,1.08,2.658L7.559,22.32l2.121,2.121l2.147-2.147
		c0.796,0.534,1.7,0.92,2.673,1.118v3.026h3v-3.026c0.973-0.198,1.877-0.584,2.673-1.118l2.147,2.147l2.121-2.121l-2.162-2.162
		c0.519-0.795,0.893-1.692,1.08-2.658L26.438,17.5z M16,20.562c-2.481,0-4.5-2.019-4.5-4.5s2.019-4.5,4.5-4.5s4.5,2.019,4.5,4.5
		S18.481,20.562,16,20.562z"/>
</g>
<g id="Layer_4">
</g>
<g id="Layer_5">
</g>
<g id="Layer_7">
</g>
</svg>
