<?xml version="1.0" encoding="utf-8"?>
<!-- Generator: Adobe Illustrator 19.1.0, SVG Export Plug-In . SVG Version: 6.00 Build 0)  -->
<svg version="1.1" xmlns="http://www.w3.org/2000/svg" xmlns:xlink="http://www.w3.org/1999/xlink" x="0px" y="0px"
	 viewBox="0 0 32 32" enable-background="new 0 0 32 32" xml:space="preserve">
<g id="Layer_2">
</g>
<g id="Layer_1">
	<g>
		<g>
			<g>
				<path fill="#FFFFFF" d="M25.827,11.389c0,5.427-9.827,19.048-9.827,19.048S6.173,16.816,6.173,11.389s4.4-9.827,9.827-9.827
					S25.827,5.962,25.827,11.389z"/>
				<path fill="#FFFFFF" d="M16,32.146l-0.811-1.124C14.78,30.456,5.173,17.074,5.173,11.389C5.173,5.419,10.03,0.562,16,0.562
					s10.827,4.856,10.827,10.826c0,5.686-9.607,19.067-10.017,19.634L16,32.146z M16,2.562c-4.867,0-8.827,3.959-8.827,8.826
					c0,3.812,5.772,12.915,8.827,17.316c3.055-4.401,8.827-13.504,8.827-17.316C24.827,6.521,20.867,2.562,16,2.562z"/>
			</g>
		</g>
		<g>
			<path fill="#C57C15" d="M25.827,11.389c0,5.427-9.827,19.048-9.827,19.048S6.173,16.816,6.173,11.389s4.4-9.827,9.827-9.827
				S25.827,5.962,25.827,11.389z"/>
			<circle fill="#B26602" cx="16" cy="13.182" r="4.349"/>
			<circle fill="#FFFFFF" cx="16" cy="11.396" r="4.349"/>
		</g>
	</g>
</g>
<g id="Layer_3">
</g>
<g id="Layer_4">
</g>
<g id="Layer_5">
</g>
<g id="Layer_7">
</g>
</svg>
