<?xml version="1.0" encoding="utf-8"?>
<!-- Generator: Adobe Illustrator 19.1.0, SVG Export Plug-In . SVG Version: 6.00 Build 0)  -->
<svg version="1.1" xmlns="http://www.w3.org/2000/svg" xmlns:xlink="http://www.w3.org/1999/xlink" x="0px" y="0px"
	 viewBox="0 0 32 32" enable-background="new 0 0 32 32" xml:space="preserve">
<g id="Layer_2">
</g>
<g id="Layer_1">
</g>
<g id="Layer_3">
</g>
<g id="Layer_4">
</g>
<g id="Layer_5">
	<g>
		<g>
			<path fill="#D24625" d="M7,31.5c-1.93,0-3.5-1.57-3.5-3.5V4c0-1.93,1.57-3.5,3.5-3.5h15.207L28.5,6.793V28
				c0,1.93-1.57,3.5-3.5,3.5H7z"/>
			<path fill="#FFFFFF" d="M22,1l6,6v21c0,1.657-1.343,3-3,3H7c-1.657,0-3-1.343-3-3V4c0-1.657,1.343-3,3-3H22 M22.414,0H22H7
				C4.794,0,3,1.794,3,4v24c0,2.206,1.794,4,4,4h18c2.206,0,4-1.794,4-4V7V6.586l-0.293-0.293l-6-6L22.414,0L22.414,0z"/>
		</g>
	</g>
	<polygon fill="#9E230B" points="22,1 22,7 28,7 	"/>
	<g>
		<path fill="#9E230B" d="M20.86,9.192c-1.114,0-2.132,0.901-2.723,2.412c-1.077,2.756-3.776,2.617-3.923,2.608H10.11
			c-1.239,0-2.248,1.009-2.248,2.249v0.619c0,1.24,1.009,2.249,2.251,2.249c0.245,0,0.519,0.001,0.735,0.009v5.506
			c0.016,1.051,0.882,1.905,1.931,1.905c1.05,0,1.916-0.854,1.932-1.911l0.004-5.453c0.796,0.08,2.677,0.538,3.757,3.01
			c0.473,1.081,1.388,1.752,2.389,1.752c2.054,0,3.662-3.284,3.662-7.477S22.914,9.192,20.86,9.192z M18.689,16.466
			c0-0.214,0.018-0.411,0.027-0.617h1.178c0.48,0,0.872,0.391,0.872,0.872c0,0.481-0.392,0.872-0.872,0.872h-1.155
			C18.709,17.23,18.689,16.857,18.689,16.466z M19.894,18.593c1.032,0,1.872-0.84,1.872-1.872s-0.84-1.872-1.872-1.872h-1.1
			c0.311-2.573,1.316-4.27,2.244-4.27c1.111,0,2.349,2.417,2.349,5.887s-1.237,5.887-2.349,5.887c-0.865,0-1.799-1.475-2.174-3.76
			H19.894z"/>
	</g>
	<g>
		<path fill="none" d="M20.766,15.721c0-0.48-0.392-0.872-0.872-0.872h-1.178c-0.009,0.206-0.027,0.403-0.027,0.617
			c0,0.391,0.02,0.764,0.05,1.127h1.155C20.374,16.593,20.766,16.201,20.766,15.721z"/>
		<path fill="none" d="M21.038,21.353c1.111,0,2.349-2.417,2.349-5.887s-1.237-5.887-2.349-5.887c-0.927,0-1.933,1.697-2.244,4.27
			h1.1c1.032,0,1.872,0.839,1.872,1.872s-0.84,1.872-1.872,1.872h-1.03C19.239,19.877,20.173,21.353,21.038,21.353z"/>
		<path fill="#FFFFFF" d="M20.86,8.192c-1.114,0-2.132,0.901-2.723,2.412c-1.077,2.756-3.776,2.617-3.923,2.608H10.11
			c-1.239,0-2.248,1.009-2.248,2.249v0.619c0,1.24,1.009,2.249,2.251,2.249c0.245,0,0.519,0.001,0.735,0.009v5.506
			c0.016,1.051,0.882,1.905,1.931,1.905c1.05,0,1.916-0.854,1.932-1.911l0.004-5.453c0.796,0.08,2.677,0.538,3.757,3.01
			c0.473,1.081,1.388,1.752,2.389,1.752c2.054,0,3.662-3.284,3.662-7.477S22.914,8.192,20.86,8.192z M18.689,15.466
			c0-0.214,0.018-0.411,0.027-0.617h1.178c0.48,0,0.872,0.391,0.872,0.872c0,0.481-0.392,0.872-0.872,0.872h-1.155
			C18.709,16.23,18.689,15.857,18.689,15.466z M19.894,17.593c1.032,0,1.872-0.84,1.872-1.872s-0.84-1.872-1.872-1.872h-1.1
			c0.311-2.573,1.316-4.27,2.244-4.27c1.111,0,2.349,2.417,2.349,5.887s-1.237,5.887-2.349,5.887c-0.865,0-1.799-1.475-2.174-3.76
			H19.894z"/>
	</g>
</g>
<g id="Layer_7">
</g>
</svg>
