<?xml version="1.0" encoding="utf-8"?>
<!-- Generator: Adobe Illustrator 19.1.0, SVG Export Plug-In . SVG Version: 6.00 Build 0)  -->
<svg version="1.1" xmlns="http://www.w3.org/2000/svg" xmlns:xlink="http://www.w3.org/1999/xlink" x="0px" y="0px"
	 viewBox="0 0 32 32" enable-background="new 0 0 32 32" xml:space="preserve">
<g id="Layer_2">
</g>
<g id="Layer_1">
</g>
<g id="Layer_3">
	<g>
		<g>
			<g>
				<path fill="#C8D5DE" d="M28.23,21.502c0,0.299-0.158,0.575-0.416,0.725l-3.271,1.9l-8.054,4.678c-0.257,0.15-0.574,0.15-0.831,0
					L4.333,22.227c-0.258-0.15-0.416-0.425-0.416-0.725V8.346c0-0.299,0.158-0.575,0.416-0.725l11.324-6.579
					c0.257-0.15,0.574-0.15,0.831,0l11.325,6.579c0.258,0.15,0.416,0.425,0.416,0.725V21.502z"/>
				<polygon fill="#74848F" points="28.23,21.502 16.073,28.984 16.073,14.957 28.23,7.476 				"/>
				<polygon fill="#E9EEF1" points="3.917,7.476 16.073,14.957 28.23,7.476 16.073,0.93 				"/>
				<path fill="#3C4549" d="M28.284,6.812L16.96,0.234c-0.538-0.312-1.235-0.312-1.772,0L3.862,6.812
					c-0.543,0.316-0.88,0.904-0.88,1.534v13.156c0,0.629,0.337,1.218,0.881,1.534l11.324,6.578c0.269,0.156,0.575,0.239,0.886,0.239
					s0.617-0.083,0.886-0.238l11.326-6.579c0.543-0.316,0.88-0.904,0.88-1.534V8.346C29.165,7.716,28.829,7.128,28.284,6.812z
					 M16.073,1.883L26.9,8.171l-10.646,6.184c-0.111,0.063-0.249,0.065-0.361-0.001L5.247,8.171L16.073,1.883z M4.852,21.447V9.023
					l10.571,6.139c0.039,0.023,0.083,0.034,0.125,0.052v12.445L4.852,21.447z M16.483,27.727V15.264
					c0.082-0.027,0.165-0.056,0.24-0.1l10.572-6.141v12.424L16.483,27.727z"/>
			</g>
		</g>
		<g>
			<path fill="#3C4549" d="M25.227,26.974c-0.063-0.903-0.106-1.371-0.416-2.422c-0.223-0.754-0.742-1.309-1.588-1.698
				c-0.722-0.332-1.588-0.497-2.352-0.643c-0.632-0.121-1.229-0.235-1.646-0.422c-0.228-0.102-0.427-0.254-0.591-0.45
				c-0.09-0.108-0.172-0.232-0.244-0.37c0.364-0.299,0.68-0.66,0.945-1.082c0.365-0.58,0.633-1.275,0.803-2.074
				c0.174-0.05,0.344-0.184,0.487-0.386c0.159-0.226,0.279-0.527,0.337-0.849c0.084-0.469,0.032-0.916-0.14-1.213
				c0.016-0.061,0.03-0.124,0.043-0.188c0.08-0.402,0.107-0.868,0.079-1.384c-0.046-0.874-0.229-1.584-0.236-1.613
				c-0.188-0.748-0.749-1.499-1.539-2.061c-0.629-0.447-1.695-0.98-3.194-0.98s-2.565,0.533-3.194,0.98
				c-0.79,0.561-1.351,1.312-1.539,2.06c-0.01,0.038-0.192,0.745-0.24,1.614c-0.028,0.517-0.002,0.983,0.077,1.385
				c0.012,0.062,0.026,0.123,0.041,0.183c-0.174,0.297-0.228,0.746-0.143,1.217c0.058,0.323,0.179,0.626,0.339,0.852
				c0.144,0.203,0.315,0.337,0.49,0.385c0.17,0.799,0.439,1.493,0.804,2.073c0.266,0.423,0.583,0.785,0.949,1.085
				c-0.071,0.137-0.152,0.26-0.242,0.367c-0.164,0.196-0.363,0.347-0.591,0.45c-0.417,0.187-1.014,0.301-1.646,0.422
				c-0.764,0.146-1.63,0.312-2.352,0.643c-0.846,0.389-1.366,0.944-1.588,1.698c-0.307,1.038-0.352,1.507-0.414,2.389
				c-0.033,0.142-0.054,0.287-0.054,0.439v0.936c0,0.014,0.004,0.027,0.004,0.04c0.022,1.059,0.892,1.92,1.956,1.92H23.31
				c1.078,0,1.96-0.882,1.96-1.96v-0.724v-0.212C25.27,27.24,25.255,27.105,25.227,26.974z"/>
			<path fill="#FFFFFF" d="M23.31,30.775H8.631c-1.326,0-2.428-1.081-2.456-2.409l-0.004-0.987c0-0.18,0.021-0.36,0.067-0.553
				c0.05-0.806,0.097-1.318,0.421-2.416c0.263-0.888,0.888-1.564,1.858-2.011c0.782-0.358,1.678-0.529,2.468-0.68
				c0.604-0.115,1.172-0.225,1.535-0.387c0.144-0.065,0.272-0.159,0.381-0.28c-0.267-0.265-0.507-0.566-0.716-0.898
				c-0.356-0.568-0.629-1.236-0.813-1.989c-0.172-0.104-0.329-0.256-0.465-0.448c-0.201-0.28-0.352-0.654-0.424-1.051
				c-0.089-0.502-0.049-0.986,0.109-1.366c-0.002-0.011-0.004-0.021-0.006-0.031c-0.087-0.435-0.116-0.942-0.085-1.504
				c0.047-0.867,0.22-1.576,0.254-1.709c0.217-0.861,0.85-1.716,1.735-2.345c0.688-0.488,1.851-1.072,3.483-1.072
				c1.631,0,2.795,0.583,3.483,1.073c0.887,0.629,1.52,1.484,1.735,2.347l0,0c0,0,0.201,0.765,0.25,1.707
				c0.03,0.559,0,1.065-0.088,1.508c-0.002,0.011-0.004,0.021-0.007,0.032c0.156,0.38,0.195,0.862,0.106,1.359
				c-0.07,0.392-0.22,0.765-0.421,1.049c-0.135,0.191-0.292,0.343-0.463,0.447c-0.185,0.757-0.457,1.426-0.813,1.991
				c-0.208,0.332-0.447,0.632-0.713,0.897c0.109,0.123,0.238,0.218,0.385,0.283c0.362,0.162,0.931,0.271,1.533,0.387
				c0.791,0.15,1.687,0.321,2.467,0.68c0.973,0.445,1.598,1.122,1.86,2.011c0.321,1.09,0.37,1.587,0.433,2.496
				c0.032,0.161,0.048,0.32,0.048,0.473v0.937C25.771,29.672,24.667,30.775,23.31,30.775z M15.975,9.639
				c-1.369,0-2.335,0.482-2.904,0.888c-0.695,0.493-1.186,1.14-1.346,1.774c-0.019,0.075-0.182,0.728-0.225,1.519
				c-0.026,0.478-0.003,0.901,0.068,1.26c0.011,0.057,0.021,0.106,0.034,0.154l0.053,0.201l-0.105,0.179
				c-0.088,0.15-0.156,0.46-0.082,0.876c0.045,0.249,0.138,0.485,0.255,0.648c0.087,0.124,0.169,0.182,0.217,0.195l0.291,0.081
				l0.063,0.296c0.158,0.739,0.406,1.383,0.738,1.912c0.236,0.376,0.521,0.7,0.842,0.964l0.314,0.258l-0.188,0.36
				c-0.089,0.17-0.19,0.324-0.304,0.457c-0.212,0.254-0.471,0.45-0.768,0.584c-0.471,0.21-1.095,0.33-1.755,0.457
				c-0.736,0.14-1.568,0.299-2.24,0.605c-0.716,0.33-1.135,0.77-1.316,1.386c-0.295,0.999-0.336,1.445-0.395,2.282
				c-0.039,0.195-0.053,0.302-0.053,0.403v0.937c0.021,0.818,0.674,1.46,1.46,1.46H23.31c0.806,0,1.461-0.655,1.461-1.46v-0.937
				c0-0.095-0.011-0.197-0.033-0.303l-0.01-0.068c-0.061-0.879-0.1-1.311-0.396-2.314c-0.182-0.616-0.601-1.057-1.318-1.386
				c-0.67-0.307-1.502-0.466-2.236-0.605c-0.662-0.127-1.286-0.247-1.756-0.457c-0.3-0.135-0.56-0.332-0.771-0.587
				c-0.107-0.128-0.211-0.282-0.302-0.457l-0.189-0.36l0.314-0.259c0.321-0.263,0.604-0.587,0.84-0.962
				c0.33-0.525,0.579-1.169,0.737-1.912l0.063-0.294l0.288-0.082c0.048-0.014,0.13-0.072,0.217-0.194
				c0.116-0.166,0.209-0.402,0.253-0.648c0.074-0.413,0.007-0.723-0.081-0.874l-0.103-0.177l0.088-0.359
				c0.071-0.361,0.095-0.785,0.07-1.261c-0.044-0.826-0.218-1.501-0.22-1.508c-0.161-0.644-0.651-1.291-1.346-1.783
				C18.309,10.122,17.342,9.639,15.975,9.639z"/>
		</g>
	</g>
</g>
<g id="Layer_4">
</g>
<g id="Layer_5">
</g>
<g id="Layer_7">
</g>
</svg>
