<?xml version="1.0" encoding="utf-8"?>
<!-- Generator: Adobe Illustrator 19.1.0, SVG Export Plug-In . SVG Version: 6.00 Build 0)  -->
<svg version="1.1" xmlns="http://www.w3.org/2000/svg" xmlns:xlink="http://www.w3.org/1999/xlink" x="0px" y="0px"
	 viewBox="0 0 32 32" enable-background="new 0 0 32 32" xml:space="preserve">
<g id="Layer_2">
</g>
<g id="Layer_1">
	<circle fill="#FFFFFF" cx="15.973" cy="16" r="15.973"/>
	<path fill="#0071C5" d="M12.335,13.945V7.244l7.008,6.824V7.182l6.947,6.885l4.486,0.012C29.831,6.738,23.572,1.061,15.973,1.061
		c-3.461,0-6.638,1.188-9.171,3.163v9.721H12.335z"/>
	<path fill="#0071C5" d="M5.143,5.73c-2.081,2.194-3.495,5.014-3.941,8.153h3.941V5.73z"/>
	<path fill="#FFFFFF" d="M15.053,25.356c-2.873,0.068-4.99-2.413-4.591-5.127c-0.083-0.594-0.055-1.217,0.121-1.846
		c0.018-0.065,0.046-0.127,0.099-0.268c0.903,0.907,1.765,1.757,2.607,2.628c0.215,0.222,0.417,0.286,0.7,0.18
		c0.919-0.346,1.579-0.952,2.025-1.772c-0.756-0.726-1.489-1.476-2.23-2.219c-0.096-0.097-0.187-0.2-0.309-0.331
		c0.35-0.121,0.693-0.184,1.033-0.219c-0.24-0.242-0.484-0.48-0.724-0.721c-0.096-0.097-0.187-0.2-0.309-0.331
		c1.117-0.386,2.175-0.327,3.213,0.105c1.677,0.698,2.807,2.355,2.738,4.177c-0.039,1.036,0.311,1.802,1.036,2.517
		c1.75,1.727,3.485,3.47,5.223,5.209c3.195-2.74,5.227-6.798,5.227-11.338c0-0.652-0.056-1.29-0.137-1.92l-4.486-0.012l-6.947-6.885
		v6.885l-7.008-6.824v6.701H6.802V4.224C6.212,4.685,5.658,5.187,5.143,5.73v8.153H1.201C1.103,14.576,1.034,15.279,1.034,16
		c0,8.251,6.689,14.939,14.939,14.939c1.797,0,3.512-0.334,5.108-0.915c-1.242-1.243-2.489-2.481-3.725-3.73
		C16.704,25.633,15.989,25.333,15.053,25.356z"/>
	<g>
		<path fill="#E6E7E8" d="M17.607,25.998c-0.653-0.66-1.368-0.96-2.304-0.938c-2.414,0.057-4.289-1.688-4.591-3.856
			c-0.399,2.714,1.719,5.195,4.591,5.127c0.936-0.022,1.651,0.278,2.304,0.938c1.236,1.249,2.483,2.487,3.725,3.73
			c0.308-0.112,0.614-0.226,0.912-0.357C20.697,29.095,19.146,27.553,17.607,25.998z"/>
		<path fill="#E6E7E8" d="M16.315,18.906c-0.529-0.506-1.042-1.03-1.558-1.55c-0.34,0.036-0.683,0.098-1.033,0.219
			c0.122,0.131,0.212,0.234,0.309,0.331c0.741,0.742,1.474,1.493,2.23,2.219c0.085-0.156,0.175-0.306,0.244-0.479
			C16.621,19.36,16.554,19.135,16.315,18.906z"/>
		<path fill="#0071C5" d="M20.713,23.104c-0.726-0.716-1.076-1.481-1.036-2.517c0.069-1.821-1.061-3.479-2.738-4.177
			c-1.038-0.432-2.097-0.492-3.213-0.105c0.122,0.131,0.212,0.234,0.309,0.331c0.241,0.241,0.485,0.479,0.724,0.721
			c0.516,0.52,1.029,1.044,1.558,1.55c0.239,0.228,0.305,0.454,0.191,0.74c-0.068,0.172-0.159,0.323-0.244,0.479
			c-0.446,0.82-1.105,1.427-2.025,1.772c-0.283,0.106-0.486,0.042-0.7-0.18c-0.842-0.87-1.704-1.721-2.607-2.628
			c-0.052,0.141-0.081,0.203-0.099,0.268c-0.175,0.629-0.203,1.253-0.121,1.846c0.303,2.168,2.177,3.913,4.591,3.856
			c0.936-0.022,1.651,0.278,2.304,0.938c1.539,1.555,3.09,3.097,4.637,4.644c1.068-0.471,2.064-1.068,2.983-1.765
			c0.241-0.183,0.48-0.367,0.709-0.564C24.198,26.574,22.463,24.831,20.713,23.104z"/>
	</g>
</g>
<g id="Layer_3">
	<path fill="#0071C5" d="M16,32C7.177,32,0,24.823,0,16S7.177,0,16,0s16,7.177,16,16S24.823,32,16,32z M16,1.032
		C7.747,1.032,1.032,7.747,1.032,16S7.747,30.968,16,30.968S30.968,24.253,30.968,16S24.253,1.032,16,1.032z"/>
</g>
<g id="Layer_4">
</g>
<g id="Layer_5">
</g>
<g id="Layer_7">
</g>
</svg>
