<?xml version="1.0" encoding="utf-8"?>
<!-- Generator: Adobe Illustrator 19.1.0, SVG Export Plug-In . SVG Version: 6.00 Build 0)  -->
<svg version="1.1" xmlns="http://www.w3.org/2000/svg" xmlns:xlink="http://www.w3.org/1999/xlink" x="0px" y="0px"
	 viewBox="0 0 32 32" enable-background="new 0 0 32 32" xml:space="preserve">
<g id="Layer_2">
</g>
<g id="Layer_1">
</g>
<g id="Layer_3">
	<circle fill="#004A70" cx="16" cy="16" r="15"/>
	<path fill="#003854" d="M9.087,17.393c2.19,0,3.964-1.774,3.964-3.963c0-2.152-1.774-3.926-3.964-3.926
		c-2.15,0-3.926,1.774-3.926,3.926C5.162,15.619,6.937,17.393,9.087,17.393z"/>
	<path fill="#003854" d="M6.045,26.503l2.25-3.673l3.549,2.226c0.264,0.19,0.528,0.227,0.867,0.227c0.604,0,1.283-0.303,1.585-0.867
		l1.13-2.029l-1.733-3.11c-0.083-0.167-0.158-0.337-0.224-0.51l-1.325,2.364l-4.378-2.717c-0.906-0.567-1.927-0.982-3.021-0.982
		c-1.213,0-2.203,0.511-2.957,1.325c0.549,2.842,1.914,5.394,3.865,7.385C5.779,26.268,5.916,26.381,6.045,26.503z"/>
	<path fill="#003854" d="M22.913,17.393c2.15,0,3.926-1.774,3.926-3.963c0-2.152-1.775-3.926-3.926-3.926
		c-2.19,0-3.964,1.774-3.964,3.926C18.948,15.619,20.722,17.393,22.913,17.393z"/>
	<path fill="#003854" d="M30.211,18.757c-0.754-0.814-1.744-1.325-2.957-1.325c-1.094,0-2.115,0.415-3.021,0.982l-4.378,2.717
		l-2.265-4.038c-0.021-0.037-0.049-0.066-0.072-0.102c-0.062-0.099-0.125-0.197-0.198-0.283c-0.015-0.017-0.03-0.035-0.045-0.052
		c-0.069-0.077-0.148-0.14-0.226-0.204c-0.205-0.166-0.439-0.278-0.7-0.331c-0.052-0.011-0.105-0.02-0.16-0.025
		c-0.063-0.008-0.126-0.017-0.19-0.019c-0.064,0.002-0.127,0.01-0.19,0.019c-0.054,0.005-0.107,0.014-0.16,0.025
		c-0.258,0.058-0.494,0.175-0.7,0.331c-0.078,0.064-0.157,0.127-0.226,0.204c-0.016,0.017-0.031,0.035-0.046,0.052
		c-0.073,0.086-0.136,0.183-0.197,0.282c-0.131,0.234-0.213,0.497-0.213,0.782c0,0.377,0.151,0.718,0.301,1.019L16,21.359
		l1.703,3.057c0.303,0.565,0.982,0.867,1.585,0.867c0.34,0,0.604-0.037,0.867-0.227l3.549-2.226l2.25,3.673
		c0.129-0.122,0.266-0.235,0.391-0.362C28.297,24.151,29.662,21.599,30.211,18.757z"/>
	<path fill="none" d="M16,1.5C8.005,1.5,1.5,8.005,1.5,16c0,0.655,0.059,1.295,0.143,1.927c0.771-0.912,1.808-1.496,3.103-1.496
		c1.094,0,2.115,0.415,3.021,0.982l4.378,2.717l1.325-2.364c0.066,0.173,0.141,0.343,0.224,0.51l1.733,3.11l-1.13,2.029
		c-0.303,0.565-0.982,0.867-1.585,0.867c-0.34,0-0.604-0.037-0.867-0.227L8.295,21.83l-2.641,4.311
		C8.288,28.827,11.951,30.5,16,30.5s7.712-1.673,10.346-4.359l-2.641-4.311l-3.549,2.226c-0.264,0.19-0.528,0.227-0.867,0.227
		c-0.604,0-1.283-0.303-1.585-0.867L16,20.359l-1.431-2.569c-0.15-0.301-0.301-0.642-0.301-1.019c0-0.284,0.082-0.547,0.213-0.782
		c0.062-0.099,0.125-0.196,0.197-0.282c0.015-0.018,0.03-0.035,0.046-0.052c0.069-0.077,0.148-0.14,0.226-0.204
		c0.205-0.156,0.442-0.273,0.7-0.331c0.052-0.011,0.105-0.02,0.16-0.025c0.063-0.008,0.126-0.017,0.19-0.019
		c0.064,0.002,0.127,0.01,0.19,0.019c0.055,0.005,0.107,0.014,0.16,0.025c0.261,0.053,0.495,0.164,0.7,0.331
		c0.078,0.064,0.157,0.127,0.226,0.204c0.016,0.017,0.03,0.034,0.045,0.052c0.073,0.086,0.136,0.184,0.198,0.283
		c0.022,0.036,0.051,0.065,0.072,0.102l2.265,4.038l4.378-2.717c0.906-0.567,1.927-0.982,3.021-0.982
		c1.295,0,2.332,0.584,3.103,1.496C30.441,17.295,30.5,16.655,30.5,16C30.5,8.005,23.995,1.5,16,1.5z M9.087,16.393
		c-2.15,0-3.926-1.774-3.926-3.963c0-2.152,1.775-3.926,3.926-3.926c2.19,0,3.964,1.774,3.964,3.926
		C13.051,14.619,11.278,16.393,9.087,16.393z M22.913,16.393c-2.19,0-3.964-1.774-3.964-3.963c0-2.152,1.774-3.926,3.964-3.926
		c2.15,0,3.926,1.774,3.926,3.926C26.838,14.619,25.063,16.393,22.913,16.393z"/>
	<path fill="#FFFFFF" d="M9.087,8.505c-2.15,0-3.926,1.774-3.926,3.926c0,2.189,1.775,3.963,3.926,3.963
		c2.19,0,3.964-1.774,3.964-3.963C13.051,10.278,11.278,8.505,9.087,8.505z"/>
	<path fill="#FFFFFF" d="M11.844,24.056c0.264,0.19,0.528,0.227,0.867,0.227c0.604,0,1.283-0.303,1.585-0.867l1.13-2.029
		l-1.733-3.11c-0.083-0.167-0.158-0.337-0.224-0.51l-1.325,2.364l-4.378-2.717c-0.906-0.567-1.927-0.982-3.021-0.982
		c-1.295,0-2.332,0.584-3.103,1.496c0.425,3.176,1.871,6.031,4.011,8.214l2.641-4.311L11.844,24.056z"/>
	<path fill="#FFFFFF" d="M22.913,8.505c-2.19,0-3.964,1.774-3.964,3.926c0,2.189,1.774,3.963,3.964,3.963
		c2.15,0,3.926-1.774,3.926-3.963C26.838,10.278,25.063,8.505,22.913,8.505z"/>
	<path fill="#FFFFFF" d="M27.253,16.432c-1.094,0-2.115,0.415-3.021,0.982l-4.378,2.717l-2.265-4.038
		c-0.021-0.037-0.049-0.066-0.072-0.102c-0.062-0.099-0.125-0.197-0.198-0.283c-0.015-0.017-0.03-0.035-0.045-0.052
		c-0.069-0.077-0.148-0.14-0.226-0.204c-0.205-0.166-0.439-0.278-0.7-0.331c-0.052-0.011-0.105-0.02-0.16-0.025
		c-0.063-0.008-0.126-0.017-0.19-0.019c-0.064,0.002-0.127,0.01-0.19,0.019c-0.054,0.005-0.107,0.014-0.16,0.025
		c-0.258,0.058-0.494,0.175-0.7,0.331c-0.078,0.064-0.157,0.127-0.226,0.204c-0.016,0.017-0.031,0.035-0.046,0.052
		c-0.073,0.086-0.136,0.183-0.197,0.282c-0.131,0.234-0.213,0.497-0.213,0.782c0,0.377,0.151,0.718,0.301,1.019L16,20.359
		l1.703,3.057c0.303,0.565,0.982,0.867,1.585,0.867c0.34,0,0.604-0.037,0.867-0.227l3.549-2.226l2.641,4.311
		c2.14-2.183,3.586-5.037,4.011-8.214C29.586,17.016,28.548,16.432,27.253,16.432z"/>
	<path fill="#004A70" d="M16,31.5C7.453,31.5,0.5,24.547,0.5,16S7.453,0.5,16,0.5S31.5,7.453,31.5,16S24.547,31.5,16,31.5z M16,1.5
		C8.005,1.5,1.5,8.005,1.5,16S8.005,30.5,16,30.5S30.5,23.995,30.5,16S23.995,1.5,16,1.5z"/>
</g>
<g id="Layer_4">
</g>
<g id="Layer_5">
</g>
<g id="Layer_7">
</g>
</svg>
