<?xml version="1.0" encoding="utf-8"?>
<!-- Generator: Adobe Illustrator 19.1.0, SVG Export Plug-In . SVG Version: 6.00 Build 0)  -->
<svg version="1.1" xmlns="http://www.w3.org/2000/svg" xmlns:xlink="http://www.w3.org/1999/xlink" x="0px" y="0px"
	 viewBox="0 0 32 32" enable-background="new 0 0 32 32" xml:space="preserve">
<g id="Layer_2">
</g>
<g id="Layer_1">
</g>
<g id="Layer_3">
</g>
<g id="Layer_4">
	<g>
		<g>
			<path fill="#C57C15" d="M7,31.5c-1.93,0-3.5-1.57-3.5-3.5V4c0-1.93,1.57-3.5,3.5-3.5h15.207L28.5,6.793V28
				c0,1.93-1.57,3.5-3.5,3.5H7z"/>
			<path fill="#FFFFFF" d="M22,1l6,6v21c0,1.657-1.343,3-3,3H7c-1.657,0-3-1.343-3-3V4c0-1.657,1.343-3,3-3H22 M22.414,0H22H7
				C4.794,0,3,1.794,3,4v24c0,2.206,1.794,4,4,4h18c2.206,0,4-1.794,4-4V7V6.586l-0.293-0.293l-6-6L22.414,0L22.414,0z"/>
		</g>
	</g>
	<polygon fill="#B26602" points="22,1 22,7 28,7 	"/>
	<path fill="#B26602" d="M23,19.142H9c-0.276,0-0.5-0.224-0.5-0.5s0.224-0.5,0.5-0.5h14c0.276,0,0.5,0.224,0.5,0.5
		S23.276,19.142,23,19.142z"/>
	<path fill="#FFFFFF" d="M23,18.142H9c-0.276,0-0.5-0.224-0.5-0.5s0.224-0.5,0.5-0.5h14c0.276,0,0.5,0.224,0.5,0.5
		S23.276,18.142,23,18.142z"/>
	<path fill="#B26602" d="M11.997,26.622c-0.498,0-0.887-0.389-1.023-0.803c-0.229-0.689-0.04-1.41,0.127-2.045
		c0.066-0.25,0.13-0.49,0.163-0.708c-0.203,0.022-0.409,0.117-0.587,0.27c-0.422,0.364-0.633,0.925-0.855,1.519
		c-0.168,0.445-0.341,0.906-0.616,1.321c-0.154,0.232-0.466,0.292-0.693,0.141c-0.229-0.153-0.293-0.463-0.141-0.693
		c0.213-0.322,0.359-0.71,0.514-1.122c0.258-0.685,0.524-1.393,1.139-1.924c0.457-0.393,1.024-0.574,1.557-0.503
		c0.239,0.032,0.424,0.129,0.549,0.288c0.181,0.23,0.16,0.493,0.152,0.606c-0.027,0.353-0.122,0.712-0.213,1.06
		c-0.145,0.549-0.281,1.067-0.146,1.476c0.02,0.061,0.065,0.105,0.088,0.117c0-0.005,0.037-0.024,0.111-0.09
		c0.217-0.195,0.395-0.455,0.583-0.73c0.07-0.103,0.142-0.206,0.215-0.307c0.489-0.669,0.916-1.008,1.344-1.065
		c0.249-0.034,0.482,0.032,0.676,0.187c0.379,0.305,0.347,0.786,0.33,1.044c-0.001,0.016-0.002,0.031-0.002,0.044h7.348
		c0.276,0,0.5,0.224,0.5,0.5s-0.224,0.5-0.5,0.5l-7.81-0.037c-0.179-0.072-0.587-0.321-0.534-1.076
		c0.002-0.027,0.005-0.066,0.006-0.106c-0.107,0.077-0.29,0.243-0.55,0.598l-0.198,0.284c-0.213,0.311-0.433,0.632-0.738,0.908
		c-0.145,0.13-0.372,0.306-0.681,0.341C12.072,26.62,12.034,26.622,11.997,26.622z"/>
	<path fill="#FFFFFF" d="M11.998,25.664c-0.499,0-0.888-0.39-1.024-0.804c-0.229-0.689-0.04-1.41,0.127-2.045
		c0.066-0.25,0.13-0.49,0.163-0.708c-0.203,0.022-0.41,0.117-0.587,0.27c-0.422,0.364-0.632,0.925-0.855,1.518
		c-0.168,0.446-0.341,0.906-0.616,1.322c-0.154,0.231-0.466,0.292-0.693,0.141c-0.23-0.153-0.293-0.463-0.141-0.693
		c0.213-0.321,0.359-0.71,0.514-1.122c0.258-0.685,0.524-1.393,1.139-1.923c0.456-0.392,1.023-0.576,1.556-0.503
		c0.242,0.034,0.426,0.131,0.55,0.289c0.181,0.23,0.16,0.494,0.152,0.606c-0.027,0.352-0.122,0.711-0.213,1.059
		c-0.145,0.549-0.281,1.067-0.146,1.476c0.02,0.061,0.064,0.105,0.088,0.117c0.001-0.006,0.038-0.025,0.111-0.091
		c0.217-0.195,0.395-0.455,0.583-0.73c0.07-0.103,0.142-0.206,0.215-0.307c0.489-0.669,0.916-1.007,1.344-1.064
		c0.249-0.033,0.482,0.032,0.676,0.187c0.379,0.304,0.347,0.785,0.33,1.043c-0.001,0.016-0.002,0.031-0.002,0.044h7.348
		c0.276,0,0.5,0.224,0.5,0.5s-0.224,0.5-0.5,0.5l-7.81-0.037c-0.179-0.072-0.587-0.321-0.534-1.076
		c0.002-0.027,0.005-0.066,0.006-0.106c-0.107,0.077-0.29,0.243-0.55,0.598l-0.198,0.284c-0.213,0.311-0.433,0.632-0.738,0.908
		c-0.145,0.13-0.371,0.306-0.679,0.342C12.073,25.661,12.035,25.664,11.998,25.664z"/>
	<polygon fill="#B26602" points="10.662,6.623 11.589,7.769 13.014,7.387 13.089,8.859 14.467,9.387 13.662,10.623 14.467,11.859 
		13.089,12.386 13.014,13.859 11.589,13.476 10.662,14.623 9.735,13.476 8.311,13.859 8.235,12.386 6.858,11.859 7.662,10.623 
		6.858,9.387 8.235,8.859 8.311,7.387 9.735,7.769 	"/>
	<polygon fill="#FFFFFF" points="10.662,5.623 11.589,6.769 13.014,6.387 13.089,7.859 14.467,8.387 13.662,9.623 14.467,10.859 
		13.089,11.386 13.014,12.859 11.589,12.476 10.662,13.623 9.735,12.476 8.311,12.859 8.235,11.386 6.858,10.859 7.662,9.623 
		6.858,8.387 8.235,7.859 8.311,6.387 9.735,6.769 	"/>
</g>
<g id="Layer_5">
</g>
<g id="Layer_7">
</g>
</svg>
