<?xml version="1.0" encoding="utf-8"?>
<!-- Generator: Adobe Illustrator 19.2.1, SVG Export Plug-In . SVG Version: 6.00 Build 0)  -->
<svg version="1.1" id="Layer_1" xmlns="http://www.w3.org/2000/svg" xmlns:xlink="http://www.w3.org/1999/xlink" x="0px" y="0px"
	 viewBox="0 0 32 32" style="enable-background:new 0 0 32 32;" xml:space="preserve">
<style type="text/css">
	.st0{fill:#FFFFFF;}
	.st1{fill:#666666;}
	.st2{fill:#227247;}
</style>
<g id="Layer_2">
</g>
<g id="Layer_1_1_">
</g>
<g id="Layer_3">
	<g>
		<g>
			<path class="st0" d="M4.7,32c-2,0-4.7-2.5-4.7-5.2V5.2C0,2.5,2.5,1,5.2,1h21.6C29.5,1,31,2.5,31,5.2v21.6c0,2.7-1.5,5.2-4.2,5.2
				H4.7L4.7,32z"/>
			<path class="st1" d="M26.8,32H4.7C2.5,32,0,29.9,0,26.8V5.2C0,2.2,2.2,0,5.2,0h21.6c3,0,5.2,2.2,5.2,5.2v21.6
				C32,29.8,29.8,32,26.8,32z M5.2,1C2.8,1,1,2.8,1,5.2v21.6C1,29.3,3,31,4.7,31h22.1c2.4,0,4.2-1.8,4.2-4.2V5.2
				C31,2.8,29.2,1,26.8,1H5.2z"/>
		</g>
	</g>
	<g>
		<path class="st1" d="M23,22H9c-0.3,0-0.5-0.2-0.5-0.5S8.7,21,9,21h14c0.3,0,0.5,0.2,0.5,0.5C23.5,21.8,23.3,22,23,22z"/>
	</g>
	<g>
		<path class="st1" d="M23,27H9c-0.3,0-0.5-0.2-0.5-0.5S8.7,26,9,26h14c0.3,0,0.5,0.2,0.5,0.5S23.3,27,23,27z"/>
	</g>
	<path class="st2" d="M14.1,16.1l-4.6-4.6c-0.4-0.4-0.4-1.1,0-1.5c0.4-0.4,1.1-0.4,1.5,0l3.1,3.1l7-7c0.4-0.4,1.1-0.4,1.5,0
		c0.4,0.4,0.4,1.1,0,1.5L14.1,16.1z"/>
</g>
<g id="Layer_4">
</g>
<g id="Layer_5">
</g>
<g id="Layer_7">
</g>
</svg>
