<?xml version="1.0" encoding="utf-8"?>
<!-- Generator: Adobe Illustrator 19.1.0, SVG Export Plug-In . SVG Version: 6.00 Build 0)  -->
<svg version="1.1" xmlns="http://www.w3.org/2000/svg" xmlns:xlink="http://www.w3.org/1999/xlink" x="0px" y="0px"
	 viewBox="0 0 32 32" enable-background="new 0 0 32 32" xml:space="preserve">
<g id="Layer_2">
</g>
<g id="Layer_1">
	<path fill="#FFFFFF" d="M27.645,7.694h-5.266c-0.062-2.199-1.861-3.972-4.074-3.972h-4.956c-2.223,0-3.965,1.731-4.067,3.972H4.355
		c-1.654,0-3,1.346-3,3v14.583c0,1.654,1.346,3,3,3h23.289c1.654,0,3-1.346,3-3V10.694C30.645,9.04,29.299,7.694,27.645,7.694z"/>
	<g>
		<path fill="#004A70" d="M27.645,27.278H4.355c-1.1,0-2-0.9-2-2V10.694c0-1.1,0.9-2,2-2h23.29c1.1,0,2,0.9,2,2v14.583
			C29.645,26.378,28.745,27.278,27.645,27.278z"/>
		<path fill="#004A70" d="M12.263,10.656h-2v-2.76c0-1.789,1.385-3.173,3.086-3.173h4.956c1.701,0,3.086,1.385,3.086,3.086v2.619h-2
			V7.896c0-0.686-0.487-1.173-1.086-1.173h-4.956c-0.599,0-1.086,0.487-1.086,1.086V10.656z"/>
	</g>
</g>
<g id="Layer_3">
</g>
<g id="Layer_4">
</g>
<g id="Layer_5">
</g>
<g id="Layer_7">
</g>
</svg>
