<?xml version="1.0" encoding="utf-8"?>
<!-- Generator: Adobe Illustrator 19.1.0, SVG Export Plug-In . SVG Version: 6.00 Build 0)  -->
<svg version="1.1" xmlns="http://www.w3.org/2000/svg" xmlns:xlink="http://www.w3.org/1999/xlink" x="0px" y="0px"
	 viewBox="0 0 32 32" enable-background="new 0 0 32 32" xml:space="preserve">
<g id="Layer_2">
</g>
<g id="Layer_1">
</g>
<g id="Layer_3">
	<g id="metadata_1_">
		<circle fill="#FFFFFF" cx="15.843" cy="16" r="15.5"/>
		<path fill="#0071C5" d="M15.843,1.792C7.997,1.792,1.635,8.153,1.635,16s6.361,14.208,14.208,14.208S30.052,23.847,30.052,16
			S23.69,1.792,15.843,1.792L15.843,1.792z"/>
		<g>
			<circle fill="#FFFFFF" cx="15.843" cy="9.542" r="1.292"/>
			<path fill="#FFFFFF" d="M17.135,13.417v9.042c0,0.713-0.579,1.292-1.292,1.292l0,0c-0.713,0-1.292-0.579-1.292-1.292v-9.042
				c0-0.713,0.579-1.292,1.292-1.292l0,0C16.556,12.125,17.135,12.704,17.135,13.417z"/>
		</g>
	</g>
</g>
<g id="Layer_4">
</g>
<g id="Layer_5">
</g>
<g id="Layer_7">
</g>
</svg>
