<?xml version="1.0" encoding="utf-8"?>
<!-- Generator: Adobe Illustrator 19.1.0, SVG Export Plug-In . SVG Version: 6.00 Build 0)  -->
<svg version="1.1" xmlns="http://www.w3.org/2000/svg" xmlns:xlink="http://www.w3.org/1999/xlink" x="0px" y="0px"
	 viewBox="0 0 32 32" enable-background="new 0 0 32 32" xml:space="preserve">
<g id="Layer_2">
</g>
<g id="Layer_1">
</g>
<g id="Layer_3">
	<g>
		<path fill="#00A389" d="M29.138,26.314c-0.089-1.282-0.15-1.946-0.591-3.438c-0.316-1.07-1.054-1.858-2.255-2.41
			c-1.025-0.471-2.254-0.706-3.338-0.913c-0.897-0.172-1.744-0.333-2.336-0.599c-0.324-0.145-0.606-0.36-0.839-0.638
			c-0.128-0.153-0.244-0.33-0.346-0.526c0.517-0.424,0.965-0.937,1.342-1.536c0.518-0.824,0.899-1.809,1.14-2.944
			c0.247-0.07,0.488-0.261,0.692-0.548c0.226-0.32,0.396-0.748,0.478-1.205c0.12-0.665,0.045-1.301-0.199-1.722
			c0.022-0.087,0.042-0.175,0.061-0.267c0.114-0.571,0.151-1.231,0.113-1.965c-0.066-1.241-0.325-2.248-0.335-2.289
			c-0.267-1.062-1.063-2.128-2.185-2.925C19.646,1.756,18.135,1,16.006,1s-3.641,0.756-4.534,1.391
			C10.35,3.187,9.554,4.252,9.287,5.314C9.273,5.369,9.014,6.372,8.946,7.605C8.906,8.338,8.943,8.999,9.056,9.57
			C9.073,9.659,9.093,9.745,9.114,9.83c-0.247,0.421-0.323,1.059-0.203,1.728c0.083,0.459,0.253,0.888,0.481,1.209
			c0.205,0.288,0.447,0.478,0.695,0.547c0.242,1.134,0.623,2.119,1.141,2.943c0.378,0.601,0.827,1.115,1.347,1.54
			c-0.101,0.194-0.216,0.369-0.343,0.521c-0.233,0.278-0.515,0.493-0.839,0.638c-0.592,0.266-1.439,0.428-2.336,0.599
			c-1.084,0.207-2.313,0.442-3.338,0.913c-1.201,0.551-1.938,1.34-2.255,2.41c-0.435,1.473-0.5,2.139-0.587,3.39
			c-0.047,0.201-0.077,0.408-0.077,0.622v1.329c0,0.02,0.005,0.038,0.006,0.057C2.838,29.778,4.072,31,5.583,31h20.834
			c1.53,0,2.782-1.252,2.782-2.782V27.19v-0.301C29.199,26.692,29.177,26.5,29.138,26.314z"/>
		<path fill="#FFFFFF" d="M26.417,31.5H5.583c-1.77,0-3.239-1.441-3.276-3.214l-0.006-1.397c0-0.233,0.029-0.473,0.089-0.733
			c0.074-1.163,0.141-1.882,0.596-3.421c0.358-1.216,1.185-2.106,2.524-2.723c1.085-0.497,2.344-0.737,3.454-0.949
			c0.871-0.167,1.688-0.323,2.225-0.564c0.255-0.114,0.477-0.284,0.659-0.502c0.027-0.033,0.055-0.067,0.08-0.104
			c-0.424-0.398-0.801-0.858-1.123-1.371c-0.508-0.809-0.894-1.766-1.148-2.848c-0.248-0.133-0.477-0.343-0.672-0.618
			c-0.269-0.38-0.47-0.881-0.565-1.41c-0.125-0.698-0.064-1.369,0.167-1.88C8.578,9.733,8.571,9.7,8.565,9.667
			c-0.121-0.609-0.161-1.312-0.118-2.09c0.071-1.315,0.354-2.382,0.356-2.392c0.293-1.168,1.161-2.338,2.379-3.202
			C12.135,1.307,13.744,0.5,16.006,0.5s3.871,0.807,4.824,1.483c1.217,0.864,2.084,2.034,2.38,3.21c0,0.003,0.279,1.073,0.35,2.384
			c0.041,0.775-0.001,1.478-0.122,2.089c-0.007,0.036-0.015,0.071-0.022,0.106c0.229,0.511,0.288,1.18,0.163,1.873
			c-0.095,0.526-0.295,1.026-0.562,1.405c-0.194,0.275-0.421,0.485-0.668,0.619c-0.256,1.086-0.643,2.044-1.149,2.851
			c-0.321,0.512-0.696,0.971-1.119,1.368c0.027,0.037,0.056,0.073,0.084,0.107c0.184,0.219,0.405,0.388,0.66,0.502
			c0.537,0.241,1.354,0.397,2.218,0.563c1.117,0.213,2.376,0.453,3.459,0.95c1.341,0.615,2.167,1.506,2.526,2.723
			c0.452,1.531,0.519,2.229,0.607,3.513c0.044,0.216,0.065,0.432,0.065,0.642v1.329C29.699,30.027,28.227,31.5,26.417,31.5z
			 M16.006,1.5c-1.998,0-3.411,0.706-4.244,1.298c-1.026,0.729-1.752,1.69-1.989,2.639C9.768,5.453,9.511,6.438,9.445,7.632
			C9.407,8.326,9.441,8.945,9.546,9.473C9.562,9.554,9.58,9.631,9.599,9.707l0.051,0.199l-0.104,0.177
			c-0.186,0.314-0.239,0.846-0.143,1.386c0.07,0.388,0.211,0.746,0.397,1.009c0.133,0.188,0.285,0.315,0.42,0.353l0.293,0.081
			l0.063,0.298c0.228,1.072,0.59,2.008,1.075,2.781c0.345,0.55,0.763,1.027,1.24,1.419l0.314,0.259l-0.189,0.36
			c-0.118,0.225-0.253,0.43-0.402,0.608c-0.28,0.336-0.622,0.596-1.017,0.773c-0.644,0.289-1.517,0.456-2.439,0.633
			C8.097,20.246,6.9,20.475,5.927,20.92c-1.062,0.488-1.71,1.175-1.982,2.098c-0.426,1.442-0.485,2.083-0.568,3.283
			c-0.055,0.264-0.075,0.431-0.075,0.588v1.329C3.332,29.497,4.354,30.5,5.583,30.5h20.834c1.259,0,2.282-1.023,2.282-2.282v-1.329
			c0-0.152-0.017-0.312-0.051-0.472l-0.01-0.068c-0.087-1.264-0.145-1.884-0.571-3.331c-0.276-0.937-0.907-1.603-1.984-2.098
			c-0.973-0.445-2.168-0.674-3.223-0.875c-0.931-0.179-1.804-0.346-2.447-0.635c-0.393-0.176-0.735-0.437-1.017-0.772
			c-0.149-0.179-0.286-0.386-0.406-0.616l-0.188-0.36l0.315-0.258c0.474-0.389,0.89-0.864,1.234-1.415
			c0.484-0.77,0.846-1.705,1.075-2.782l0.063-0.294l0.289-0.082c0.134-0.039,0.287-0.168,0.42-0.356
			c0.186-0.263,0.325-0.619,0.395-1.005c0.097-0.537,0.043-1.066-0.14-1.384l-0.103-0.177l0.051-0.198
			c0.021-0.078,0.038-0.158,0.055-0.24c0.105-0.528,0.141-1.148,0.104-1.84c-0.064-1.192-0.317-2.176-0.32-2.186
			c-0.239-0.956-0.965-1.918-1.99-2.646C19.417,2.206,18.004,1.5,16.006,1.5z"/>
	</g>
</g>
<g id="Layer_4">
</g>
<g id="Layer_5">
</g>
<g id="Layer_7">
</g>
</svg>
