<?xml version="1.0" encoding="utf-8"?>
<!-- Generator: Adobe Illustrator 19.1.0, SVG Export Plug-In . SVG Version: 6.00 Build 0)  -->
<svg version="1.1" xmlns="http://www.w3.org/2000/svg" xmlns:xlink="http://www.w3.org/1999/xlink" x="0px" y="0px"
	 viewBox="0 0 32 32" enable-background="new 0 0 32 32" xml:space="preserve">
<g id="Layer_2">
</g>
<g id="Layer_1">
	<g>
		<rect x="4.917" y="8.213" fill="#FFFFFF" width="21.667" height="20.333"/>
		<g>
			<g>
				<path fill="#FFFFFF" d="M16,29.111c-0.382,0-0.691-0.309-0.691-0.691V10.98c0-0.382,0.309-0.691,0.691-0.691
					s0.691,0.309,0.691,0.691v17.44C16.691,28.802,16.382,29.111,16,29.111z"/>
				<path fill="#FFFFFF" d="M16,30.111c-0.932,0-1.69-0.759-1.69-1.69V10.98c0-0.932,0.759-1.69,1.69-1.69s1.69,0.759,1.69,1.69
					v17.44C17.69,29.352,16.932,30.111,16,30.111z"/>
			</g>
			<g>
				<path fill="#FFFFFF" d="M27.208,29.13H4.853V10.971c0-0.382,0.309-0.691,0.691-0.691c0.382,0,0.691,0.309,0.691,0.691v16.778
					h19.592V10.971c0-0.382,0.309-0.691,0.691-0.691s0.691,0.309,0.691,0.691V29.13z"/>
				<path fill="#FFFFFF" d="M28.208,30.13H3.853V10.97c0-0.932,0.759-1.69,1.691-1.69c0.932,0,1.69,0.759,1.69,1.69v15.778h17.592
					V10.97c0-0.932,0.759-1.69,1.69-1.69c0.933,0,1.691,0.759,1.691,1.69V30.13z"/>
			</g>
			<g>
				<path fill="#FFFFFF" d="M24.829,2.87H6.178C6.085,2.968,5.959,3.099,5.8,3.258L1.542,7.555v2.703
					c0.001,0.733,0.598,1.329,1.33,1.329c0.603,0,1.132-0.406,1.284-0.989c0.162-0.615,0.701-1.028,1.341-1.028h0.001
					c0.639,0,1.178,0.414,1.338,1.028c0.154,0.581,0.683,0.989,1.286,0.989s1.132-0.407,1.286-0.989
					c0.162-0.615,0.701-1.028,1.341-1.028h0.001c0.639,0,1.178,0.414,1.338,1.028c0.154,0.581,0.683,0.989,1.286,0.989
					c0.603,0,1.132-0.407,1.286-0.989c0.161-0.614,0.699-1.028,1.338-1.028H16c0.639,0,1.179,0.413,1.341,1.027
					c0.152,0.584,0.681,0.99,1.286,0.99c0.603,0,1.132-0.406,1.284-0.989c0.162-0.615,0.701-1.028,1.341-1.028
					c0.638,0,1.178,0.413,1.34,1.027c0.154,0.583,0.683,0.99,1.286,0.99c0.603,0,1.132-0.407,1.286-0.989
					c0.162-0.615,0.701-1.028,1.341-1.028c0.638,0,1.178,0.413,1.34,1.027c0.154,0.583,0.683,0.99,1.286,0.99
					c0.733,0,1.329-0.596,1.329-1.329V7.697L25.2,3.171C25.045,3.043,24.921,2.941,24.829,2.87z"/>
				<path fill="#FFFFFF" d="M29.129,12.588c-1.057,0-1.982-0.713-2.253-1.734c-0.092-0.351-0.655-0.347-0.745-0.002
					c-0.271,1.023-1.198,1.736-2.254,1.736c-1.058,0-1.983-0.714-2.252-1.736c-0.092-0.346-0.656-0.346-0.746,0
					c-0.268,1.022-1.193,1.736-2.252,1.736c-1.06,0-1.987-0.715-2.254-1.738c-0.09-0.342-0.654-0.345-0.746,0.003
					c-0.269,1.022-1.195,1.735-2.252,1.735c-1.056,0-1.982-0.713-2.253-1.733c-0.092-0.354-0.655-0.347-0.747-0.001
					c-0.269,1.021-1.195,1.734-2.252,1.734c-1.056,0-1.982-0.713-2.253-1.733c-0.093-0.354-0.655-0.347-0.745-0.003
					c-0.27,1.022-1.195,1.736-2.253,1.736c-1.281,0-2.326-1.044-2.33-2.326V7.144l4.548-4.59c0.153-0.153,0.271-0.276,0.359-0.37
					L5.745,1.87h19.427l0.271,0.21c0.098,0.076,0.229,0.184,0.394,0.319l5.622,4.839v3.021
					C31.458,11.543,30.413,12.588,29.129,12.588z M26.504,8.571c1.102,0,2.028,0.712,2.306,1.772
					c0.038,0.143,0.17,0.244,0.319,0.244c0.182,0,0.329-0.147,0.329-0.329V8.156l-4.91-4.228c-0.024-0.02-0.048-0.039-0.071-0.059
					H6.603C6.571,3.9,6.54,3.932,6.507,3.966L2.542,7.967v2.292c0,0.329,0.564,0.401,0.648,0.086
					c0.277-1.061,1.205-1.773,2.308-1.773s2.029,0.713,2.307,1.774c0.074,0.283,0.561,0.285,0.637-0.002
					c0.279-1.061,1.207-1.772,2.309-1.772c1.103,0,2.029,0.713,2.307,1.774c0.074,0.283,0.561,0.285,0.637-0.002
					c0.278-1.06,1.205-1.772,2.306-1.772c1.102,0,2.029,0.712,2.309,1.771c0.076,0.29,0.562,0.289,0.636,0.003
					c0.278-1.062,1.206-1.774,2.309-1.774c1.101,0,2.027,0.712,2.307,1.771c0.076,0.289,0.562,0.289,0.638,0
					C24.474,9.284,25.401,8.571,26.504,8.571z"/>
			</g>
		</g>
		<g>
			<path fill="#9370B1" d="M16,29.111c-0.382,0-0.691-0.309-0.691-0.691V10.98c0-0.382,0.309-0.691,0.691-0.691
				s0.691,0.309,0.691,0.691v17.44C16.691,28.802,16.382,29.111,16,29.111z"/>
			<path fill="#9370B1" d="M27.208,29.13H4.853V10.971c0-0.382,0.309-0.691,0.691-0.691c0.382,0,0.691,0.309,0.691,0.691v16.778
				h19.592V10.971c0-0.382,0.309-0.691,0.691-0.691s0.691,0.309,0.691,0.691V29.13z"/>
			<path fill="#9370B1" d="M24.829,2.87H6.178C6.085,2.968,5.959,3.099,5.8,3.258L1.542,7.555v2.703
				c0.001,0.733,0.598,1.329,1.33,1.329c0.603,0,1.132-0.406,1.284-0.989c0.162-0.615,0.701-1.028,1.341-1.028h0.001
				c0.639,0,1.178,0.414,1.338,1.028c0.154,0.581,0.683,0.989,1.286,0.989s1.132-0.407,1.286-0.989
				c0.162-0.615,0.701-1.028,1.341-1.028h0.001c0.639,0,1.178,0.414,1.338,1.028c0.154,0.581,0.683,0.989,1.286,0.989
				c0.603,0,1.132-0.407,1.286-0.989c0.161-0.614,0.699-1.028,1.338-1.028H16c0.639,0,1.179,0.413,1.341,1.027
				c0.152,0.584,0.681,0.99,1.286,0.99c0.603,0,1.132-0.406,1.284-0.989c0.162-0.615,0.701-1.028,1.341-1.028
				c0.638,0,1.178,0.413,1.34,1.027c0.154,0.583,0.683,0.99,1.286,0.99c0.603,0,1.132-0.407,1.286-0.989
				c0.162-0.615,0.701-1.028,1.341-1.028c0.638,0,1.178,0.413,1.34,1.027c0.154,0.583,0.683,0.99,1.286,0.99
				c0.733,0,1.329-0.596,1.329-1.329V7.697L25.2,3.171C25.045,3.043,24.921,2.941,24.829,2.87z"/>
		</g>
	</g>
</g>
<g id="Layer_3">
</g>
<g id="Layer_4">
</g>
<g id="Layer_5">
</g>
<g id="Layer_7">
</g>
</svg>
