<?xml version="1.0" encoding="utf-8"?>
<!-- Generator: Adobe Illustrator 19.1.0, SVG Export Plug-In . SVG Version: 6.00 Build 0)  -->
<svg version="1.1" xmlns="http://www.w3.org/2000/svg" xmlns:xlink="http://www.w3.org/1999/xlink" x="0px" y="0px"
	 viewBox="0 0 32 32" enable-background="new 0 0 32 32" xml:space="preserve">
<g id="Layer_2">
</g>
<g id="Layer_1">
</g>
<g id="Layer_3">
	<g>
		<g>
			<path fill="#BEA9D0" d="M31.243,19.247c-0.063-0.903-0.106-1.371-0.416-2.422c-0.223-0.754-0.742-1.309-1.588-1.698
				c-0.722-0.332-1.588-0.497-2.352-0.643c-0.632-0.121-1.229-0.235-1.646-0.422c-0.228-0.102-0.427-0.254-0.591-0.45
				c-0.09-0.108-0.172-0.232-0.244-0.37c0.364-0.299,0.68-0.66,0.945-1.082c0.365-0.58,0.633-1.275,0.803-2.074
				c0.174-0.05,0.344-0.184,0.487-0.386c0.159-0.226,0.279-0.527,0.337-0.849c0.084-0.469,0.032-0.916-0.14-1.213
				c0.016-0.061,0.03-0.124,0.043-0.188c0.08-0.402,0.107-0.868,0.079-1.384c-0.046-0.874-0.229-1.584-0.236-1.613
				c-0.188-0.748-0.749-1.499-1.539-2.061c-0.629-0.447-1.695-0.98-3.194-0.98s-2.565,0.533-3.194,0.98
				c-0.79,0.561-1.351,1.312-1.539,2.06c-0.01,0.038-0.192,0.745-0.24,1.614c-0.028,0.517-0.002,0.983,0.077,1.385
				c0.012,0.062,0.026,0.123,0.041,0.183c-0.174,0.297-0.228,0.746-0.143,1.217c0.058,0.323,0.179,0.626,0.339,0.852
				c0.144,0.203,0.315,0.337,0.49,0.385c0.17,0.799,0.439,1.493,0.804,2.073c0.266,0.423,0.583,0.785,0.949,1.085
				c-0.071,0.137-0.152,0.26-0.242,0.367c-0.164,0.196-0.363,0.347-0.591,0.45c-0.417,0.187-1.014,0.301-1.646,0.422
				c-0.764,0.146-1.63,0.312-2.352,0.643c-0.846,0.389-1.366,0.944-1.588,1.698c-0.307,1.038-0.352,1.507-0.414,2.389
				c-0.033,0.142-0.054,0.287-0.054,0.439v0.936c0,0.014,0.004,0.027,0.004,0.04c0.022,1.059,0.892,1.92,1.956,1.92h14.679
				c1.078,0,1.96-0.882,1.96-1.96v-0.724v-0.212C31.287,19.513,31.271,19.378,31.243,19.247z"/>
			<path fill="#FFFFFF" d="M29.327,23.049H14.648c-1.326,0-2.429-1.081-2.457-2.409l-0.004-0.987c0-0.177,0.022-0.357,0.068-0.553
				c0.048-0.804,0.095-1.316,0.42-2.416c0.263-0.889,0.889-1.565,1.86-2.011c0.779-0.358,1.676-0.529,2.466-0.68
				c0.605-0.116,1.173-0.225,1.536-0.387c0.144-0.065,0.272-0.159,0.381-0.279c-0.268-0.267-0.508-0.567-0.717-0.9
				c-0.355-0.565-0.629-1.233-0.812-1.988c-0.172-0.104-0.329-0.256-0.465-0.446c-0.203-0.286-0.354-0.66-0.424-1.054
				c-0.09-0.501-0.05-0.986,0.108-1.367L16.604,7.55c-0.088-0.446-0.116-0.954-0.086-1.512c0.048-0.868,0.221-1.576,0.255-1.709
				c0.217-0.861,0.849-1.717,1.734-2.345c0.688-0.489,1.853-1.072,3.483-1.072c1.633,0,2.796,0.584,3.484,1.073
				c0.885,0.627,1.518,1.482,1.735,2.346l0,0c0,0,0.199,0.761,0.25,1.708c0.029,0.557,0,1.064-0.089,1.508
				c-0.002,0.011-0.004,0.021-0.006,0.031c0.156,0.38,0.195,0.863,0.106,1.36c-0.072,0.396-0.222,0.768-0.423,1.05
				c-0.133,0.19-0.29,0.342-0.461,0.447c-0.184,0.754-0.457,1.422-0.812,1.99c-0.209,0.332-0.448,0.633-0.715,0.897
				c0.109,0.123,0.238,0.218,0.385,0.283c0.362,0.162,0.931,0.271,1.533,0.387c0.751,0.143,1.686,0.32,2.469,0.681
				c0.971,0.444,1.596,1.121,1.858,2.01c0.321,1.089,0.37,1.587,0.433,2.495c0.032,0.157,0.048,0.316,0.048,0.474v0.937
				C31.787,21.945,30.683,23.049,29.327,23.049z M21.991,1.912c-1.367,0-2.334,0.483-2.905,0.888
				c-0.693,0.493-1.184,1.14-1.344,1.774c-0.019,0.075-0.182,0.729-0.226,1.519c-0.025,0.475-0.003,0.898,0.068,1.261l0.085,0.358
				l-0.104,0.175c-0.088,0.151-0.156,0.46-0.081,0.875c0.044,0.249,0.137,0.485,0.254,0.651c0.088,0.122,0.17,0.18,0.218,0.193
				l0.291,0.081l0.063,0.296c0.157,0.741,0.405,1.384,0.737,1.911c0.236,0.376,0.52,0.701,0.842,0.965l0.314,0.258l-0.188,0.36
				c-0.088,0.168-0.189,0.321-0.301,0.455c-0.213,0.255-0.472,0.451-0.77,0.586c-0.47,0.21-1.093,0.329-1.752,0.456
				c-0.74,0.141-1.572,0.3-2.242,0.607c-0.718,0.329-1.137,0.769-1.318,1.385c-0.296,1.001-0.336,1.446-0.394,2.281
				c-0.04,0.199-0.054,0.305-0.054,0.404v0.937c0.021,0.818,0.674,1.46,1.461,1.46h14.679c0.805,0,1.46-0.655,1.46-1.46v-0.937
				c0-0.099-0.011-0.199-0.032-0.3l-0.011-0.071c-0.061-0.879-0.1-1.311-0.396-2.314c-0.182-0.616-0.601-1.056-1.316-1.385
				c-0.673-0.309-1.505-0.467-2.238-0.606c-0.662-0.127-1.286-0.247-1.756-0.457c-0.298-0.134-0.557-0.33-0.771-0.586
				c-0.113-0.135-0.215-0.29-0.304-0.461l-0.186-0.359l0.312-0.257c0.321-0.263,0.604-0.587,0.84-0.962
				c0.331-0.528,0.579-1.172,0.736-1.912l0.062-0.293l0.289-0.083c0.049-0.014,0.131-0.072,0.216-0.193
				c0.117-0.165,0.21-0.402,0.255-0.651c0.074-0.411,0.007-0.721-0.081-0.872l-0.103-0.177l0.087-0.359
				c0.072-0.363,0.096-0.787,0.071-1.261c-0.045-0.827-0.219-1.502-0.22-1.509c-0.162-0.644-0.652-1.29-1.347-1.782
				C24.326,2.394,23.36,1.912,21.991,1.912z"/>
		</g>
		<g>
			<path fill="#BEA9D0" d="M19.269,19.247c-0.063-0.903-0.106-1.371-0.416-2.422c-0.223-0.754-0.742-1.309-1.588-1.698
				c-0.722-0.332-1.588-0.497-2.352-0.643c-0.632-0.121-1.229-0.235-1.646-0.422c-0.228-0.102-0.427-0.254-0.591-0.45
				c-0.09-0.108-0.172-0.232-0.244-0.37c0.364-0.299,0.68-0.66,0.945-1.082c0.365-0.58,0.633-1.275,0.803-2.074
				c0.174-0.05,0.344-0.184,0.487-0.386c0.159-0.226,0.279-0.527,0.337-0.849c0.084-0.469,0.032-0.916-0.14-1.213
				c0.016-0.061,0.03-0.124,0.043-0.188c0.08-0.402,0.107-0.868,0.079-1.384c-0.046-0.874-0.229-1.584-0.236-1.613
				c-0.188-0.748-0.749-1.499-1.539-2.061c-0.629-0.447-1.695-0.98-3.194-0.98s-2.565,0.533-3.194,0.98
				c-0.79,0.561-1.351,1.312-1.539,2.06c-0.01,0.038-0.192,0.745-0.24,1.614C5.015,6.582,5.041,7.048,5.12,7.45
				c0.012,0.062,0.026,0.123,0.041,0.183C4.987,7.93,4.934,8.379,5.018,8.85c0.058,0.323,0.179,0.626,0.339,0.852
				c0.144,0.203,0.315,0.337,0.49,0.385c0.17,0.799,0.439,1.493,0.804,2.073c0.266,0.423,0.583,0.785,0.949,1.085
				c-0.071,0.137-0.152,0.26-0.242,0.367c-0.164,0.196-0.363,0.347-0.591,0.45c-0.417,0.187-1.014,0.301-1.646,0.422
				c-0.764,0.146-1.63,0.312-2.352,0.643c-0.846,0.389-1.366,0.944-1.588,1.698c-0.307,1.038-0.352,1.507-0.414,2.389
				c-0.033,0.142-0.054,0.287-0.054,0.439v0.936c0,0.014,0.004,0.027,0.004,0.04c0.022,1.059,0.892,1.92,1.956,1.92h14.679
				c1.078,0,1.96-0.882,1.96-1.96v-0.724v-0.212C19.312,19.513,19.297,19.378,19.269,19.247z"/>
			<path fill="#FFFFFF" d="M17.352,23.049H2.674c-1.327,0-2.429-1.081-2.456-2.41l-0.005-0.986c0-0.177,0.022-0.357,0.068-0.553
				c0.05-0.806,0.097-1.318,0.42-2.416c0.263-0.889,0.888-1.564,1.86-2.01c0.779-0.359,1.676-0.53,2.466-0.681
				c0.605-0.116,1.173-0.225,1.536-0.387c0.144-0.065,0.272-0.159,0.381-0.279c-0.268-0.267-0.508-0.568-0.717-0.9
				c-0.355-0.565-0.629-1.233-0.812-1.988c-0.172-0.104-0.329-0.256-0.465-0.446C4.748,9.708,4.597,9.335,4.526,8.939
				c-0.09-0.501-0.05-0.987,0.108-1.368L4.63,7.55C4.542,7.103,4.513,6.595,4.544,6.038C4.592,5.17,4.764,4.462,4.799,4.329
				c0.217-0.861,0.849-1.717,1.734-2.345c0.688-0.489,1.853-1.072,3.483-1.072c1.632,0,2.796,0.583,3.484,1.073
				c0.886,0.628,1.518,1.482,1.735,2.346l0,0c0,0,0.201,0.766,0.25,1.708c0.029,0.557,0,1.064-0.089,1.508
				c-0.002,0.011-0.004,0.021-0.006,0.031c0.156,0.38,0.195,0.863,0.106,1.36c-0.072,0.395-0.221,0.767-0.421,1.049
				c-0.135,0.191-0.292,0.343-0.463,0.448c-0.184,0.754-0.457,1.422-0.812,1.99c-0.209,0.332-0.448,0.633-0.715,0.897
				c0.109,0.122,0.238,0.218,0.385,0.283c0.363,0.162,0.933,0.271,1.535,0.387c0.789,0.15,1.685,0.321,2.467,0.681
				c0.971,0.444,1.596,1.121,1.858,2.01c0.321,1.088,0.37,1.585,0.434,2.496c0.031,0.158,0.047,0.317,0.047,0.473v0.937
				C19.812,21.945,18.709,23.049,17.352,23.049z M10.016,1.912c-1.367,0-2.334,0.483-2.905,0.888
				c-0.693,0.493-1.184,1.14-1.344,1.774C5.749,4.649,5.586,5.302,5.542,6.092C5.516,6.567,5.539,6.991,5.61,7.353l0.085,0.358
				L5.592,7.886c-0.088,0.151-0.156,0.46-0.081,0.875C5.555,9.01,5.648,9.249,5.764,9.413c0.088,0.122,0.17,0.18,0.218,0.193
				l0.291,0.081l0.063,0.296c0.157,0.741,0.405,1.384,0.737,1.911c0.235,0.375,0.519,0.699,0.843,0.965l0.313,0.258l-0.188,0.36
				c-0.088,0.168-0.189,0.321-0.301,0.455c-0.213,0.255-0.472,0.451-0.77,0.586c-0.47,0.21-1.093,0.329-1.752,0.456
				c-0.74,0.141-1.572,0.3-2.242,0.607c-0.718,0.329-1.137,0.77-1.318,1.385c-0.294,0.999-0.335,1.445-0.394,2.282
				c-0.04,0.198-0.054,0.304-0.054,0.403v0.937c0.021,0.818,0.674,1.46,1.461,1.46h14.679c0.805,0,1.46-0.655,1.46-1.46v-0.937
				c0-0.099-0.011-0.2-0.032-0.303l-0.01-0.067c-0.062-0.881-0.102-1.312-0.397-2.315c-0.182-0.616-0.601-1.056-1.316-1.385
				c-0.672-0.309-1.504-0.467-2.237-0.606c-0.662-0.127-1.286-0.246-1.757-0.457c-0.299-0.135-0.558-0.331-0.771-0.586
				c-0.113-0.135-0.215-0.29-0.304-0.461l-0.186-0.359l0.312-0.257c0.321-0.263,0.604-0.587,0.84-0.962
				c0.331-0.528,0.579-1.172,0.736-1.912l0.062-0.293l0.289-0.083c0.049-0.014,0.131-0.072,0.218-0.194
				c0.115-0.164,0.208-0.401,0.253-0.65c0.074-0.411,0.007-0.721-0.081-0.872L14.33,7.712l0.087-0.359
				c0.072-0.363,0.096-0.787,0.071-1.261c-0.044-0.826-0.218-1.501-0.22-1.508c-0.162-0.645-0.652-1.291-1.346-1.783
				C12.351,2.395,11.385,1.912,10.016,1.912z"/>
		</g>
		<g>
			<path fill="#735796" d="M26.81,26.74c-0.073-1.053-0.123-1.598-0.485-2.823c-0.26-0.879-0.865-1.526-1.851-1.979
				c-0.842-0.386-1.851-0.579-2.741-0.75c-0.737-0.141-1.432-0.274-1.918-0.492c-0.266-0.119-0.498-0.296-0.689-0.524
				c-0.105-0.126-0.2-0.271-0.284-0.432c0.425-0.349,0.793-0.769,1.102-1.261c0.425-0.676,0.738-1.486,0.936-2.417
				c0.203-0.058,0.401-0.214,0.568-0.45c0.186-0.263,0.325-0.614,0.393-0.989c0.098-0.546,0.037-1.068-0.164-1.414
				c0.018-0.071,0.035-0.144,0.05-0.219c0.093-0.468,0.124-1.011,0.093-1.613c-0.054-1.019-0.267-1.846-0.275-1.879
				c-0.219-0.872-0.873-1.747-1.794-2.402c-0.734-0.521-1.975-1.142-3.723-1.142s-2.99,0.621-3.723,1.142
				c-0.921,0.654-1.575,1.529-1.794,2.401c-0.012,0.045-0.224,0.868-0.28,1.881c-0.033,0.602-0.003,1.145,0.09,1.614
				c0.014,0.073,0.03,0.144,0.048,0.213c-0.203,0.346-0.265,0.869-0.166,1.419c0.068,0.377,0.208,0.729,0.395,0.993
				c0.168,0.237,0.367,0.392,0.571,0.449c0.199,0.931,0.512,1.74,0.937,2.416c0.31,0.494,0.679,0.915,1.106,1.265
				c-0.083,0.159-0.178,0.303-0.282,0.428c-0.191,0.228-0.423,0.405-0.689,0.524c-0.486,0.218-1.182,0.351-1.918,0.492
				c-0.89,0.17-1.899,0.363-2.741,0.75c-0.986,0.453-1.592,1.1-1.851,1.979c-0.357,1.21-0.411,1.757-0.482,2.784
				c-0.038,0.165-0.063,0.335-0.063,0.511v1.091c0,0.016,0.004,0.031,0.005,0.047c0.026,1.235,1.04,2.238,2.28,2.238h17.108
				c1.257,0,2.285-1.028,2.285-2.285v-0.844v-0.247C26.861,27.05,26.842,26.892,26.81,26.74z"/>
			<path fill="#FFFFFF" d="M24.576,31.088H7.468c-1.501,0-2.748-1.224-2.78-2.727l-0.005-1.149c0-0.197,0.025-0.4,0.076-0.623
				c0.06-0.946,0.114-1.541,0.49-2.813c0.298-1.011,1.012-1.782,2.121-2.291c0.899-0.413,1.939-0.611,2.856-0.787
				c0.707-0.135,1.374-0.262,1.808-0.457c0.196-0.088,0.368-0.219,0.511-0.389c0.004-0.006,0.009-0.012,0.014-0.018
				c-0.329-0.318-0.624-0.683-0.878-1.087c-0.416-0.662-0.733-1.443-0.946-2.327c-0.201-0.116-0.387-0.291-0.546-0.515
				c-0.229-0.324-0.399-0.749-0.479-1.195c-0.104-0.577-0.057-1.136,0.131-1.569c-0.004-0.017-0.007-0.034-0.011-0.053
				c-0.102-0.51-0.135-1.095-0.099-1.738c0.061-1.109,0.296-1.981,0.298-1.989c0.243-0.971,0.969-1.95,1.985-2.673
				c0.794-0.563,2.134-1.234,4.013-1.234c1.88,0,3.22,0.671,4.013,1.233c1.018,0.724,1.743,1.703,1.99,2.688
				c0.022,0.091,0.234,0.938,0.289,1.976c0.035,0.643,0,1.228-0.102,1.737c-0.004,0.021-0.008,0.041-0.013,0.061
				c0.186,0.433,0.232,0.989,0.129,1.563c-0.08,0.445-0.249,0.867-0.477,1.188c-0.157,0.225-0.342,0.399-0.544,0.517
				c-0.212,0.884-0.529,1.666-0.945,2.329c-0.255,0.404-0.548,0.768-0.875,1.086c0.006,0.007,0.012,0.014,0.018,0.021
				c0.142,0.17,0.312,0.301,0.509,0.389c0.433,0.194,1.099,0.321,1.805,0.457c0.92,0.175,1.959,0.373,2.859,0.787
				c1.124,0.516,1.818,1.265,2.122,2.291c0.373,1.266,0.429,1.841,0.502,2.897c0.036,0.179,0.054,0.359,0.054,0.539v1.091
				C27.36,29.839,26.111,31.088,24.576,31.088z M16.026,6.453c-1.615,0-2.759,0.57-3.434,1.05c-0.825,0.586-1.408,1.357-1.598,2.115
				c-0.006,0.02-0.213,0.814-0.267,1.786c-0.03,0.561-0.004,1.062,0.081,1.488l0.093,0.388l-0.104,0.177
				c-0.141,0.241-0.182,0.653-0.104,1.076c0.054,0.302,0.167,0.59,0.311,0.793c0.096,0.136,0.207,0.231,0.297,0.257l0.292,0.081
				l0.063,0.296c0.186,0.872,0.479,1.631,0.87,2.255c0.28,0.444,0.617,0.829,1,1.144l0.313,0.258l-0.188,0.36
				c-0.101,0.192-0.215,0.366-0.341,0.517c-0.24,0.287-0.532,0.509-0.867,0.659c-0.541,0.243-1.265,0.381-2.03,0.527
				c-0.861,0.164-1.838,0.351-2.626,0.713c-0.859,0.395-1.361,0.924-1.58,1.666c-0.347,1.175-0.396,1.698-0.463,2.677
				c-0.046,0.226-0.062,0.356-0.062,0.477v1.091c0.025,1.001,0.824,1.785,1.785,1.785h17.108c0.983,0,1.784-0.801,1.784-1.785
				v-1.091c0-0.122-0.013-0.246-0.039-0.368l-0.01-0.068c-0.071-1.031-0.118-1.536-0.466-2.717c-0.22-0.742-0.722-1.271-1.58-1.666
				c-0.791-0.362-1.767-0.549-2.627-0.713c-0.769-0.146-1.491-0.285-2.029-0.527c-0.336-0.15-0.628-0.372-0.867-0.659
				c-0.125-0.149-0.241-0.324-0.343-0.52l-0.189-0.36l0.314-0.259c0.381-0.312,0.716-0.696,0.996-1.142
				c0.392-0.625,0.685-1.384,0.87-2.255l0.062-0.293l0.288-0.083c0.044-0.013,0.16-0.063,0.298-0.259
				c0.144-0.202,0.256-0.489,0.31-0.79c0.076-0.421,0.036-0.832-0.104-1.074l-0.104-0.178l0.053-0.199
				c0.016-0.062,0.03-0.124,0.042-0.188c0.087-0.431,0.114-0.931,0.085-1.491c-0.051-0.957-0.252-1.748-0.261-1.781
				c-0.19-0.761-0.773-1.532-1.6-2.119C18.786,7.023,17.642,6.453,16.026,6.453z"/>
		</g>
	</g>
</g>
<g id="Layer_4">
</g>
<g id="Layer_5">
</g>
<g id="Layer_7">
</g>
</svg>
