<?xml version="1.0" encoding="utf-8"?>
<!-- Generator: Adobe Illustrator 19.1.0, SVG Export Plug-In . SVG Version: 6.00 Build 0)  -->
<svg version="1.1" xmlns="http://www.w3.org/2000/svg" xmlns:xlink="http://www.w3.org/1999/xlink" x="0px" y="0px"
	 viewBox="0 0 32 32" enable-background="new 0 0 32 32" xml:space="preserve">
<g id="Layer_2">
</g>
<g id="Layer_1">
</g>
<g id="Layer_3">
</g>
<g id="Layer_4">
</g>
<g id="Layer_5">
	<g>
		<g>
			<path fill="#627783" d="M7,31.5c-1.93,0-3.5-1.57-3.5-3.5V4c0-1.93,1.57-3.5,3.5-3.5h15.207L28.5,6.793V28
				c0,1.93-1.57,3.5-3.5,3.5H7z"/>
			<path fill="#FFFFFF" d="M22,1l6,6v21c0,1.657-1.343,3-3,3H7c-1.657,0-3-1.343-3-3V4c0-1.657,1.343-3,3-3H22 M22.414,0H22H7
				C4.794,0,3,1.794,3,4v24c0,2.206,1.794,4,4,4h18c2.206,0,4-1.794,4-4V7V6.586l-0.293-0.293l-6-6L22.414,0L22.414,0z"/>
		</g>
	</g>
	<polygon fill="#4A5962" points="22,1 22,7 28,7 	"/>
	<path fill="#4A5962" d="M21.299,23.392H10.465c-0.276,0-0.5-0.224-0.5-0.5s0.224-0.5,0.5-0.5h10.834c0.276,0,0.5,0.224,0.5,0.5
		S21.575,23.392,21.299,23.392z"/>
	<path fill="#FFFFFF" d="M21.299,22.392H10.465c-0.276,0-0.5-0.224-0.5-0.5s0.224-0.5,0.5-0.5h10.834c0.276,0,0.5,0.224,0.5,0.5
		S21.575,22.392,21.299,22.392z"/>
	<path fill="#4A5962" d="M21.299,27.392H10.465c-0.276,0-0.5-0.224-0.5-0.5s0.224-0.5,0.5-0.5h10.834c0.276,0,0.5,0.224,0.5,0.5
		S21.575,27.392,21.299,27.392z"/>
	<path fill="#FFFFFF" d="M21.299,26.392H10.465c-0.276,0-0.5-0.224-0.5-0.5s0.224-0.5,0.5-0.5h10.834c0.276,0,0.5,0.224,0.5,0.5
		S21.575,26.392,21.299,26.392z"/>
	<path fill="#4A5962" d="M22.327,12.409c-0.716,0-1.433,0-2.149,0c-0.391,0-0.639,0.254-0.777,0.592
		c-0.457,1.12-0.915,2.241-1.372,3.362c-1.174-2.876-2.348-5.752-3.522-8.628c-0.312-0.763-1.243-0.763-1.555,0
		c-0.636,1.558-1.271,3.116-1.908,4.674c-0.538,0-1.076,0-1.614,0c-1.04,0-1.04,1.612,0,1.612c0.716,0,1.433,0,2.149,0
		c0.391,0,0.639-0.254,0.777-0.592c0.457-1.12,0.915-2.241,1.372-3.362c1.174,2.876,2.348,5.752,3.522,8.628
		c0.312,0.763,1.243,0.763,1.555,0c0.636-1.558,1.272-3.116,1.908-4.674c0.538,0,1.076,0,1.614,0
		C23.367,14.021,23.367,12.409,22.327,12.409z"/>
	<path fill="#FFFFFF" d="M22.327,11.271c-0.716,0-1.433,0-2.149,0c-0.391,0-0.639,0.254-0.777,0.592
		c-0.457,1.12-0.915,2.241-1.372,3.362c-1.174-2.876-2.348-5.752-3.522-8.628c-0.312-0.763-1.243-0.763-1.555,0
		c-0.636,1.558-1.271,3.116-1.908,4.674c-0.538,0-1.076,0-1.614,0c-1.04,0-1.04,1.612,0,1.612c0.716,0,1.433,0,2.149,0
		c0.391,0,0.639-0.254,0.777-0.592c0.457-1.12,0.915-2.241,1.372-3.362c1.174,2.876,2.348,5.752,3.522,8.628
		c0.312,0.763,1.243,0.763,1.555,0c0.636-1.558,1.272-3.116,1.908-4.674c0.538,0,1.076,0,1.614,0
		C23.367,12.883,23.367,11.271,22.327,11.271z"/>
</g>
<g id="Layer_7">
</g>
</svg>
