<?xml version="1.0" encoding="utf-8"?>
<!-- Generator: Adobe Illustrator 18.1.0, SVG Export Plug-In . SVG Version: 6.00 Build 0)  -->
<!DOCTYPE svg PUBLIC "-//W3C//DTD SVG 1.1//EN" "http://www.w3.org/Graphics/SVG/1.1/DTD/svg11.dtd">
<svg version="1.1" id="Layer_1" xmlns="http://www.w3.org/2000/svg" xmlns:xlink="http://www.w3.org/1999/xlink" x="0px" y="0px"
	 viewBox="0 0 32 32" enable-background="new 0 0 32 32" xml:space="preserve">
<g id="Ppt">
</g>
<g id="Small_Folder">
</g>
<g>
	<g>
		<g>
			<path fill="#3753A1" d="M7,31.5c-1.93,0-3.5-1.57-3.5-3.5V4c0-1.93,1.57-3.5,3.5-3.5h15.207L28.5,6.793V28
				c0,1.93-1.57,3.5-3.5,3.5H7z"/>
			<path fill="#FFFFFF" d="M22,1l6,6v21c0,1.657-1.343,3-3,3H7c-1.657,0-3-1.343-3-3V4c0-1.657,1.343-3,3-3H22 M22.414,0H22H7
				C4.794,0,3,1.794,3,4v24c0,2.206,1.794,4,4,4h18c2.206,0,4-1.794,4-4V7V6.586l-0.293-0.293l-6-6L22.414,0L22.414,0z"/>
		</g>
	</g>
	<polygon fill-rule="evenodd" clip-rule="evenodd" fill="#183577" points="22,1 22,7 28,7 	"/>
	<path fill="#183577" d="M21.25,11.099c-0.495-0.239-1.096-0.029-1.335,0.466L16,19.677l-3.915-8.112
		c-0.559-1.158-2.361-0.291-1.801,0.869l4.816,9.979c0.35,0.724,1.451,0.725,1.8,0l4.816-9.979
		C21.955,11.939,21.745,11.338,21.25,11.099C20.755,10.86,21.745,11.338,21.25,11.099z"/>
	<path fill="#FFFFFF" d="M21.25,10.099c-0.495-0.239-1.096-0.029-1.335,0.466L16,18.677l-3.915-8.112
		c-0.559-1.158-2.361-0.291-1.801,0.869l4.816,9.979c0.35,0.724,1.451,0.725,1.8,0l4.816-9.979
		C21.955,10.939,21.745,10.338,21.25,10.099C20.755,9.86,21.745,10.338,21.25,10.099z"/>
</g>
<g id="fave_icon_-_selected">
</g>
</svg>
