<?xml version="1.0" encoding="utf-8"?>
<!-- Generator: Adobe Illustrator 19.1.0, SVG Export Plug-In . SVG Version: 6.00 Build 0)  -->
<svg version="1.1" xmlns="http://www.w3.org/2000/svg" xmlns:xlink="http://www.w3.org/1999/xlink" x="0px" y="0px"
	 viewBox="0 0 32 32" enable-background="new 0 0 32 32" xml:space="preserve">
<g id="Layer_2">
</g>
<g id="Layer_1">
	<g>
		<g>
			<g>
				<g>
					<path fill="#C57C15" d="M7,31.5c-1.93,0-3.5-1.57-3.5-3.5V4c0-1.93,1.57-3.5,3.5-3.5h15.207L28.5,6.793V28
						c0,1.93-1.57,3.5-3.5,3.5H7z"/>
					<path fill="#FFFFFF" d="M22,1l6,6v21c0,1.657-1.343,3-3,3H7c-1.657,0-3-1.343-3-3V4c0-1.657,1.343-3,3-3H22 M22.414,0H22H7
						C4.794,0,3,1.794,3,4v24c0,2.206,1.794,4,4,4h18c2.206,0,4-1.794,4-4V7V6.586l-0.293-0.293l-6-6L22.414,0L22.414,0z"/>
				</g>
			</g>
			<polygon fill="#B26602" points="22,1 22,7 28,7 			"/>
		</g>
		<path fill="#B26602" d="M11.464,7.494c0-0.256,0.098-0.512,0.293-0.707c0.391-0.391,1.023-0.391,1.414,0l2.828,2.829l2.829-2.829
			c0.391-0.391,1.023-0.391,1.414,0c0.391,0.391,0.391,1.023,0,1.414l-4.243,4.243l-4.242-4.243
			C11.562,8.006,11.464,7.75,11.464,7.494z"/>
		<g>
			<path fill="#B26602" d="M24.116,21.868l-4.472-5.95h-7.289l-4.473,5.95h0.003v6.059h16.226v-6.059H24.116z M12.855,16.918h6.289
				l2.97,3.95H9.885L12.855,16.918z"/>
		</g>
		<path fill="#FFFFFF" d="M11.464,6.482c0-0.256,0.098-0.512,0.293-0.707c0.391-0.391,1.023-0.391,1.414,0l2.828,2.829l2.829-2.829
			c0.391-0.391,1.023-0.391,1.414,0c0.391,0.391,0.391,1.023,0,1.414l-4.243,4.243l-4.242-4.243
			C11.562,6.994,11.464,6.738,11.464,6.482z"/>
		<g>
			<polygon fill="none" points="19.145,15.905 12.855,15.905 9.885,19.855 22.114,19.855 			"/>
			<path fill="#FFFFFF" d="M24.116,20.855l-4.472-5.95h-7.289l-4.473,5.95h0.003v6.059h16.226v-6.059H24.116z M12.855,15.905h6.289
				l2.97,3.95H9.885L12.855,15.905z"/>
		</g>
	</g>
</g>
<g id="Layer_3">
</g>
<g id="Layer_4">
</g>
<g id="Layer_5">
</g>
<g id="Layer_7">
</g>
</svg>
