<?xml version="1.0" encoding="utf-8"?>
<!-- Generator: Adobe Illustrator 18.1.0, SVG Export Plug-In . SVG Version: 6.00 Build 0)  -->
<!DOCTYPE svg PUBLIC "-//W3C//DTD SVG 1.1//EN" "http://www.w3.org/Graphics/SVG/1.1/DTD/svg11.dtd">
<svg version="1.1" id="Layer_1" xmlns="http://www.w3.org/2000/svg" xmlns:xlink="http://www.w3.org/1999/xlink" x="0px" y="0px"
	 viewBox="0 0 32 32" enable-background="new 0 0 32 32" xml:space="preserve">
<g id="Ppt">
</g>
<g id="Small_Folder">
</g>
<g>
	<g>
		<g>
			<path fill="#207245" d="M7,31.5c-1.93,0-3.5-1.57-3.5-3.5V4c0-1.93,1.57-3.5,3.5-3.5h15.207L28.5,6.793V28
				c0,1.93-1.57,3.5-3.5,3.5H7z"/>
			<path fill="#FFFFFF" d="M22,1l6,6v21c0,1.657-1.343,3-3,3H7c-1.657,0-3-1.343-3-3V4c0-1.657,1.343-3,3-3H22 M22.414,0H22H7
				C4.794,0,3,1.794,3,4v24c0,2.206,1.794,4,4,4h18c2.206,0,4-1.794,4-4V7V6.586l-0.293-0.293l-6-6L22.414,0L22.414,0z"/>
		</g>
	</g>
	<path fill-rule="evenodd" clip-rule="evenodd" fill="#145B31" d="M17.574,16.999l4.1-4.099c0.435-0.435,0.435-1.139,0-1.574l0,0
		c-0.434-0.434-1.139-0.434-1.573,0L16,15.425l-4.101-4.1c-0.434-0.434-1.139-0.434-1.573,0c-0.435,0.435-0.435,1.139,0,1.574
		l4.101,4.099l-4.101,4.099c-0.435,0.434-0.435,1.139,0,1.573c0.434,0.434,1.139,0.434,1.573,0l4.101-4.1l4.101,4.099
		c0.434,0.434,1.139,0.434,1.573,0l0,0c0.435-0.435,0.435-1.139,0-1.574L17.574,16.999z"/>
	<path fill-rule="evenodd" clip-rule="evenodd" fill="#FFFFFF" d="M17.574,16.001l4.1-4.099c0.435-0.435,0.435-1.139,0-1.574l0,0
		c-0.434-0.434-1.139-0.434-1.573,0L16,14.428l-4.101-4.1c-0.434-0.434-1.139-0.434-1.573,0c-0.435,0.435-0.435,1.139,0,1.574
		l4.101,4.099l-4.101,4.099c-0.435,0.434-0.435,1.139,0,1.573c0.434,0.434,1.139,0.434,1.573,0l4.101-4.1l4.101,4.099
		c0.434,0.434,1.139,0.434,1.573,0l0,0c0.435-0.435,0.435-1.139,0-1.574L17.574,16.001z"/>
	<polygon fill-rule="evenodd" clip-rule="evenodd" fill="#145B31" points="22,1 22,7 28,7 	"/>
</g>
<g id="fave_icon_-_selected">
</g>
</svg>
