<?xml version="1.0" encoding="utf-8"?>
<!-- Generator: Adobe Illustrator 19.1.0, SVG Export Plug-In . SVG Version: 6.00 Build 0)  -->
<svg version="1.1" xmlns="http://www.w3.org/2000/svg" xmlns:xlink="http://www.w3.org/1999/xlink" x="0px" y="0px"
	 viewBox="0 0 32 32" enable-background="new 0 0 32 32" xml:space="preserve">
<g id="Layer_2">
</g>
<g id="Layer_1">
	<g>
		<path fill="#FFFFFF" d="M28.789,12.348l-6.032-4.96l-0.647-0.51l-0.041,0.032c-0.636-0.371-1.357-0.57-2.095-0.57
			c-1.843,0-3.413,1.194-3.975,2.849c-0.562-1.655-2.132-2.849-3.974-2.849c-0.748,0-1.477,0.203-2.119,0.584L9.855,6.884
			l-6.627,5.45c-1.892,1.418-2.978,3.577-2.978,5.924c0,4.082,3.321,7.402,7.402,7.402c3.97,0,7.272-3.21,7.394-7.171h1.906
			c0.124,3.961,3.426,7.171,7.394,7.171c4.082,0,7.402-3.321,7.402-7.402C31.75,15.918,30.671,13.765,28.789,12.348z"/>
	</g>
	<g>
		<path fill="none" d="M7.651,13.899c-2.403,0-4.359,1.956-4.359,4.359s1.956,4.359,4.359,4.359c2.404,0,4.36-1.956,4.36-4.359
			S10.055,13.899,7.651,13.899z"/>
		<path fill="none" d="M24.36,13.899c-2.403,0-4.359,1.956-4.359,4.359s1.956,4.359,4.359,4.359s4.359-1.956,4.359-4.359
			S26.763,13.899,24.36,13.899z"/>
		<path fill="#004A70" d="M30.439,16.396c-0.005-0.017-0.01-0.033-0.016-0.05c-0.059-0.187-0.126-0.37-0.201-0.549
			c-0.005-0.011-0.01-0.022-0.015-0.033c-0.32-0.746-0.777-1.418-1.342-1.987c-0.005-0.005-0.01-0.011-0.016-0.017
			c-0.132-0.132-0.271-0.256-0.414-0.376c-0.02-0.017-0.039-0.034-0.06-0.05c-0.074-0.06-0.142-0.127-0.219-0.184L22.11,8.177
			l-0.015,0.011c-0.563-0.509-1.302-0.827-2.12-0.827c-1.753,0-3.175,1.421-3.175,3.175c0,0.068,0.016,0.131,0.02,0.198
			l-0.028,0.008l0.01,0.063h-1.604l0.01-0.063l-0.028-0.008c0.004-0.067,0.02-0.13,0.02-0.198c0-1.753-1.421-3.175-3.174-3.175
			c-0.819,0-1.557,0.318-2.12,0.827L9.891,8.177L3.84,13.152c-1.556,1.165-2.569,3.017-2.569,5.106c0,3.519,2.862,6.382,6.382,6.382
			c3.256,0,5.946-2.452,6.33-5.606c0.026-0.211,0.188-1.566,0.188-1.566h3.659c0,0,0.163,1.353,0.188,1.562
			c0.382,3.156,3.073,5.609,6.33,5.609c3.519,0,6.382-2.862,6.382-6.382C30.729,17.609,30.621,16.986,30.439,16.396z M12.011,18.259
			c0,2.403-1.956,4.359-4.36,4.359c-2.403,0-4.359-1.956-4.359-4.359s1.956-4.359,4.359-4.359
			C10.055,13.899,12.011,15.855,12.011,18.259z M28.719,18.259c0,2.403-1.956,4.359-4.359,4.359S20,20.662,20,18.259
			s1.956-4.359,4.359-4.359S28.719,15.855,28.719,18.259z"/>
	</g>
</g>
<g id="Layer_3">
</g>
<g id="Layer_4">
</g>
<g id="Layer_5">
</g>
<g id="Layer_7">
</g>
</svg>
