<?xml version="1.0" encoding="utf-8"?>
<!-- Generator: Adobe Illustrator 19.1.0, SVG Export Plug-In . SVG Version: 6.00 Build 0)  -->
<svg version="1.1" xmlns="http://www.w3.org/2000/svg" xmlns:xlink="http://www.w3.org/1999/xlink" x="0px" y="0px"
	 viewBox="0 0 32 32" enable-background="new 0 0 32 32" xml:space="preserve">
<g id="Layer_2">
</g>
<g id="Layer_1">
</g>
<g id="Layer_3">
	<g>
		<path fill="#FFFFFF" d="M30.131,25.725c-0.089-1.265-0.163-2.021-0.625-3.585c-0.396-1.345-1.336-2.366-2.797-3.037
			c-1.139-0.521-2.429-0.768-3.573-0.986c-0.836-0.16-1.624-0.312-2.109-0.529c-0.11-0.049-0.229-0.135-0.362-0.263l-1.406-1.342
			l-1.861,1.345l-2.729,0.041l-1.902-1.365l-1.427,1.331c-0.132,0.122-0.248,0.205-0.354,0.254
			c-0.484,0.217-1.272,0.368-2.114,0.529c-1.139,0.218-2.429,0.464-3.569,0.986c-1.459,0.67-2.399,1.691-2.795,3.035
			c-0.459,1.553-0.534,2.295-0.621,3.53c-0.057,0.268-0.084,0.519-0.084,0.766l0.006,1.407c0.043,2.043,1.736,3.704,3.776,3.704
			h9.365h11.469c2.086,0,3.782-1.696,3.782-3.782v-1.329C30.199,26.198,30.176,25.96,30.131,25.725z"/>
		<g>
			<path fill="#733781" d="M20.21,17.105c0.36-0.427,0.666-0.907,0.908-1.431c0.366-0.707,0.65-1.51,0.842-2.411
				c0.247-0.07,0.489-0.261,0.692-0.548c0.226-0.32,0.396-0.748,0.478-1.205c0.12-0.665,0.045-1.301-0.199-1.722
				c0.022-0.087,0.042-0.176,0.06-0.267c0.114-0.57,0.151-1.231,0.113-1.964c-0.066-1.241-0.325-2.248-0.335-2.289
				c-0.267-1.062-1.063-2.128-2.185-2.925C19.69,1.71,18.178,0.953,16.05,0.953s-3.641,0.756-4.534,1.391
				C10.394,3.14,9.598,4.206,9.331,5.268C9.316,5.322,9.058,6.325,8.99,7.558C8.95,8.292,8.987,8.953,9.099,9.523
				c0.018,0.089,0.037,0.175,0.058,0.26c-0.247,0.421-0.323,1.059-0.203,1.727c0.083,0.459,0.253,0.888,0.481,1.209
				c0.205,0.288,0.447,0.478,0.695,0.547c0.139,0.652,0.329,1.248,0.56,1.798c0.274,0.791,0.685,1.505,1.207,2.107
				c0.207,0.238,0.43,0.457,0.669,0.657c0.961,0.808,2.158,1.294,3.46,1.294c1.316,0,2.525-0.495,3.491-1.319
				C19.765,17.592,19.997,17.358,20.21,17.105z"/>
			<path fill="#FFFFFF" d="M16.026,19.622c-1.377,0-2.685-0.488-3.782-1.411c-0.262-0.22-0.505-0.46-0.724-0.713
				c-0.569-0.656-1.008-1.42-1.302-2.271c-0.208-0.494-0.384-1.038-0.518-1.6c-0.249-0.134-0.478-0.344-0.673-0.619
				c-0.269-0.38-0.47-0.881-0.565-1.41c-0.125-0.698-0.064-1.369,0.167-1.88C8.622,9.687,8.615,9.654,8.609,9.62
				c-0.121-0.609-0.161-1.312-0.118-2.09c0.071-1.315,0.354-2.382,0.356-2.392c0.293-1.168,1.161-2.338,2.379-3.202
				c0.952-0.677,2.562-1.483,4.823-1.483s3.871,0.807,4.824,1.483c1.217,0.865,2.085,2.035,2.38,3.21c0,0.003,0.28,1.058,0.35,2.384
				c0.041,0.775-0.001,1.478-0.122,2.089c-0.007,0.036-0.014,0.071-0.021,0.107c0.228,0.511,0.287,1.18,0.162,1.872
				c-0.095,0.525-0.294,1.024-0.561,1.404c-0.196,0.276-0.424,0.486-0.67,0.62c-0.197,0.832-0.476,1.599-0.829,2.281
				c-0.249,0.539-0.579,1.059-0.97,1.523c-0.23,0.272-0.482,0.527-0.75,0.756C18.738,19.125,17.419,19.622,16.026,19.622z
				 M16.05,1.453c-1.998,0-3.411,0.706-4.244,1.298c-1.026,0.729-1.752,1.69-1.989,2.639C9.811,5.407,9.556,6.372,9.489,7.585
				C9.451,8.28,9.485,8.899,9.59,9.426C9.606,9.507,9.624,9.584,9.642,9.66L9.693,9.86L9.59,10.036
				c-0.186,0.314-0.239,0.846-0.143,1.386c0.07,0.388,0.211,0.746,0.397,1.009c0.133,0.188,0.285,0.315,0.42,0.353l0.293,0.081
				l0.063,0.298c0.126,0.592,0.305,1.167,0.531,1.709c0.264,0.759,0.638,1.412,1.124,1.972c0.185,0.214,0.391,0.416,0.611,0.603
				c1.841,1.548,4.476,1.537,6.306-0.022c0.226-0.192,0.439-0.408,0.634-0.64l0,0c0.334-0.396,0.616-0.84,0.837-1.318
				c0.358-0.693,0.627-1.462,0.807-2.306l0.063-0.294l0.289-0.082c0.134-0.038,0.287-0.169,0.421-0.357
				c0.185-0.262,0.324-0.618,0.394-1.004c0.097-0.537,0.043-1.066-0.14-1.384l-0.103-0.177l0.051-0.198
				c0.021-0.077,0.038-0.154,0.054-0.235c0.106-0.533,0.142-1.153,0.105-1.845c-0.064-1.21-0.317-2.176-0.32-2.186
				c-0.239-0.955-0.965-1.917-1.991-2.646C19.461,2.159,18.048,1.453,16.05,1.453z"/>
		</g>
		<path fill="#733781" d="M12.44,21.355l-0.42-3.289c-0.188,0.176-0.392,0.33-0.627,0.435c-0.592,0.266-1.439,0.428-2.336,0.599
			c-1.084,0.207-2.313,0.442-3.338,0.913c-1.201,0.552-1.938,1.34-2.255,2.41c-0.435,1.473-0.5,2.139-0.587,3.39
			c-0.047,0.201-0.077,0.408-0.077,0.622v1.329c0,0.02,0.005,0.038,0.006,0.057c0.032,1.503,1.266,2.725,2.777,2.725h8.465
			l1.051-9.914l-0.693-1.473L12.44,21.355z"/>
		<path fill="#733781" d="M29.138,25.861c-0.089-1.282-0.15-1.946-0.591-3.438c-0.316-1.07-1.053-1.858-2.255-2.41
			c-1.025-0.471-2.254-0.706-3.338-0.913c-0.897-0.172-1.744-0.333-2.336-0.599c-0.242-0.109-0.452-0.269-0.645-0.452l-0.471,3.306
			L17.64,19.16l-0.693,1.473l1.051,9.914h8.419c1.53,0,2.783-1.252,2.783-2.782v-1.028v-0.301
			C29.2,26.238,29.177,26.046,29.138,25.861z"/>
	</g>
</g>
<g id="Layer_4">
</g>
<g id="Layer_5">
</g>
<g id="Layer_7">
</g>
</svg>
