<?xml version="1.0" encoding="utf-8"?>
<!-- Generator: Adobe Illustrator 19.1.0, SVG Export Plug-In . SVG Version: 6.00 Build 0)  -->
<svg version="1.1" xmlns="http://www.w3.org/2000/svg" xmlns:xlink="http://www.w3.org/1999/xlink" x="0px" y="0px"
	 viewBox="0 0 32 32" enable-background="new 0 0 32 32" xml:space="preserve">
<g id="Layer_2">
</g>
<g id="Layer_1">
</g>
<g id="Layer_3">
	<g>
		<path fill="#FFFFFF" d="M26.033,17.861l-4.259-2.658c-0.042-0.026-0.08-0.058-0.114-0.094c0,0-1.152-1.261-1.885-2.069
			c-0.733-0.807-1.78-0.339-1.78-0.339c-1.323,0.489-4.063,1.5-4.209,1.543c-0.892,0.244-1.729-0.176-1.966-0.995
			c-0.202-0.712,0.097-1.452,0.726-1.824c0.013-0.009,0.026-0.018,0.04-0.026c0.033-0.019,3.5-2.008,3.575-2.051
			c-0.374-0.056-0.852-0.054-1.385-0.01c-0.879,0.072-1.865,0.239-2.606,0.364c-0.483,0.081-0.918,0.15-1.316,0.205
			c-0.152,0.021-0.317,0.047-0.45,0.06c-0.083,0.008-0.168,0.012-0.253,0.012c-0.511,0-1.041-0.145-1.549-0.36
			C8.373,9.522,8.148,9.41,7.931,9.29C7.676,9.149,7.435,8.998,7.21,8.846l-0.941-0.58l-3.756,6.093l4.959,3.094l0.601-0.5
			c0.637-0.53,1.592-0.442,2.122,0.195c0.23,0.277,0.337,0.614,0.34,0.95c0.515-0.107,1.071,0.048,1.429,0.478l0.049,0.059
			c0.218,0.262,0.306,0.58,0.314,0.898c0.502-0.111,1.047,0.039,1.396,0.459l0.117,0.14c0.199,0.239,0.28,0.527,0.298,0.817
			c0.472-0.11,0.988,0.031,1.318,0.427l0.238,0.286c0.261,0.313,0.333,0.71,0.264,1.084l1.684,1.051
			c0.365,0.227,0.847,0.115,1.077-0.251c0.227-0.365,0.115-0.847-0.249-1.076l-1.637-1.019c-0.253-0.158-0.331-0.491-0.173-0.745
			c0.158-0.253,0.491-0.33,0.745-0.173l2.962,1.866c0.176,0.11,0.385,0.145,0.588,0.098l0.001,0
			c0.204-0.047,0.377-0.171,0.488-0.349c0.227-0.364,0.115-0.847-0.251-1.076l-2.452-1.529c-0.253-0.158-0.331-0.491-0.172-0.745
			c0.158-0.253,0.491-0.331,0.745-0.172l3.621,2.259c0.362,0.225,0.843,0.113,1.071-0.251c0.111-0.179,0.147-0.388,0.099-0.591
			c-0.047-0.202-0.17-0.373-0.347-0.483l-3.27-2.041c-0.253-0.158-0.331-0.492-0.172-0.745c0.158-0.253,0.492-0.331,0.745-0.172
			l4.151,2.589c0.363,0.224,0.845,0.112,1.072-0.252c0.111-0.177,0.146-0.387,0.098-0.59C26.333,18.145,26.21,17.972,26.033,17.861z
			"/>
		<path fill="#00A389" d="M25.311,7.44c-0.18-0.195-0.474-0.229-0.696-0.083c-0.818,0.54-1.559,1.419-2.591,1.434
			c-1.399,0.02-2.802,0.001-4.203,0.058c-0.177,0.007-0.572-0.169-0.607-0.191c-0.022-0.014-0.045-0.028-0.068-0.041
			c-0.97-0.548-2.769-0.302-5.142,0.1c-0.318,0.054-0.623,0.106-0.907,0.15c-0.289,0.045-0.556,0.082-0.79,0.105
			c-0.996,0.106-2.332-0.75-3.194-1.435c0,0-0.739-0.456-0.764-0.463C6.269,7.03,6.183,7.003,6.096,7.003
			c-0.179,0-0.354,0.09-0.454,0.252l-4.314,6.999c-0.153,0.249-0.075,0.578,0.174,0.732l5.1,3.191L6.286,18.44
			c-0.637,0.53-0.725,1.485-0.195,2.122c0.417,0.501,1.094,0.656,1.675,0.445c0.026,0.287,0.108,0.57,0.305,0.807l0.049,0.059
			c0.43,0.517,1.137,0.638,1.723,0.376c0.032,0.26,0.11,0.516,0.289,0.731l0.117,0.14c0.483,0.581,1.339,0.665,1.936,0.214
			c0.044,0.196,0.12,0.386,0.257,0.55l0.238,0.286c0.465,0.559,1.302,0.636,1.86,0.171l0.822-0.684l1.648,1.031
			c0.013,0.008,0.028,0.009,0.061,0.028c0.435,0.271,0.94,0.34,1.404,0.232c0.465-0.108,0.89-0.393,1.162-0.829
			c0.146-0.236,0.229-0.492,0.261-0.752c0.411,0.222,0.872,0.282,1.301,0.183c0.465-0.108,0.89-0.393,1.162-0.83
			c0.155-0.247,0.236-0.517,0.264-0.79c0.368,0.155,0.766,0.188,1.139,0.102c0.465-0.108,0.888-0.392,1.159-0.826
			c0.168-0.269,0.254-0.57,0.272-0.877c0.281,0.065,0.57,0.072,0.845,0.008c0.465-0.108,0.889-0.392,1.161-0.827
			c0.263-0.422,0.347-0.922,0.234-1.407c-0.088-0.379-0.29-0.711-0.575-0.966c0.307-0.22,0.617-0.437,0.913-0.669
			c1.711-1.34,2.794-2.529,2.839-2.579c0.188-0.208,0.186-0.524-0.004-0.73L25.311,7.44z M26.282,18.938
			c-0.227,0.364-0.708,0.477-1.072,0.252l-4.151-2.589c-0.253-0.158-0.587-0.081-0.745,0.172c-0.158,0.253-0.081,0.587,0.172,0.745
			l3.27,2.041c0.176,0.11,0.3,0.281,0.347,0.483c0.048,0.203,0.012,0.412-0.099,0.591c-0.227,0.363-0.709,0.476-1.071,0.251
			l-3.621-2.259c-0.253-0.158-0.587-0.081-0.745,0.172c-0.158,0.253-0.081,0.587,0.172,0.745l2.452,1.529
			c0.365,0.229,0.478,0.712,0.251,1.076c-0.111,0.178-0.284,0.302-0.488,0.349l-0.001,0c-0.202,0.047-0.411,0.012-0.588-0.098
			l-2.962-1.866c-0.254-0.158-0.587-0.08-0.745,0.173c-0.158,0.254-0.081,0.587,0.173,0.745l1.637,1.019
			c0.364,0.228,0.476,0.711,0.249,1.076c-0.229,0.366-0.712,0.478-1.077,0.251l-1.684-1.051c0.07-0.374-0.003-0.771-0.264-1.084
			l-0.238-0.286c-0.33-0.397-0.846-0.537-1.318-0.427c-0.018-0.29-0.099-0.578-0.298-0.817l-0.117-0.14
			c-0.35-0.42-0.894-0.57-1.396-0.459c-0.008-0.318-0.096-0.636-0.314-0.898l-0.049-0.059c-0.358-0.431-0.914-0.585-1.429-0.478
			c-0.003-0.336-0.109-0.673-0.34-0.95c-0.53-0.637-1.485-0.725-2.122-0.195l-0.601,0.5l-4.959-3.094l3.756-6.093l0.941,0.58
			C7.435,8.998,7.676,9.149,7.931,9.29c0.217,0.12,0.442,0.231,0.672,0.329c0.508,0.215,1.037,0.36,1.549,0.36
			c0.085,0,0.17-0.004,0.253-0.012c0.133-0.013,0.298-0.039,0.45-0.06c0.398-0.055,0.834-0.124,1.316-0.205
			c0.741-0.125,1.728-0.292,2.606-0.364c0.532-0.044,1.011-0.046,1.385,0.01c-0.075,0.043-3.542,2.032-3.575,2.051
			c-0.014,0.008-0.027,0.017-0.04,0.026c-0.629,0.372-0.928,1.111-0.726,1.824c0.237,0.819,1.074,1.239,1.966,0.995
			c0.146-0.042,2.886-1.054,4.209-1.543c0,0,1.047-0.469,1.78,0.339c0.733,0.808,1.885,2.069,1.885,2.069
			c0.034,0.036,0.071,0.068,0.114,0.094l4.259,2.658c0.177,0.111,0.3,0.283,0.348,0.487C26.428,18.551,26.393,18.761,26.282,18.938z
			"/>
	</g>
</g>
<g id="Layer_4">
</g>
<g id="Layer_5">
</g>
<g id="Layer_7">
</g>
</svg>
