<?xml version="1.0" encoding="utf-8"?>
<!-- Generator: Adobe Illustrator 19.1.0, SVG Export Plug-In . SVG Version: 6.00 Build 0)  -->
<svg version="1.1" xmlns="http://www.w3.org/2000/svg" xmlns:xlink="http://www.w3.org/1999/xlink" x="0px" y="0px"
	 viewBox="0 0 32 32" enable-background="new 0 0 32 32" xml:space="preserve">
<g id="Layer_2">
</g>
<g id="Layer_1">
	<circle fill="#FFFFFF" cx="16" cy="16" r="15.973"/>
	<circle fill="#D24625" cx="16" cy="16" r="14.939"/>
	<g>
		<path fill="#FFFFFF" d="M6.38,9.673c0.903,0.907,1.765,1.757,2.607,2.628c0.215,0.222,0.417,0.286,0.7,0.18
			c1.094-0.412,1.84-1.172,2.269-2.251c0.114-0.287,0.047-0.512-0.191-0.74c-0.775-0.742-1.524-1.511-2.282-2.271
			c-0.096-0.097-0.187-0.2-0.309-0.331c1.116-0.386,2.175-0.327,3.213,0.105c1.677,0.698,2.807,2.355,2.739,4.177
			c-0.039,1.036,0.311,1.802,1.036,2.517c3.145,3.103,4.526,4.514,7.656,7.632c0.627,0.624,0.891,1.344,0.657,2.201
			c-0.405,1.486-2.188,2.051-3.387,1.085c-0.151-0.122-0.287-0.264-0.425-0.402c-3.115-3.114-4.51-4.491-7.608-7.622
			c-0.653-0.66-1.368-0.96-2.304-0.938c-3.075,0.072-5.287-2.775-4.471-5.702C6.299,9.876,6.328,9.814,6.38,9.673z"/>
	</g>
</g>
<g id="Layer_3">
</g>
<g id="Layer_4">
</g>
<g id="Layer_5">
</g>
<g id="Layer_7">
</g>
</svg>
