<?xml version="1.0" encoding="utf-8"?>
<!-- Generator: Adobe Illustrator 18.1.0, SVG Export Plug-In . SVG Version: 6.00 Build 0)  -->
<!DOCTYPE svg PUBLIC "-//W3C//DTD SVG 1.1//EN" "http://www.w3.org/Graphics/SVG/1.1/DTD/svg11.dtd">
<svg version="1.1" id="Layer_1" xmlns="http://www.w3.org/2000/svg" xmlns:xlink="http://www.w3.org/1999/xlink" x="0px" y="0px"
	 viewBox="0 0 32 32" enable-background="new 0 0 32 32" xml:space="preserve">
<g id="Ppt">
</g>
<g id="Small_Folder">
</g>
<g>
	<g>
		<g>
			<path fill="#2A5699" d="M7,31.5c-1.93,0-3.5-1.57-3.5-3.5V4c0-1.93,1.57-3.5,3.5-3.5h15.207L28.5,6.793V28
				c0,1.93-1.57,3.5-3.5,3.5H7z"/>
			<path fill="#FFFFFF" d="M22,1l6,6v21c0,1.657-1.343,3-3,3H7c-1.657,0-3-1.343-3-3V4c0-1.657,1.343-3,3-3H22 M22.414,0H22H7
				C4.794,0,3,1.794,3,4v24c0,2.206,1.794,4,4,4h18c2.206,0,4-1.794,4-4V7V6.586l-0.293-0.293l-6-6L22.414,0L22.414,0z"/>
		</g>
	</g>
	<polygon fill-rule="evenodd" clip-rule="evenodd" fill="#13386D" points="22,1 22,7 28,7 	"/>
	<g>
		<path fill="#13386D" d="M10.381,21.656l-2.347-9.852c-0.186-0.782,0.406-1.532,1.21-1.532h0.05c0.584,0,1.09,0.407,1.215,0.977
			l1.7,7.746l1.933-7.261c0.23-0.862,1.01-1.462,1.902-1.462h0c0.903,0,1.69,0.614,1.909,1.489l1.853,7.381l1.735-7.894
			c0.125-0.57,0.631-0.977,1.215-0.977h0c0.805,0,1.399,0.754,1.209,1.537l-2.388,9.854c-0.19,0.785-0.893,1.337-1.7,1.337h0
			c-0.793,0-1.486-0.533-1.69-1.299l-2.184-8.196L13.828,21.7c-0.204,0.767-0.897,1.3-1.69,1.3h-0.054
			C11.273,23,10.569,22.444,10.381,21.656z"/>
	</g>
	<g>
		<path fill="#FFFFFF" d="M10.381,20.656l-2.347-9.852c-0.186-0.782,0.406-1.532,1.21-1.532h0.05c0.584,0,1.09,0.407,1.215,0.977
			l1.7,7.746l1.933-7.261c0.23-0.862,1.01-1.462,1.902-1.462h0c0.903,0,1.69,0.614,1.909,1.489l1.853,7.381l1.735-7.894
			c0.125-0.57,0.631-0.977,1.215-0.977h0c0.805,0,1.399,0.754,1.209,1.537l-2.388,9.854c-0.19,0.785-0.893,1.337-1.7,1.337h0
			c-0.793,0-1.486-0.533-1.69-1.299l-2.184-8.196L13.828,20.7c-0.204,0.767-0.897,1.3-1.69,1.3h-0.054
			C11.273,22,10.569,21.444,10.381,20.656z"/>
	</g>
</g>
<g id="fave_icon_-_selected">
</g>
</svg>
