<?xml version="1.0" encoding="utf-8"?>
<!-- Generator: Adobe Illustrator 19.1.0, SVG Export Plug-In . SVG Version: 6.00 Build 0)  -->
<svg version="1.1" xmlns="http://www.w3.org/2000/svg" xmlns:xlink="http://www.w3.org/1999/xlink" x="0px" y="0px"
	 viewBox="0 0 32 32" enable-background="new 0 0 32 32" xml:space="preserve">
<g id="Layer_2">
</g>
<g id="Layer_1">
	<g>
		<g>
			<polygon fill="#9370B1" points="30.189,23.491 30.189,8.384 16,0.872 1.811,8.425 1.811,23.491 15.958,31.128 			"/>
			<path fill="#FFFFFF" d="M15.958,31.695L1.311,23.789V8.126L16,0.305l14.69,7.778V23.79L15.958,31.695z M2.311,23.193
				l13.648,7.367l13.73-7.368V8.685L16,1.438L2.311,8.726V23.193z"/>
		</g>
		<polygon fill="#735796" points="22.86,19.811 15.737,16.306 8.949,19.811 15.515,23.651 		"/>
		<polygon fill="#735796" points="23.082,12.077 16.238,8.348 8.726,12.021 8.559,19.7 15.904,16.027 22.86,19.811 		"/>
		<polygon fill="#FFFFFF" points="23.762,27.122 22.762,27.122 22.762,12.355 9.044,4.984 9.518,4.104 23.762,11.757 		"/>
		<polygon fill="#FFFFFF" points="9.113,27.122 8.113,27.122 8.113,11.757 22.357,4.104 22.831,4.984 9.113,12.355 		"/>
		
			<rect x="1.357" y="9.741" transform="matrix(0.8823 0.4708 -0.4708 0.8823 5.4347 -1.2478)" fill="#FFFFFF" width="7.711" height="1"/>
		
			<rect x="26.226" y="6.299" transform="matrix(0.469 0.8832 -0.8832 0.469 23.2185 -18.1774)" fill="#FFFFFF" width="1" height="7.841"/>
		<polygon fill="#FFFFFF" points="15.958,24.349 1.576,16.713 2.045,15.83 15.959,23.218 29.915,15.87 30.38,16.755 		"/>
		<rect x="15.458" y="8.133" fill="#FFFFFF" width="1" height="7.943"/>
		<rect x="15.458" y="23.779" fill="#FFFFFF" width="1" height="7.259"/>
		<polygon fill="#FFFFFF" points="23.006,20.369 15.92,16.641 8.834,20.346 8.372,19.459 15.922,15.512 23.472,19.484 		"/>
	</g>
</g>
<g id="Layer_3">
</g>
<g id="Layer_4">
</g>
<g id="Layer_5">
</g>
<g id="Layer_7">
</g>
</svg>
