<?xml version="1.0" encoding="utf-8"?>
<!-- Generator: Adobe Illustrator 19.1.0, SVG Export Plug-In . SVG Version: 6.00 Build 0)  -->
<svg version="1.1" xmlns="http://www.w3.org/2000/svg" xmlns:xlink="http://www.w3.org/1999/xlink" x="0px" y="0px"
	 viewBox="0 0 32 32" enable-background="new 0 0 32 32" xml:space="preserve">
<g id="Layer_2">
</g>
<g id="Layer_1">
	<g>
		<g>
			<g>
				<g>
					<path fill="#627783" d="M7,31.5c-1.93,0-3.5-1.57-3.5-3.5V4c0-1.93,1.57-3.5,3.5-3.5h15.207L28.5,6.793V28
						c0,1.93-1.57,3.5-3.5,3.5H7z"/>
					<path fill="#FFFFFF" d="M22,1l6,6v21c0,1.657-1.343,3-3,3H7c-1.657,0-3-1.343-3-3V4c0-1.657,1.343-3,3-3H22 M22.414,0H22H7
						C4.794,0,3,1.794,3,4v24c0,2.206,1.794,4,4,4h18c2.206,0,4-1.794,4-4V7V6.586l-0.293-0.293l-6-6L22.414,0L22.414,0z"/>
				</g>
			</g>
			<polygon fill="#4A5962" points="22,1 22,7 28,7 			"/>
		</g>
	</g>
</g>
<g id="Layer_3">
	<g>
		<path fill="#4A5962" d="M21.646,13.818H10.375c-0.552,0-1-0.448-1-1s0.448-1,1-1h11.272c0.552,0,1,0.448,1,1
			S22.198,13.818,21.646,13.818z"/>
		<path fill="#FFFFFF" d="M21.646,12.818H10.375c-0.552,0-1-0.448-1-1s0.448-1,1-1h11.272c0.552,0,1,0.448,1,1
			S22.198,12.818,21.646,12.818z"/>
	</g>
	<g>
		<path fill="#4A5962" d="M21.646,18.733H10.375c-0.552,0-1-0.448-1-1s0.448-1,1-1h11.272c0.552,0,1,0.448,1,1
			S22.198,18.733,21.646,18.733z"/>
		<path fill="#FFFFFF" d="M21.646,17.733H10.375c-0.552,0-1-0.448-1-1s0.448-1,1-1h11.272c0.552,0,1,0.448,1,1
			S22.198,17.733,21.646,17.733z"/>
	</g>
	<g>
		<path fill="#4A5962" d="M14.666,28.307l-2.942-2.942c-0.391-0.391-0.391-1.023,0-1.414s1.023-0.391,1.414,0l1.528,1.528
			l4.196-4.196c0.391-0.391,1.023-0.391,1.414,0s0.391,1.023,0,1.414L14.666,28.307z"/>
		<path fill="#FFFFFF" d="M14.666,27.307l-2.942-2.942c-0.391-0.391-0.391-1.023,0-1.414s1.023-0.391,1.414,0l1.528,1.528
			l4.196-4.196c0.391-0.391,1.023-0.391,1.414,0s0.391,1.023,0,1.414L14.666,27.307z"/>
	</g>
	<g>
		<path fill="#4A5962" d="M18.524,8.902H7.358c-0.55,0-1-0.45-1-1V6.418c0-0.55,0.45-1,1-1h11.167c0.55,0,1,0.45,1,1v1.484
			C19.524,8.452,19.074,8.902,18.524,8.902z"/>
		<path fill="#FFFFFF" d="M18.524,7.902H7.358c-0.55,0-1-0.45-1-1V5.418c0-0.55,0.45-1,1-1h11.167c0.55,0,1,0.45,1,1v1.484
			C19.524,7.452,19.074,7.902,18.524,7.902z"/>
	</g>
</g>
<g id="Layer_4">
</g>
<g id="Layer_5">
</g>
<g id="Layer_7">
</g>
</svg>
