<?xml version="1.0" encoding="utf-8"?>
<!-- Generator: Adobe Illustrator 19.1.0, SVG Export Plug-In . SVG Version: 6.00 Build 0)  -->
<svg version="1.1" xmlns="http://www.w3.org/2000/svg" xmlns:xlink="http://www.w3.org/1999/xlink" x="0px" y="0px"
	 viewBox="0 0 32 32" enable-background="new 0 0 32 32" xml:space="preserve">
<g id="Layer_2">
</g>
<g id="Layer_1">
	<g>
		<g>
			<path fill="#00A389" d="M7,31.5c-1.93,0-3.5-1.57-3.5-3.5V4c0-1.93,1.57-3.5,3.5-3.5h15.207L28.5,6.793V28
				c0,1.93-1.57,3.5-3.5,3.5H7z"/>
			<path fill="#FFFFFF" d="M22,1l6,6v21c0,1.657-1.343,3-3,3H7c-1.657,0-3-1.343-3-3V4c0-1.657,1.343-3,3-3H22 M22.414,0H22H7
				C4.794,0,3,1.794,3,4v24c0,2.206,1.794,4,4,4h18c2.206,0,4-1.794,4-4V7V6.586l-0.293-0.293l-6-6L22.414,0L22.414,0z"/>
		</g>
	</g>
	<polygon fill="#00795A" points="22,1 22,7 28,7 	"/>
	<g>
		<path fill="#00795A" d="M23,16.551H9c-0.276,0-0.5-0.224-0.5-0.5c0-0.276,0.224-0.5,0.5-0.5h14c0.276,0,0.5,0.224,0.5,0.5
			C23.5,16.327,23.276,16.551,23,16.551z"/>
		<path fill="#FFFFFF" d="M23,15.551H9c-0.276,0-0.5-0.224-0.5-0.5s0.224-0.5,0.5-0.5h14c0.276,0,0.5,0.224,0.5,0.5
			S23.276,15.551,23,15.551z"/>
	</g>
	<g>
		<path fill="#00795A" d="M23,21.519H9c-0.276,0-0.5-0.224-0.5-0.5s0.224-0.5,0.5-0.5h14c0.276,0,0.5,0.224,0.5,0.5
			S23.276,21.519,23,21.519z"/>
		<path fill="#FFFFFF" d="M23,20.519H9c-0.276,0-0.5-0.224-0.5-0.5c0-0.276,0.224-0.5,0.5-0.5h14c0.276,0,0.5,0.224,0.5,0.5
			C23.5,20.295,23.276,20.519,23,20.519z"/>
	</g>
</g>
<g id="Layer_3">
	<g>
		<path fill="#00795A" d="M22.47,27.487h-5.471c-0.553,0-1-0.447-1-1s0.447-1,1-1h5.471c0.553,0,1,0.447,1,1
			S23.022,27.487,22.47,27.487z"/>
		<path fill="#FFFFFF" d="M22.47,26.487h-5.471c-0.553,0-1-0.447-1-1s0.447-1,1-1h5.471c0.553,0,1,0.447,1,1
			S23.022,26.487,22.47,26.487z"/>
	</g>
</g>
<g id="Layer_4">
</g>
<g id="Layer_5">
	<g>
		<g>
			<circle fill="#00795A" cx="9.91" cy="10.313" r="1.27"/>
			<circle fill="#FFFFFF" cx="9.91" cy="9.313" r="1.27"/>
		</g>
		<g>
			<circle fill="#00795A" cx="15.945" cy="10.313" r="1.27"/>
			<circle fill="#FFFFFF" cx="15.945" cy="9.313" r="1.27"/>
		</g>
		<g>
			<circle fill="#00795A" cx="21.98" cy="10.313" r="1.27"/>
			<circle fill="#FFFFFF" cx="21.98" cy="9.313" r="1.27"/>
		</g>
	</g>
</g>
<g id="Layer_7">
</g>
</svg>
