<?xml version="1.0" encoding="utf-8"?>
<!-- Generator: Adobe Illustrator 19.1.0, SVG Export Plug-In . SVG Version: 6.00 Build 0)  -->
<svg version="1.1" xmlns="http://www.w3.org/2000/svg" xmlns:xlink="http://www.w3.org/1999/xlink" x="0px" y="0px"
	 viewBox="0 0 32 32" enable-background="new 0 0 32 32" xml:space="preserve">
<g id="Layer_2">
</g>
<g id="Layer_1">
</g>
<g id="Layer_3">
	<g>
		<g>
			<g>
				<path fill="#9370B1" d="M7,31.5c-1.93,0-3.5-1.57-3.5-3.5V4c0-1.93,1.57-3.5,3.5-3.5h15.207L28.5,6.793V28
					c0,1.93-1.57,3.5-3.5,3.5H7z"/>
				<path fill="#FFFFFF" d="M22,1l6,6v21c0,1.657-1.343,3-3,3H7c-1.657,0-3-1.343-3-3V4c0-1.657,1.343-3,3-3H22 M22.414,0H22H7
					C4.794,0,3,1.794,3,4v24c0,2.206,1.794,4,4,4h18c2.206,0,4-1.794,4-4V7V6.586l-0.293-0.293l-6-6L22.414,0L22.414,0z"/>
			</g>
		</g>
		<polygon fill="#735796" points="22,1 22,7 28,7 		"/>
		<g>
			<path fill="#735796" d="M20.363,21.89h-8.726c-0.552,0-1-0.448-1-1s0.448-1,1-1h8.726c0.552,0,1,0.448,1,1
				S20.915,21.89,20.363,21.89z"/>
			<path fill="#735796" d="M20.363,26.98h-8.726c-0.552,0-1-0.448-1-1s0.448-1,1-1h8.726c0.552,0,1,0.448,1,1
				S20.915,26.98,20.363,26.98z"/>
		</g>
		<g>
			<path fill="#735796" d="M20.363,12.649h-8.726c-0.552,0-1-0.448-1-1s0.448-1,1-1h8.726c0.552,0,1,0.448,1,1
				S20.915,12.649,20.363,12.649z"/>
			<path fill="#735796" d="M16,17.012c-0.552,0-1-0.448-1-1V7.286c0-0.552,0.448-1,1-1s1,0.448,1,1v8.726
				C17,16.564,16.552,17.012,16,17.012z"/>
		</g>
		<g>
			<path fill="#FFFFFF" d="M20.363,20.891h-8.726c-0.552,0-1-0.448-1-1s0.448-1,1-1h8.726c0.552,0,1,0.448,1,1
				S20.915,20.891,20.363,20.891z"/>
			<path fill="#FFFFFF" d="M20.363,25.981h-8.726c-0.552,0-1-0.448-1-1s0.448-1,1-1h8.726c0.552,0,1,0.448,1,1
				S20.915,25.981,20.363,25.981z"/>
		</g>
		<g>
			<path fill="#FFFFFF" d="M20.363,11.65h-8.726c-0.552,0-1-0.448-1-1s0.448-1,1-1h8.726c0.552,0,1,0.448,1,1
				S20.915,11.65,20.363,11.65z"/>
			<path fill="#FFFFFF" d="M16,16.013c-0.552,0-1-0.448-1-1V6.287c0-0.552,0.448-1,1-1s1,0.448,1,1v8.726
				C17,15.565,16.552,16.013,16,16.013z"/>
		</g>
	</g>
</g>
<g id="Layer_4">
</g>
<g id="Layer_5">
</g>
<g id="Layer_7">
</g>
</svg>
