<?xml version="1.0" encoding="utf-8"?>
<!-- Generator: Adobe Illustrator 19.1.0, SVG Export Plug-In . SVG Version: 6.00 Build 0)  -->
<svg version="1.1" xmlns="http://www.w3.org/2000/svg" xmlns:xlink="http://www.w3.org/1999/xlink" x="0px" y="0px"
	 viewBox="0 0 32 32" enable-background="new 0 0 32 32" xml:space="preserve">
<g id="Layer_2">
</g>
<g id="Layer_1">
	<g>
		<g>
			<path fill="#00A389" d="M7,31.5c-1.93,0-3.5-1.57-3.5-3.5V4c0-1.93,1.57-3.5,3.5-3.5h15.207L28.5,6.793V28
				c0,1.93-1.57,3.5-3.5,3.5H7z"/>
			<path fill="#FFFFFF" d="M22,1l6,6v21c0,1.657-1.343,3-3,3H7c-1.657,0-3-1.343-3-3V4c0-1.657,1.343-3,3-3H22 M22.414,0H22H7
				C4.794,0,3,1.794,3,4v24c0,2.206,1.794,4,4,4h18c2.206,0,4-1.794,4-4V7V6.586l-0.293-0.293l-6-6L22.414,0L22.414,0z"/>
		</g>
	</g>
	<polygon fill="#00795A" points="22,1 22,7 28,7 	"/>
	<g>
		<path fill="#00795A" d="M23,12.142H9c-0.276,0-0.5-0.224-0.5-0.5s0.224-0.5,0.5-0.5h14c0.276,0,0.5,0.224,0.5,0.5
			S23.276,12.142,23,12.142z"/>
		<path fill="#FFFFFF" d="M23,11.142H9c-0.276,0-0.5-0.224-0.5-0.5s0.224-0.5,0.5-0.5h14c0.276,0,0.5,0.224,0.5,0.5
			S23.276,11.142,23,11.142z"/>
	</g>
	<g>
		<path fill="#00795A" d="M23,16.621H9c-0.276,0-0.5-0.224-0.5-0.5s0.224-0.5,0.5-0.5h14c0.276,0,0.5,0.224,0.5,0.5
			S23.276,16.621,23,16.621z"/>
		<path fill="#FFFFFF" d="M23,15.621H9c-0.276,0-0.5-0.224-0.5-0.5s0.224-0.5,0.5-0.5h14c0.276,0,0.5,0.224,0.5,0.5
			S23.276,15.621,23,15.621z"/>
	</g>
	<g>
		<path fill="#00795A" d="M11.996,26.622c-0.497,0-0.886-0.389-1.022-0.803c-0.229-0.69-0.04-1.411,0.127-2.046
			c0.066-0.25,0.129-0.489,0.163-0.708c-0.204,0.022-0.41,0.117-0.587,0.27c-0.421,0.364-0.632,0.925-0.855,1.518
			c-0.167,0.445-0.341,0.906-0.616,1.322c-0.154,0.232-0.466,0.29-0.693,0.141c-0.23-0.152-0.293-0.463-0.141-0.693
			c0.213-0.321,0.359-0.71,0.515-1.122c0.258-0.684,0.523-1.392,1.138-1.922c0.458-0.396,1.028-0.579,1.557-0.503
			c0.236,0.03,0.422,0.127,0.548,0.285c0.182,0.233,0.161,0.496,0.153,0.608c-0.027,0.353-0.122,0.712-0.213,1.06
			c-0.145,0.549-0.281,1.067-0.146,1.477c0.02,0.06,0.065,0.104,0.088,0.116c0-0.006,0.037-0.023,0.111-0.091
			c0.217-0.195,0.395-0.455,0.583-0.729c0.07-0.104,0.142-0.207,0.215-0.308c0.488-0.669,0.915-1.008,1.344-1.064
			c0.248-0.034,0.482,0.032,0.676,0.187c0.379,0.304,0.347,0.785,0.33,1.044c-0.001,0.016-0.002,0.03-0.002,0.044h7.348
			c0.276,0,0.5,0.224,0.5,0.5s-0.224,0.5-0.5,0.5l-7.81-0.036c-0.179-0.072-0.587-0.322-0.534-1.076
			c0.002-0.028,0.005-0.067,0.006-0.106c-0.107,0.076-0.29,0.242-0.549,0.598l-0.199,0.284c-0.213,0.311-0.433,0.632-0.738,0.907
			c-0.145,0.13-0.372,0.307-0.681,0.342C12.071,26.619,12.033,26.622,11.996,26.622z"/>
		<path fill="#FFFFFF" d="M11.999,25.663c-0.499,0-0.889-0.39-1.025-0.803c-0.229-0.689-0.04-1.41,0.127-2.045
			c0.066-0.25,0.13-0.49,0.163-0.708c-0.203,0.021-0.409,0.116-0.586,0.269c-0.422,0.364-0.633,0.925-0.856,1.519
			c-0.167,0.445-0.341,0.906-0.616,1.322c-0.154,0.231-0.466,0.29-0.693,0.141c-0.23-0.152-0.293-0.463-0.141-0.693
			c0.213-0.321,0.359-0.71,0.515-1.122c0.258-0.685,0.523-1.393,1.138-1.923c0.453-0.393,1.014-0.58,1.556-0.503
			c0.241,0.034,0.425,0.13,0.549,0.286c0.182,0.233,0.161,0.496,0.153,0.608c-0.027,0.353-0.122,0.712-0.213,1.06
			c-0.145,0.549-0.281,1.067-0.146,1.475c0.02,0.062,0.065,0.106,0.088,0.117c0.001-0.005,0.038-0.024,0.111-0.09
			c0.217-0.195,0.395-0.455,0.583-0.729c0.07-0.104,0.142-0.207,0.215-0.308c0.488-0.67,0.916-1.008,1.344-1.065
			c0.248-0.035,0.481,0.032,0.677,0.188c0.378,0.302,0.347,0.784,0.329,1.044c-0.001,0.016-0.002,0.03-0.002,0.044h7.348
			c0.276,0,0.5,0.224,0.5,0.5s-0.224,0.5-0.5,0.5l-7.81-0.036c-0.179-0.072-0.587-0.322-0.534-1.076
			c0.002-0.027,0.005-0.066,0.006-0.107c-0.107,0.077-0.29,0.243-0.549,0.599l-0.199,0.284c-0.213,0.311-0.433,0.632-0.738,0.907
			c-0.145,0.13-0.372,0.307-0.681,0.342C12.072,25.661,12.035,25.663,11.999,25.663z"/>
	</g>
</g>
<g id="Layer_3">
</g>
<g id="Layer_4">
</g>
<g id="Layer_5">
</g>
<g id="Layer_7">
</g>
</svg>
