<?xml version="1.0" encoding="utf-8"?>
<!-- Generator: Adobe Illustrator 19.1.0, SVG Export Plug-In . SVG Version: 6.00 Build 0)  -->
<svg version="1.1" xmlns="http://www.w3.org/2000/svg" xmlns:xlink="http://www.w3.org/1999/xlink" x="0px" y="0px"
	 viewBox="0 0 32 32" enable-background="new 0 0 32 32" xml:space="preserve">
<g id="Layer_2">
</g>
<g id="Layer_1">
	<g>
		<g>
			<g>
				<path fill="#FFFFFF" d="M22.897,23.512H6.162c-0.553,0-1-0.447-1-1s0.447-1,1-1h15.096l3.867-19.339l3.851-0.011
					c0.001,0,0.002,0,0.003,0c0.551,0,0.998,0.446,1,0.997c0.002,0.553-0.444,1.001-0.997,1.003l-2.216,0.007L22.897,23.512z"/>
				<path fill="#FFFFFF" d="M23.716,24.512H6.162c-1.103,0-2-0.897-2-2s0.897-2,2-2h14.276l3.866-19.337l4.668-0.013
					c1.104,0,2.002,0.895,2.006,1.993c0.004,1.103-0.891,2.003-1.993,2.007l-1.399,0.004L23.716,24.512z M6.162,22.512h15.915H6.162
					z M25.945,3.172l-0.769,3.845L25.945,3.172l3.033-0.009L25.945,3.172z"/>
			</g>
			<g>
				<path fill="#FFFFFF" d="M22.926,18.889H4.477L2.043,7.435c-0.114-0.54,0.23-1.07,0.771-1.186C3.353,6.136,3.886,6.481,4,7.021
					l2.096,9.868h16.83c0.553,0,1,0.447,1,1S23.479,18.889,22.926,18.889z"/>
				<path fill="#FFFFFF" d="M22.926,19.889H3.667L1.064,7.643C0.837,6.565,1.528,5.502,2.606,5.271
					C3.686,5.053,4.75,5.736,4.979,6.814l1.927,9.075h16.021c1.103,0,2,0.897,2,2S24.028,19.889,22.926,19.889z M5.286,17.889
					h17.642H5.286z"/>
			</g>
			<g>
				<g>
					<circle fill-rule="evenodd" clip-rule="evenodd" fill="#FFFFFF" cx="8.508" cy="27.847" r="1.99"/>
					<path fill="#FFFFFF" d="M8.509,30.838c-1.648,0-2.99-1.342-2.99-2.99s1.342-2.99,2.99-2.99s2.989,1.342,2.989,2.99
						S10.157,30.838,8.509,30.838z M8.509,26.857c-0.546,0-0.99,0.444-0.99,0.99s0.444,0.99,0.99,0.99s0.989-0.444,0.989-0.99
						S9.055,26.857,8.509,26.857z"/>
				</g>
			</g>
			<g>
				<g>
					<circle fill-rule="evenodd" clip-rule="evenodd" fill="#FFFFFF" cx="19.852" cy="27.847" r="1.99"/>
					<path fill="#FFFFFF" d="M19.853,30.838c-1.648,0-2.99-1.342-2.99-2.99s1.342-2.99,2.99-2.99s2.989,1.342,2.989,2.99
						S21.501,30.838,19.853,30.838z M19.853,26.857c-0.546,0-0.99,0.444-0.99,0.99s0.444,0.99,0.99,0.99s0.989-0.444,0.989-0.99
						S20.398,26.857,19.853,26.857z"/>
				</g>
			</g>
		</g>
		<g>
			<path fill="#627783" d="M22.897,23.512H6.162c-0.553,0-1-0.447-1-1s0.447-1,1-1h15.096l3.867-19.339l3.851-0.011
				c0.001,0,0.002,0,0.003,0c0.551,0,0.998,0.446,1,0.997c0.002,0.553-0.444,1.001-0.997,1.003l-2.216,0.007L22.897,23.512z"/>
			<path fill="#627783" d="M22.926,18.889H4.477L2.043,7.435c-0.114-0.54,0.23-1.07,0.771-1.186C3.353,6.136,3.886,6.481,4,7.021
				l2.096,9.868h16.83c0.553,0,1,0.447,1,1S23.479,18.889,22.926,18.889z"/>
			<g>
				<circle fill-rule="evenodd" clip-rule="evenodd" fill="#627783" cx="8.508" cy="27.847" r="1.99"/>
			</g>
			<g>
				<circle fill-rule="evenodd" clip-rule="evenodd" fill="#627783" cx="19.852" cy="27.847" r="1.99"/>
			</g>
		</g>
	</g>
</g>
<g id="Layer_3">
</g>
<g id="Layer_4">
</g>
<g id="Layer_5">
</g>
<g id="Layer_7">
</g>
</svg>
